<?xml version="1.0" standalone="no"?>
<!DOCTYPE svg PUBLIC "-//W3C//DTD SVG 1.1//EN" "http://www.w3.org/Graphics/SVG/1.1/DTD/svg11.dtd">
<svg version="1.1" xmlns="http://www.w3.org/2000/svg" xmlns:xlink="http://www.w3.org/1999/xlink"><metadata>This SVG WebFont was generated by YouWorkForThem.
Copyright (c) 2021 by Milan Pleva. All rights reserved.</metadata><defs><font horiz-adv-x="610" id="ywftsvg"><font-face ascent="800" bbox="24 -287 638 932" cap-height="700" descent="-200" font-family="" font-stretch="normal" font-weight="400" panose-1="0 0 0 0 0 0 0 0 0 0" underline-position="0" underline-thickness="0" unicode-range="U+000D-2212" units-per-em="1000" x-height="470"/><missing-glyph/><glyph glyph-name=".notdef"/><glyph glyph-name="glyph1" horiz-adv-x="0"/><glyph glyph-name="glyph1" horiz-adv-x="0"/><glyph glyph-name="space" unicode=" "/><glyph d="M306 128q28 0 47 -19.5t19 -48.5q0 -28 -19.5 -48.5t-46.5 -20.5q-28 0 -48 20t-20 49t19.5 48.5t48.5 19.5zM271 236h-3h-2v464h2h3h68h3h2v-464h-2h-3h-68z" glyph-name="exclam" unicode="!"/><glyph d="M279 710v-255h-59v255h59zM390 710v-255h-59v255h59z" glyph-name="quotedbl" unicode="&quot;"/><glyph d="M144 174h-67v59h76l42 235h-66v58h77l30 174h58l-31 -174h148l31 174h56l-30 -174h65v-58h-75l-42 -235h66v-59h-77l-31 -174h-57l31 174h-148l-30 -174h-57zM253 468l-43 -235h148l42 235h-147z" glyph-name="numbersign" unicode="#"/><glyph d="M535 187q0 -87 -59 -137t-143 -58v-87h-62v88q-84 9 -136.5 59.5t-59.5 129.5v3h76l1 -2q4 -36 23 -60.5t46 -35t48.5 -14t43.5 -3.5q51 0 98.5 28t47.5 90q0 38 -27 65t-67.5 42t-87.5 34t-87.5 39t-67.5 59t-27 93q0 76 48.5 127t127.5 60v90h62v-91q78 -9 126 -60.5 t53 -133.5v-2h-76v2q-6 57 -41 88t-92 31q-48 0 -89.5 -25.5t-41.5 -82.5q0 -18 5.5 -33t19 -28t24 -21.5t33 -18.5t32 -14t35 -13.5t29.5 -10.5q44 -18 70 -31t56.5 -36.5t44.5 -55.5t14 -74z" glyph-name="dollar" unicode="$"/><glyph d="M167 709q36 0 58.5 -22t22.5 -59v-82q0 -38 -22.5 -60t-60.5 -22t-60 23.5t-22 62.5v75q0 39 22.5 61.5t61.5 22.5zM166 511q36 0 36 38v76q0 38 -36 38t-36 -38v-75q0 -39 36 -39zM445 235q37 0 59.5 -22.5t22.5 -59.5v-82q0 -37 -23 -59t-61 -22q-37 0 -59.5 23.5 t-22.5 61.5v75q0 40 22.5 62.5t61.5 22.5zM444 37q37 0 37 37v76q0 39 -37 39q-17 0 -26.5 -10.5t-9.5 -28.5v-75q0 -38 36 -38zM470 609l38 -31l-369 -487l-38 31z" glyph-name="percent" unicode="%"/><glyph d="M508 293h-137l161 -293h-89l-29 54q-2 -3 -6 -7t-17 -15t-28 -19.5t-39 -15.5t-49 -7q-80 0 -134.5 54t-54.5 135q0 118 99 170q12 6 26 10.5t23 6.5l8 1l-13 24q-20 36 -30 57.5t-18 52t-8 60.5q0 68 40.5 108t108.5 40q57 0 95.5 -35t45.5 -92h-78q-15 49 -65 49 q-33 0 -51.5 -18.5t-18.5 -51.5q0 -36 27 -96q9 -18 51 -94h180v-68v-5v-5zM389 100l-106 193h-5q-45 0 -80 -31t-35 -83q0 -49 26.5 -75t64.5 -32q17 -3 33.5 -3.5t29.5 2t25 5.5t20 7t14 7.5t10 5.5l3 3v1z" glyph-name="ampersand" unicode="&amp;"/><glyph d="M334 710v-255h-59v255h59z" glyph-name="quotesingle" unicode="'"/><glyph d="M265 152q0 -70 45 -122.5t112 -60.5v-80q-99 8 -166.5 84t-67.5 179v396q0 103 67.5 179t166.5 84v-80q-67 -8 -112 -60.5t-45 -122.5v-396z" glyph-name="parenleft" unicode="("/><glyph d="M188 -111v80q68 8 112.5 60.5t44.5 122.5v396q0 70 -44.5 122.5t-112.5 60.5v80q99 -8 166.5 -83.5t67.5 -179.5v-396q0 -103 -67.5 -179t-166.5 -84z" glyph-name="parenright" unicode=")"/><glyph d="M371 346l-66 136l-66 -136l-54 31l85 126l-151 -12v63l151 -11l-85 125l54 32l66 -137l66 137l54 -32l-85 -125l151 11v-63l-151 12l85 -126z" glyph-name="asterisk" unicode="*"/><glyph d="M128 363h147v149h59v-149h148v-63h-148v-150h-59v150h-147v63z" glyph-name="plus" unicode="+"/><glyph d="M305 128q28 0 47.5 -18.5t19.5 -44.5q0 -16 -3 -31l-20 -104q-5 -25 -25 -41.5t-45 -16.5h-24v24v10v10h23q26 0 33 52l3 22l-13 1q-27 1 -45 21.5t-18 47.5q0 29 19.5 48.5t47.5 19.5z" glyph-name="comma" unicode=","/><glyph d="M429 290v-61h-248v61h248z" glyph-name="hyphen" unicode="-"/><glyph d="M306 128q28 0 47 -19.5t19 -48.5q0 -28 -19.5 -48.5t-46.5 -20.5q-28 0 -48 20t-20 49t19.5 48.5t48.5 19.5z" glyph-name="period" unicode="."/><glyph d="M206 -74h-82l281 848h81z" glyph-name="slash" unicode="/"/><glyph d="M310 709q97 0 158 -61.5t61 -159.5v-107v-63v-108q0 -100 -62.5 -160t-166.5 -60q-97 0 -158 61.5t-61 159.5v107v63v108q0 100 62.5 160t166.5 60zM452 488q0 16 -3 33l-260 -405q38 -49 111 -49q72 0 112 37.5t40 105.5v278zM158 211q0 -17 3 -33l260 405 q-40 49 -111 49q-72 0 -112 -37.5t-40 -105.5v-278z" glyph-name="zero" unicode="0"/><glyph d="M550 74v-74h-443v69v10h191v552l-163 -175l-3 3l-1 1l-3 3l-50 46l178 191h68h32h19v-621h175v-5z" glyph-name="one" unicode="1"/><glyph d="M175 96l-1 -17h342v-10v-69h-409h-5h-5v86q0 71 31 116.5t100 93.5q55 39 111 71l13 8q45 25 67.5 56t22.5 80q0 119 -133 119q-55 0 -89 -30.5t-39 -86.5h-79q7 92 65 144t151 52q89 0 145 -54t56 -144q0 -76 -34 -122t-106 -89q-15 -9 -44.5 -28.5t-44.5 -28.5 q-36 -22 -56 -37.5t-39 -45t-20 -64.5zM174 74z" glyph-name="two" unicode="2"/><glyph d="M320 401q89 -3 142 -56t53 -141q0 -94 -57.5 -153.5t-147.5 -59.5q-93 0 -150.5 52.5t-64.5 143.5h74h5q4 -57 39.5 -87t96.5 -30t93.5 34.5t32.5 99.5q0 68 -40 100.5t-124 32.5h-65v5v79l179 200h-268v5v74h364v-76l-199 -222z" glyph-name="three" unicode="3"/><glyph d="M537 221v-10v-70h-96v-141h-66h-5h-5v141h-282v41v32l247 486h40h31h40v-484v5h96zM162 221h203v398z" glyph-name="four" unicode="4"/><glyph d="M330 431q97 -1 149.5 -58t52.5 -158q0 -104 -61 -164t-162 -60q-94 0 -154 57.5t-67 151.5h78q7 -63 44.5 -96.5t101.5 -33.5q144 0 144 146q0 73 -39 113t-110 40t-113 -53h-88v384h377v-69h1v-10h-300v-238q52 50 146 48z" glyph-name="five" unicode="5"/><glyph d="M94 146q-36 135 47 292q20 38 46.5 81.5t63.5 100t52 80.5h92l-190 -295q51 24 121 24q96 0 148.5 -56.5t52.5 -158.5q0 -101 -58 -162t-155 -61h-16q-77 0 -131 42t-73 113zM302 363q-141 -6 -141 -143q0 -71 39 -110.5t110 -39.5q68 0 104 38.5t36 110.5q0 74 -39 110 q-39 37 -109 34z" glyph-name="six" unicode="6"/><glyph d="M99 700h430v-90l-271 -610h-93l276 621h-342v5v74z" glyph-name="seven" unicode="7"/><glyph d="M414 375q51 -27 76.5 -77t25.5 -104q0 -90 -59.5 -146.5t-150.5 -56.5h-1h-1q-91 0 -150.5 56.5t-59.5 146.5q0 54 25.5 104t76.5 77h-2q-37 21 -56 64t-17 92q2 79 53.5 128.5t129.5 49.5h1h1q78 0 129.5 -49.5t53.5 -128.5q2 -49 -17 -92t-56 -64h-2zM303 70h4 q61 0 95 36t34 100q0 65 -34 100t-97 35h-1q-62 0 -96 -35t-34 -100q0 -64 34 -100t95 -36zM410 519q0 53 -27 82t-78 29t-78 -29t-27 -82q0 -111 105 -111v-5v0v5q105 0 105 111z" glyph-name="eight" unicode="8"/><glyph d="M516 554q36 -135 -47 -292q-20 -38 -46.5 -81.5t-63.5 -100t-52 -80.5h-92l190 295q-51 -24 -121 -24q-96 0 -148.5 56.5t-52.5 158.5q0 101 58 162t155 61h16q77 0 131 -42t73 -113zM308 337q141 6 141 143q0 71 -39 110.5t-110 39.5q-68 0 -104 -38.5t-36 -110.5 q0 -74 39 -110q39 -37 109 -34z" glyph-name="nine" unicode="9"/><glyph d="M239 410q0 29 20 49t48 20q27 0 46.5 -20.5t19.5 -48.5t-19.5 -48t-46.5 -20q-28 0 -48 20t-20 48zM307 128q28 0 47 -19.5t19 -48.5q0 -28 -19.5 -48.5t-46.5 -20.5q-28 0 -48 20t-20 49t19.5 48.5t48.5 19.5z" glyph-name="colon" unicode=":"/><glyph d="M306 479q27 0 46.5 -20.5t19.5 -48.5t-19.5 -48t-46.5 -20q-28 0 -48 20t-20 48q0 29 20 49t48 20zM372 65q0 -16 -3 -31l-20 -104q-5 -25 -25 -41.5t-45 -16.5h-24v24v10v10h23q26 0 33 52l3 22l-13 1q-27 1 -45 21.5t-18 47.5q0 29 19.5 48.5t47.5 19.5t47.5 -18.5 t19.5 -44.5z" glyph-name="semicolon" unicode=";"/><glyph d="M474 177l-32 -66l-342 180v78l342 179l32 -66l-313 -152z" glyph-name="less" unicode="&lt;"/><glyph d="M482 396h-354v61h354v-61zM128 206v63h354v-63h-354z" glyph-name="equal" unicode="="/><glyph d="M510 291l-342 -180l-32 65l313 154l-313 152l32 66l342 -179v-78z" glyph-name="greater" unicode=">"/><glyph d="M304 709q92 0 147.5 -48t61.5 -137q0 -52 -27.5 -95t-74.5 -68q-55 -30 -73 -51.5t-21 -73.5h-78q4 75 33.5 115.5t93.5 75.5q70 39 70 98q0 54 -38 80t-89 26q-58 0 -93.5 -31.5t-40.5 -86.5h-78q7 88 63 142t144 54zM278 128q28 0 47.5 -20t19.5 -49t-19.5 -49 t-47.5 -20t-47.5 20t-19.5 49t19.5 49t47.5 20z" glyph-name="question" unicode="?"/><glyph d="M501 85q-12 0 -20 8.5t-8 21.5v20q-39 -57 -127 -57q-57 0 -95 39t-43 103q-1 7 -1 41v13q0 76 36 119q42 48 104 48q84 0 126 -57v41v5q0 60 -43 105q-44 42 -102 42h-17q-86 0 -147.5 -63.5t-61.5 -152.5v-134q0 -103 71 -176.5t172 -73.5h221v-60h-221q-125 0 -213 91 t-88 219v134q0 114 78.5 194.5t188.5 80.5h17q83 0 143 -60q59 -61 59 -146v-5v-58v-224h36v-58h-65zM473 278q0 49 -28 77.5t-77 28.5q-50 0 -77 -29t-27 -81v-30q0 -52 27 -80.5t76 -28.5t77.5 28t28.5 77v38z" glyph-name="at" unicode="@"/><glyph d="M564 0h-72h-5l-47 161h-270l-47 -161h-5h-72l210 700h33h32h33zM187 236zM193 239h224l-112 386z" glyph-name="A" unicode="A"/><glyph d="M416 350q36 -7 72 -46q44 -47 44 -124q0 -66 -36 -114t-97 -61q-24 -5 -58 -5h-255v74v5h51v271v271h-51v5v74h255q34 0 58 -5q61 -13 97 -61t36 -115q0 -76 -44 -123q-16 -17 -34 -28.5t-28 -14.5zM214 621v-231h128q63 0 93 39q21 25 21 77q0 115 -95 115h-147zM214 79 h147q95 0 95 114q0 53 -21 78q-30 39 -93 39h-128v-231z" glyph-name="B" unicode="B"/><glyph d="M472 212h73q-6 -103 -72 -162.5t-170 -59.5t-168 67t-64 174v238q0 109 64 174.5t170 65.5q104 0 168.5 -58.5t71.5 -161.5h-73h-5q-6 65 -47 103.5t-106 38.5q-79 0 -122.5 -42t-43.5 -118v-241q0 -74 41.5 -117t112.5 -43h8q70 0 111 37t46 105h5z" glyph-name="C" unicode="C"/><glyph d="M324 700q95 0 155 -61.5t60 -160.5v-256q0 -99 -60.5 -160.5t-156.5 -61.5h-237v74v5h51v542h-51v5v74h239zM213 621v-542h111q63 0 100.5 38.5t37.5 102.5v259q0 64 -37 103t-97 39h-115z" glyph-name="D" unicode="D"/><glyph d="M512 621h-309v-231h281v-5v-70v-5h-281v-231h309v-10v-69h-386v700h386v-69v-10z" glyph-name="E" unicode="E"/><glyph d="M517 621h-309v-231h281v-5v-70v-5h-281v-310h-5h-5h-67v700h386v-69v-10z" glyph-name="F" unicode="F"/><glyph d="M283 325h259v-325h-55h-5h-5v92q-7 -14 -18.5 -28.5t-32.5 -32.5t-55.5 -29.5t-76.5 -11.5q-74 0 -133.5 42t-80.5 112q-12 37 -12 109v193q0 71 12 109q24 75 83.5 114.5t140.5 39.5q102 0 166.5 -59t70.5 -161h-66h-6h-5q-6 68 -47.5 105t-111.5 37q-106 0 -145 -85 q-15 -35 -15 -87v-11v-218q0 -75 42 -117.5t116 -42.5q77 0 119.5 41.5t42.5 117.5v17h-182v5v74z" glyph-name="G" unicode="G"/><glyph d="M455 700h68v-700h-68h-5h-5v310h-280v-310h-5h-5h-68v700h68h5h5v-310h280v310h5h5z" glyph-name="H" unicode="H"/><glyph d="M501 621h-158v-542h158v-10v-69h-392v74v5h157v542h-157v5v74h392v-69v-10z" glyph-name="I" unicode="I"/><glyph d="M152 700h350v-497q0 -97 -59.5 -155t-154.5 -58q-86 0 -142.5 54.5t-63.5 140.5h73h5q6 -55 41 -85t93 -30q62 0 96.5 35.5t34.5 100.5v415h-273v5v74z" glyph-name="J" unicode="J"/><glyph d="M565 700l-233 -350l233 -350h-87l-212 310h-98v-310h-5h-5h-67v700h67h5h5v-310h98l212 310h87z" glyph-name="K" unicode="K"/><glyph d="M518 79v-10v-69h-382v700h68h5h5v-621h304z" glyph-name="L" unicode="L"/><glyph d="M427 700h131v-700h-77v608l-139 -608h-74l-139 608v-608h-77v700h131l122 -578z" glyph-name="M" unicode="M"/><glyph d="M445 700h78v-700h-108l-250 594v-594h-78v700h109l249 -594v594z" glyph-name="N" unicode="N"/><glyph d="M301 709q110 0 175.5 -64.5t65.5 -175.5v-238q0 -111 -66.5 -176t-176.5 -65q-103 0 -167 67t-64 174v238q0 109 64 174.5t169 65.5zM465 470q0 73 -42 117t-112 44q-79 0 -122.5 -41.5t-43.5 -118.5v-241q0 -74 41 -117t112 -43h9q74 0 116 42.5t42 117.5v240z" glyph-name="O" unicode="O"/><glyph d="M360 700q83 0 136 -54.5t53 -140.5v-16q0 -89 -52.5 -143.5t-138.5 -54.5h-163v-291h-5h-5h-68v700h243zM195 621v-251h160q55 0 85.5 29.5t30.5 83.5v23q0 53 -29.5 84t-80.5 31h-166z" glyph-name="P" unicode="P"/><glyph d="M542 231q0 -143 -104 -205l42 -96l-4 -2l-49 -23l-4 -2v0l-5 -2l-44 98q-34 -9 -75 -9q-103 0 -167 67t-64 174v238q0 109 64 174.5t169 65.5q110 0 175.5 -64.5t65.5 -175.5v-238zM352 216l54 -117q59 42 59 131v240q0 73 -42 117t-112 44q-79 0 -122.5 -41.5 t-43.5 -118.5v-189h108q32 0 59 -17.5t40 -48.5zM253 212h-107q5 -66 45.5 -104t106.5 -38h9q19 0 35 3l-3 6l-50 108q-12 25 -36 25z" glyph-name="Q" unicode="Q"/><glyph d="M525 435q-11 -38 -38.5 -66t-49.5 -37l-22 -8q4 -1 11.5 -3.5t26.5 -13.5t33.5 -26.5t26.5 -45t12 -65.5v-170h-68h-5h-5v174q0 46 -23.5 80t-71.5 34h-171v-288h-5h-5h-68v700h227q42 0 62 -5q67 -16 105 -68t38 -125q0 -40 -10 -67zM331 367q15 0 45 2q81 11 81 126 q0 65 -30.5 95.5t-95.5 30.5h-150v-254h150z" glyph-name="R" unicode="R"/><glyph d="M419 356q55 -26 85.5 -71t30.5 -98q0 -95 -69 -145.5t-161 -50.5q-97 0 -159.5 52t-70.5 139v3h76l1 -2q4 -36 23 -60.5t46 -35t48.5 -14t43.5 -3.5q51 0 98.5 28t47.5 90q0 60 -73 98q-29 15 -96 38h-1q-194 63 -194 196q0 83 57 136t148 53q92 0 149 -53t63 -144v-2 h-76v2q-6 57 -41 88t-92 31q-48 0 -89.5 -25.5t-41.5 -82.5q0 -70 110 -114q4 -2 11.5 -4.5l10.5 -3.5q14 -6 20 -8q18 -6 26 -9q43 -15 69 -28z" glyph-name="S" unicode="S"/><glyph d="M540 631v-10h-197v-621h-2h-3h-67h-3h-2v621h-196v5v74h470v-69z" glyph-name="T" unicode="T"/><glyph d="M466 700h66v-479q0 -104 -61 -167.5t-161 -63.5q-105 0 -168.5 62.5t-63.5 169.5v478h67h5h5v-475q0 -73 38 -114t106 -41q66 0 111.5 34t45.5 120v476h5h5z" glyph-name="U" unicode="U"/><glyph d="M475 700zM487 700h77l-210 -700h-98l-210 700h72h5l182 -626z" glyph-name="V" unicode="V"/><glyph d="M507 700h72l-111 -700h-102l-61 560l-61 -560h-102l-111 700h77l82 -592l74 592h26h30h21h5l74 -592l82 592h5z" glyph-name="W" unicode="W"/><glyph d="M352 370l196 -370h-85l-157 318l-158 -318h-6h-80l195 370l-172 330h78h6l137 -281l136 281h84z" glyph-name="X" unicode="X"/><glyph d="M550 701l-206 -412v-290h-3h-2h-34h-34h-2h-3v290l-206 412h82h5l158 -339l158 339h87z" glyph-name="Y" unicode="Y"/><glyph d="M156 79h382v-10v-69h-466v89v5l364 527h-343v5v74h426v-93z" glyph-name="Z" unicode="Z"/><glyph d="M224 811h198v-69v-5v-5h-157v-764h157v-5v-5v-69h-198q-15 0 -25.5 11t-10.5 26v848q0 15 10.5 26t25.5 11z" glyph-name="bracketleft" unicode="["/><glyph d="M124 774h11h70l281 -848h-71h-11z" glyph-name="backslash" unicode="\"/><glyph d="M188 -111v79h157v764h-157v79h198q15 0 25.5 -11t10.5 -26v-848q0 -15 -10.5 -26t-25.5 -11h-198z" glyph-name="bracketright" unicode="]"/><glyph d="M490 352h-75l-110 237l-110 -237h-75l146 294h12h54h12z" glyph-name="asciicircum" unicode="^"/><glyph d="M534 -97v-63h-458v63h458z" glyph-name="underscore" unicode="_"/><glyph d="M319 700l53 -140h-58l-76 140h81z" glyph-name="grave" unicode="`"/><glyph d="M72 256q0 102 49 159q55 64 139 64q37 0 68.5 -8.5t50 -21t32 -25t18.5 -20.5l5 -9v75h72v-396h50v-74h-86q-16 0 -26 10.5t-10 27.5v37q-2 -3 -5 -9t-17.5 -20.5t-32 -25.5t-50 -20t-70.5 -9q-79 0 -128.5 53.5t-57.5 138.5q-1 12 -1 73zM144 256v-41q0 -72 37 -112 t107 -40q66 0 106 38t40 108v52q0 70 -39.5 108t-105.5 38q-70 0 -107.5 -40t-37.5 -111z" glyph-name="a" unicode="a"/><glyph d="M537 183q-8 -85 -57.5 -138.5t-128.5 -53.5q-38 0 -70 8.5t-50.5 21t-31.5 25t-18 20.5l-5 9v-37q0 -17 -10 -27.5t-26 -10.5h-86v74h50v626h72v-305q2 3 5.5 9t18 20.5t32.5 25.5t49.5 20t68.5 9q84 0 139 -64q49 -57 49 -159q0 -61 -1 -73zM321 407q-66 0 -105.5 -38 t-39.5 -108v-52q0 -70 40 -108t106 -38q70 0 107 40t37 112v41q0 71 -37.5 111t-107.5 40z" glyph-name="b" unicode="b"/><glyph d="M79 236q0 111 63.5 177t170.5 66q164 0 220 -131l-67 -27q-37 85 -152 85q-77 0 -120 -45.5t-43 -124.5q0 -80 43 -125.5t121 -45.5q113 0 151 86l67 -27q-57 -133 -222 -133q-106 0 -169 67.5t-63 177.5z" glyph-name="c" unicode="c"/><glyph d="M73 183q-1 12 -1 73q0 102 49 159q55 64 139 64q37 0 68.5 -8.5t50 -21t32 -25t18.5 -20.5l5 -9v305h72v-626h50v-74h-86q-16 0 -26 10.5t-10 27.5v37q-2 -3 -5 -9t-17.5 -20.5t-32 -25.5t-50 -20t-70.5 -9q-79 0 -128.5 53.5t-57.5 138.5zM144 215q0 -72 37 -112 t107 -40q66 0 106 38t40 108v52q0 70 -39.5 108t-106.5 38q-70 0 -107 -40t-37 -111v-41z" glyph-name="d" unicode="d"/><glyph d="M542 233h-70h-332q0 -80 43 -124q44 -46 122 -44q79 -3 124 44q11 11 20 26l61 -33q-15 -27 -32 -44q-64 -69 -173 -67h-4q-104 0 -167 67q-67 68 -65 178q-2 107 65 177q62 66 173 66q106 2 171 -66q46 -48 60 -122q5 -30 5 -56zM307 405q-80 2 -124 -44 q-24 -23 -36 -66h318q-12 43 -36 66q-45 47 -122 44z" glyph-name="e" unicode="e"/><glyph d="M224 396h-120v74h120v116q0 47 33 80.5t79 33.5h172v-74h-172q-16 0 -28.5 -11.5t-12.5 -28.5v-116h213v-74h-213v-396h-71v396z" glyph-name="f" unicode="f"/><glyph d="M444 471h71v-585q0 -49 -32.5 -82.5t-79.5 -33.5h-194v75h194q15 0 28 12t13 29v189q-2 -3 -5.5 -9t-18 -20.5t-32.5 -25.5t-49.5 -20t-68.5 -9q-84 0 -139 64q-50 58 -50 160q0 57 2 73q7 84 57 137.5t129 53.5q38 0 70 -8.5t50.5 -21t31.5 -25t18 -20.5l5 -9v76z M298 63q66 0 106 38.5t40 108.5v52q0 69 -40.5 107t-106.5 38q-69 0 -106 -40t-37 -111v-41q0 -71 37 -111.5t107 -40.5z" glyph-name="g" unicode="g"/><glyph d="M115 0v700h71v-294q2 3 6 8t18 17.5t30.5 22t45 17.5t59.5 8q72 0 121 -54.5t49 -127.5v-297h-72v289q0 55 -39 87t-91 32q-57 0 -92 -37.5t-35 -95.5v-275h-71z" glyph-name="h" unicode="h"/><glyph d="M126 0v74h157v322h-157v74h193q15 0 26 -11t11 -26v-359h158v-74h-388zM252 653q0 28 19.5 48t47.5 20q29 0 48.5 -19.5t19.5 -48.5t-19.5 -48.5t-48.5 -19.5q-28 0 -47.5 20t-19.5 48z" glyph-name="i" unicode="i"/><glyph d="M126 -230v74h194q17 0 28 12t11 30v510h-158v75h194q15 0 25.5 -11t10.5 -26v-548q0 -49 -32 -82.5t-79 -33.5h-194zM395 721q28 0 47.5 -20t19.5 -48t-19.5 -48t-47.5 -20q-27 0 -47 20t-20 48t19.5 48t47.5 20z" glyph-name="j" unicode="j"/><glyph d="M192 0h-72v700h72v-399h86l140 169h94l-177 -214l211 -256h-93l-187 226h-74v-226z" glyph-name="k" unicode="k"/><glyph d="M108 74h158v552h-158v74h194q14 0 25 -11t11 -26v-589h200v-74h-430v74z" glyph-name="l" unicode="l"/><glyph d="M436 479q53 0 78.5 -35.5t25.5 -95.5v-348h-71l-1 352q0 27 -16.5 40.5t-40.5 13.5t-39 -15.5t-15 -40.5v-350h-72v354q0 27 -16.5 40t-38.5 13q-30 0 -46 -25q-9 -14 -9 -32v-350h-72v397h-51v74h87q15 0 25.5 -11.5t10.5 -28.5v-4q27 52 93 52q28 0 48.5 -13t27.5 -26 l7 -13q3 6 9.5 14.5t28.5 23t47 14.5z" glyph-name="m" unicode="m"/><glyph d="M353 479q72 0 121.5 -54.5t49.5 -127.5v-297h-73v289q0 55 -39 87t-90 32q-57 0 -92 -37.5t-35 -95.5v-275h-72v373v23h-51v74h88q14 0 24.5 -9t10.5 -23v-21v-11q2 3 6 8t18 17.5t30.5 22t44.5 17.5t59 8z" glyph-name="n" unicode="n"/><glyph d="M477 413q67 -68 65 -178q2 -109 -65 -177q-64 -69 -173 -67h-4q-104 0 -167 67q-67 68 -65 178q-2 107 65 177q62 66 173 66q106 2 171 -66zM471 235v1q2 80 -43 125q-45 47 -122 44q-80 2 -124 -44q-45 -45 -43 -125q-1 -82 43 -127q44 -46 122 -44q79 -3 124 44 q45 45 43 126z" glyph-name="o" unicode="o"/><glyph d="M538 215q0 -103 -49 -160q-55 -64 -139 -64q-37 0 -68.5 8.5t-50 21t-32 25t-18.5 20.5l-5 9v-305h-72v626h-50v74h86q16 0 26 -10.5t10 -27.5v-37q2 3 5 9t17.5 20.5t32 25.5t50 20t70.5 9q79 0 128.5 -53t57.5 -138q1 -12 1 -73zM466 215v41q0 71 -37 111t-107 40 q-66 0 -106 -38t-40 -107v-52q0 -70 39.5 -108.5t105.5 -38.5q70 0 107.5 40t37.5 112z" glyph-name="p" unicode="p"/><glyph d="M72 215q0 61 1 73q7 84 57 137.5t129 53.5q38 0 70 -8.5t50.5 -21t31.5 -25t18 -20.5l5 -9v37q0 17 10 27.5t26 10.5h86v-74h-50v-626h-72v305q-2 -3 -5.5 -9t-18 -20.5t-32.5 -25.5t-49.5 -20t-68.5 -9q-84 0 -139 64q-49 57 -49 160zM288 407q-70 0 -107 -40t-37 -111 v-41q0 -71 37 -111.5t107 -40.5q67 0 106.5 38t39.5 109v52q0 69 -40 107t-106 38z" glyph-name="q" unicode="q"/><glyph d="M129 470h137q14 0 25 -9t11 -23v-29q2 3 5.5 7.5t17 16.5t30 21.5t44.5 17t60 7.5q56 0 102 -35l-49 -61q-32 24 -80 24q-61 0 -95.5 -34.5t-34.5 -97.5v-201h153v-74h-325v74h100v322h-101v74z" glyph-name="r" unicode="r"/><glyph d="M406 252q48 -12 74 -43t26 -76q0 -50 -31.5 -83t-75 -46t-96.5 -13q-64 0 -115.5 25t-79.5 70l-2 2l64 34l1 -2q41 -57 138 -57q11 0 25.5 1.5t39.5 7t41.5 20t16.5 36.5q0 36 -44 53l-89 22q-33 8 -50.5 12.5t-46.5 17t-44 26t-27 36.5t-12 53q0 63 52.5 97t122.5 34 q126 0 185 -76l2 -3l-3 -2l-59 -36l-2 2q-39 42 -123 42q-103 0 -103 -59q0 -14 9 -25.5t18.5 -17t26.5 -13.5q19 -7 52 -14q37 -7 109 -25z" glyph-name="s" unicode="s"/><glyph d="M90 396v74h120v230h71v-230h213v-74h-213v-282q0 -17 12.5 -28.5t28.5 -11.5h172v-74h-172q-46 0 -79 33.5t-33 80.5v282h-120z" glyph-name="t" unicode="t"/><glyph d="M87 470h72v-289q0 -55 39 -87t90 -32q58 0 93 37.5t35 95.5v275h72v-396h50v-74h-87q-14 0 -24.5 9t-10.5 23v32q-2 -3 -6 -8t-18 -17.5t-30.5 -22t-45 -17.5t-59.5 -8q-72 0 -121 54.5t-49 127.5v297z" glyph-name="u" unicode="u"/><glyph d="M464 470h83l-195 -470h-47h-12h-35l-195 470h83l159 -400z" glyph-name="v" unicode="v"/><glyph d="M507 470h78l-110 -470h-74l-96 379l-96 -379h-74l-110 470h78l72 -373l99 373h31h31l99 -373z" glyph-name="w" unicode="w"/><glyph d="M362 243l164 -243h-83l-138 208l-138 -208h-83l164 243l-144 227h84l117 -192l117 192h84z" glyph-name="x" unicode="x"/><glyph d="M497 470v-527v-57q0 -49 -32.5 -82.5t-78.5 -33.5h-195v74h195q15 0 27.5 12t12.5 30v57v122q-2 -3 -6 -8t-18 -18t-30.5 -22.5t-45 -17.5t-59.5 -8q-72 0 -121 55t-49 128v296h72v-288q0 -55 39 -87.5t91 -32.5q57 0 92 37.5t35 96.5v274h71z" glyph-name="y" unicode="y"/><glyph d="M199 74h309v-74h-404v65l298 331h-289v74h386v-65z" glyph-name="z" unicode="z"/><glyph d="M377 811h85v-69v-5v-5h-63q-53 0 -73.5 -16.5t-20.5 -69.5v-160q0 -48 -25 -83.5t-70 -52.5q45 -17 70 -52.5t25 -83.5v-160q0 -53 20.5 -69.5t73.5 -16.5h63v-5v-5v-69h-85q-59 0 -104 41t-45 100v210q0 35 -24 56.5t-56 21.5v25v14v25q32 0 56 21.5t24 56.5v210 q0 59 45 100t104 41z" glyph-name="braceleft" unicode="{"/><glyph d="M339 816h5v-931h-5h-5h-68v931h68h5z" glyph-name="bar" unicode="|"/><glyph d="M148 732v79h85q59 0 104 -41t45 -100v-210q0 -35 24 -56.5t56 -21.5v-64q-32 0 -56 -21.5t-24 -56.5v-210q0 -59 -45 -100t-104 -41h-85v79h63q53 0 73.5 16.5t20.5 69.5v160q0 48 25 83.5t70 52.5q-45 17 -70 52.5t-25 83.5v160q0 53 -20.5 69.5t-73.5 16.5h-63z" glyph-name="braceright" unicode="}"/><glyph d="M227 327q45 0 90 -34q5 -4 16.5 -13t17.5 -13q21 -15 41 -15q39 0 57 55h49q-5 -51 -36 -83t-79 -32q-49 0 -86 32q-18 15 -33 27q-21 15 -42 15q-25 0 -40 -16t-20 -38h-50q5 50 36 82.5t79 32.5z" glyph-name="asciitilde" unicode="~"/><glyph d="M306 479q27 0 46.5 -20.5t19.5 -48.5t-19.5 -48t-46.5 -20q-28 0 -48 20t-20 48q0 29 20 49t48 20zM339 236h3h2v-466h-2h-3h-68h-3h-2v466h2h3h68z" glyph-name="exclamdown" unicode="¡"/><glyph d="M270 561l16 3v87h60v-87l18 -3q119 -20 165 -126l-66 -27q-37 84 -149 84q-76 0 -118 -44t-42 -122q0 -79 42 -123.5t119 -44.5q110 0 148 85l66 -27q-48 -109 -165 -127l-18 -3v-86h-60v86l-16 3q-89 16 -138 79t-49 158t48.5 157t138.5 78z" glyph-name="cent" unicode="¢"/><glyph d="M249 307v-228h282v-5v-5v-69h-419v69v5v5h60v228h-60v55h60v158q0 89 47.5 139t132.5 50q80 0 126.5 -45.5t52.5 -125.5h-78q-5 48 -29 70.5t-72 22.5q-103 0 -103 -114v-155h145v-55h-145z" glyph-name="sterling" unicode="£"/><glyph d="M443 418q32 -45 32 -100.5t-32 -99.5l68 -68l-38 -38l-68 68q-45 -32 -100 -32t-100 32l-68 -68l-38 38l68 68q-32 45 -32 100t32 100l-68 68l38 38l68 -68q45 32 100 32t100 -32l68 68l38 -38zM224 237q34 -34 81 -34t81 34t34 81t-34 81t-81 34t-81 -34t-34 -81t34 -81 z" glyph-name="currency" unicode="¤"/><glyph d="M549 700l-179 -357h105v-54h-132v-95h132v-54h-132v-140h-2h-3h-33h-34h-2h-3v140h-131v54h131v95h-131v54h104l-178 357h81h5l158 -338l157 338h87z" glyph-name="yen" unicode="¥"/><glyph d="M339 825h5v-400h-5h-5h-68v400h68h5zM334 295h5h5v-401h-5h-5h-68v401h68z" glyph-name="brokenbar" unicode="¦"/><glyph d="M100 303q0 69 66 114l23 16l-22 18q-52 43 -52 104q0 72 53 113t127 41q75 0 124.5 -42t56.5 -114h-72q-13 83 -108 83q-43 0 -73.5 -18.5t-30.5 -58.5q0 -36 32 -60q30 -21 92 -40q69 -22 90 -32q46 -20 75 -53.5t29 -75.5q0 -33 -19 -63t-48 -48l-26 -17l24 -19 q56 -43 56 -111q0 -76 -60.5 -118.5t-140.5 -42.5q-77 0 -132.5 41t-63.5 112h74q8 -42 44 -60t79 -18q49 0 88 20.5t39 64.5q0 55 -82 83q-88 31 -133 49q-109 48 -109 132zM208 256q17 -12 50 -25t56.5 -20.5t25.5 -7.5q31 1 63.5 23.5t32.5 58.5q0 46 -58 74 q-48 24 -106 38q-32 -1 -65.5 -21t-33.5 -61q0 -36 35 -59z" glyph-name="section" unicode="§"/><glyph d="M170 630q0 22 15.5 38t37.5 16t37.5 -16t15.5 -38t-15.5 -38t-37.5 -16t-37.5 15.5t-15.5 38.5zM335 630q0 22 15.5 38t37.5 16t37 -15.5t15 -38.5t-15 -38.5t-37 -15.5t-37.5 16t-15.5 38z" glyph-name="dieresis" unicode="¨"/><glyph d="M305 407q-10 0 -19.5 -2.5t-19.5 -14.5t-10 -32v-79q0 -49 49 -49q42 0 45 38l2 11h42l-1 -13q-4 -36 -28 -56.5t-62 -20.5q-39 0 -63 25t-24 66v78q0 40 24.5 65t64.5 25q35 0 59.5 -21t28.5 -57l1 -13h-41l-1 10q-7 40 -47 40zM305 561q98 0 167.5 -71.5t69.5 -171.5 t-69.5 -171t-167.5 -71t-167.5 71t-69.5 171q0 101 69.5 172t167.5 71zM305 116q80 0 137.5 59.5t57.5 142.5t-57.5 142.5t-137.5 59.5q-81 0 -138.5 -59.5t-57.5 -142.5t57.5 -142.5t138.5 -59.5z" glyph-name="copyright" unicode="©"/><glyph d="M438 427h37v-47h-48q-15 0 -25.5 10.5t-10.5 25.5v15q-13 -23 -43.5 -40t-68.5 -17q-36 0 -63 14q-67 36 -72 117q0 13 -1 34v0q1 20 1 33q5 81 72 117q27 14 63 14q69 0 106 -49q5 -5 6 -7v50h47v-158v-112zM388 539v18q0 17 -3 30q-1 8 -7 20q-14 28 -42.5 42t-67.5 7 q-32 -6 -53.5 -29t-21.5 -55v-16v-17v-34q0 -32 21.5 -54.5t53.5 -29.5q54 -11 87 18.5t33 74.5v25z" glyph-name="ordfeminine" unicode="ª"/><glyph d="M485 437l-123 -155l123 -155l-56 -47l-142 179q-9 9 -9 24q0 14 9 23l142 177zM233 483l57 -46l-124 -155l124 -155l-57 -46l-141 178q-9 13 -9 24q0 13 9 23z" glyph-name="guillemotleft" unicode="«"/><glyph d="M477 364v-163h-60v101h-284v62h344z" glyph-name="logicalnot" unicode="¬"/><glyph d="M373 290v-61h-136v61h136z" glyph-name="uni00AD" unicode="­"/><glyph d="M305 325q-74 0 -127 53t-53 127t53 127t127 53t127 -53t53 -127t-53 -127t-127 -53zM305 655q-62 0 -106.5 -44t-44.5 -106t44.5 -106.5t106.5 -44.5t106.5 44.5t44.5 106.5t-44.5 106t-106.5 44zM343 497q12 6 18 12q13 13 13 34q0 22 -10 37q-14 19 -34 22q-6 1 -17 1 h-68v-196h31v77h37q8 0 11 -1q17 -5 16 -25v-51h31v51q0 29 -28 39zM276 572h37q5 0 13 -2q17 -5 17 -27q0 -24 -19 -28q-3 -1 -11 -1h-37v58z" glyph-name="registered" unicode="®"/><glyph d="M447 640v-56h-284v56h284z" glyph-name="macron" unicode="¯"/><glyph d="M188 588q0 50 34 85.5t83 35.5t83 -35.5t34 -85.5t-34 -85.5t-83 -35.5t-83 35.5t-34 85.5zM305 509q31 0 53.5 23.5t22.5 55.5t-22.5 55t-53.5 23t-53.5 -23t-22.5 -55t22.5 -55.5t53.5 -23.5z" glyph-name="degree" unicode="°"/><glyph d="M128 364h146v150h61v-150h147v-62h-147v-152h-61v152h-146v62zM128 0v62h354v-62h-354z" glyph-name="plusminus" unicode="±"/><glyph d="M232 432v-8h183v-47h-230v63q0 59 87 91l12 4q45 18 55 23q39 18 39 47q0 22 -15.5 35t-27 15t-22.5 2q-68 0 -77 -57l-1 -4h-47l1 6q7 47 39 74.5t81 27.5q50 0 83 -28.5t33 -72.5q0 -63 -83 -97q-34 -12 -40 -14q-10 -3 -26 -9q-24 -10 -37 -23q-7 -9 -7 -28z" glyph-name="uni00B2" unicode="²"/><glyph d="M402 533q22 -27 22 -62q0 -43 -32.5 -70t-85.5 -27q-44 0 -76 22.5t-40 58.5l-2 8h48l2 -4q16 -36 70 -36q30 0 49.5 13t18.5 40q0 52 -103 52h-6v55l89 70h-155v47h207v-28v-19v-14l-93 -73q61 0 87 -33z" glyph-name="uni00B3" unicode="³"/><glyph d="M238 560l53 140h81l-76 -140h-58z" glyph-name="acute" unicode="´"/><glyph d="M488 75h50v-74h-87q-14 0 -24.5 9t-10.5 23v21v11q-2 -3 -6 -8t-18 -17.5t-30.5 -22t-44.5 -17.5t-59 -8q-56 0 -98 33v-255h-72v404v296h72v-288q0 -55 39 -87t90 -32q57 0 92 37.5t35 95.5v274h72v-372v-23z" glyph-name="mu" unicode="µ"/><glyph d="M269 700h74v-700h-53v309h-21q-79 0 -135 57t-56 138t56 138.5t135 57.5zM422 0v700h54v-700h-54z" glyph-name="paragraph" unicode="¶"/><glyph d="M306 406q27 0 46.5 -20.5t19.5 -48.5t-19.5 -47.5t-46.5 -19.5q-28 0 -48 19.5t-20 47.5q0 29 20 49t48 20z" glyph-name="periodcentered" unicode="·"/><glyph d="M301 -47q9 2 30.5 -0.5t35.5 -12.5q33 -24 33 -60t-28.5 -61.5t-70.5 -23.5q-22 1 -44.5 8t-34.5 13l-12 7l14 33l11 -5q30 -10 57 -10q21 0 39 9.5t18 29.5q0 39 -85 39h-9l33 102h39z" glyph-name="cedilla" unicode="¸"/><glyph d="M347 424h77v-47h-218v47h94v225l-83 -72l-31 36l101 87h13h19h28v-276z" glyph-name="uni00B9" unicode="¹"/><glyph d="M424 659q45 -47 44 -120q2 -73 -44 -119q-45 -47 -120 -45h-2q-71 0 -116 45q-46 46 -44 120q-2 72 44 119q44 45 120 45q73 0 118 -45zM420 539v1q2 54 -29 85q-32 32 -85 30q-55 2 -87 -30q-31 -31 -29 -85q-2 -56 29 -86q32 -32 85 -30q54 -3 87 30q31 31 29 85z" glyph-name="ordmasculine" unicode="º"/><glyph d="M248 282l-123 155l56 46l142 -177q9 -9 9 -23q0 -15 -9 -24l-142 -179l-56 47zM320 437l57 46l141 -177q9 -11 9 -23q0 -11 -9 -24l-141 -178l-57 46l124 155z" glyph-name="guillemotright" unicode="»"/><glyph d="M208 700v-275h77v-47h-217v47h93v224l-83 -72l-30 36l101 87h12h19h28zM48 163l182 154l30 -36l-182 -154zM562 537l-182 -154l-30 36l182 154zM493 322v-205h52v-47h-52v-70h-47v70h-142v20v23v2l141 207h1h47v0zM353 117h93v136z" glyph-name="onequarter" unicode="¼"/><glyph d="M208 700v-276h77v-46h-218v46h94v225l-83 -72l-31 36l102 87h12h19h28zM47 163l183 153l30 -35l-182 -154zM563 537l-182 -154l-31 36l182 154zM368 82q-8 -8 -8 -27v-8h183v-47h-230v63q0 60 87 90l12 5q37 12 55 22q39 19 39 48q0 17 -8 28.5t-20.5 15.5t-20.5 5.5 t-15 1.5q-68 0 -78 -56l-1 -5h-46l1 7q6 46 38 73.5t81 27.5q51 0 83.5 -28t32.5 -72q0 -63 -83 -97q-14 -5 -40 -15q-18 -6 -26 -9q-26 -12 -36 -23z" glyph-name="onehalf" unicode="½"/><glyph d="M48 163l182 154l30 -36l-182 -154zM562 537l-182 -154l-30 36l182 154zM493 322v-205h52v-47h-52v-70h-47v70h-142v20v23v2l141 207h1h47v0zM353 117h93v136zM270 534q21 -27 21 -62q0 -44 -32.5 -70.5t-84.5 -26.5q-44 0 -76 22t-39 59l-2 7h48l1 -3q16 -37 71 -37 q29 0 48.5 13t19.5 40q-1 53 -104 53h-6v55l89 69h-154v47h206v-27v-20v-14l-93 -73q60 0 87 -32z" glyph-name="threequarters" unicode="¾"/><glyph d="M314 -239q-92 0 -147.5 48t-61.5 137q0 52 27.5 95t74.5 68q55 30 73 51.5t21 74.5h78q-4 -75 -33.5 -115.5t-93.5 -75.5q-70 -40 -70 -99q0 -54 38 -80t89 -26q58 0 93.5 31.5t40.5 86.5h78q-7 -88 -63 -142t-144 -54zM340 342q-28 0 -47.5 20t-19.5 49t19.5 49t47.5 20 t47.5 -20t19.5 -49t-19.5 -49t-47.5 -20z" glyph-name="questiondown" unicode="¿"/><glyph d="M327 769h-58l-76 140h81zM564 0h-72h-5l-47 161h-270l-47 -161h-5h-72l210 700h33h32h33zM187 236zM193 239h224l-112 386z" glyph-name="Agrave" unicode="À"/><glyph d="M420 909l-76 -140h-58l53 140h81zM564 0h-72h-5l-47 161h-270l-47 -161h-5h-72l210 700h33h32h33zM187 236zM193 239h224l-112 386z" glyph-name="Aacute" unicode="Á"/><glyph d="M305 864l-80 -94h-57l94 138h87l94 -138h-57zM564 0h-72h-5l-47 161h-270l-47 -161h-5h-72l210 700h33h32h33zM187 236zM193 239h224l-112 386z" glyph-name="Acircumflex" unicode="Â"/><glyph d="M145 799q8 47 33.5 72t64.5 25q35 0 65 -22q5 -3 15 -12t15.5 -13t15.5 -8t20 -4q30 0 43 40h48q-8 -46 -34 -71t-65 -25q-35 0 -66 23q-5 4 -14.5 11.5t-15 12t-15 8.5t-19.5 4q-32 0 -43 -41h-48zM563 0h-72h-5l-47 161h-270l-47 -161h-5h-72l210 700h33h32h33z M186 236zM192 239h224l-112 386z" glyph-name="Atilde" unicode="Ã"/><glyph d="M223 785q-23 0 -38.5 15.5t-15.5 38.5t15.5 38.5t38.5 15.5q22 0 37.5 -16t15.5 -38t-15.5 -38t-37.5 -16zM388 785q-22 0 -37.5 16t-15.5 38t15.5 38t37.5 16t37 -15.5t15 -38.5t-15 -38.5t-37 -15.5zM563 0h-72h-5l-47 161h-270l-47 -161h-5h-72l210 700h33h32h33z M186 236zM192 239h224l-112 386z" glyph-name="Adieresis" unicode="Ä"/><glyph d="M306 757q-36 0 -61 25.5t-25 62.5q0 36 25 61.5t61 25.5q35 0 60 -25.5t25 -61.5q0 -37 -25 -62.5t-60 -25.5zM306 890q-18 0 -31 -13.5t-13 -31.5q0 -19 13 -32t31 -13t30 13.5t12 31.5t-12 31.5t-30 13.5zM564 0h-72h-5l-47 161h-270l-47 -161h-5h-72l210 700h33h32h33 zM187 236zM193 239h224l-112 386z" glyph-name="Aring" unicode="Å"/><glyph d="M324 700h244v-69v-5v-5h-191v-231h162v-3v-2v-70v-2v-3h-162v-231h191v-5v-5v-69h-268v157h-144l-50 -157h-82l231 700h45h24zM300 241v366l-117 -366h117z" glyph-name="AE" unicode="Æ"/><glyph d="M319 -10l-15 -37q9 1 30.5 -1.5t35.5 -11.5q33 -21 33 -60q0 -36 -28.5 -61.5t-71.5 -23.5q-21 1 -43.5 8t-34.5 13l-12 7l13 33l11 -5q31 -10 57 -10q21 0 39.5 9.5t18.5 29.5q0 39 -85 39h-9l23 72q-95 8 -152.5 73.5t-57.5 166.5v238q0 109 64 174.5t170 65.5 q104 0 168.5 -58.5t71.5 -161.5h-73h-5q-6 65 -47 103.5t-106 38.5q-79 0 -122.5 -42t-43.5 -118v-241q0 -74 41.5 -117t112.5 -43h8q70 0 111 37t46 105h5h73q-6 -99 -67 -158t-159 -64z" glyph-name="Ccedilla" unicode="Ç"/><glyph d="M363 769l-52 140h-82l76 -140h58zM512 621h-309v-231h281v-5v-70v-5h-281v-231h309v-10v-69h-386v700h386v-69v-10z" glyph-name="Egrave" unicode="È"/><glyph d="M284 769l53 140h81l-75 -140h-59zM512 621h-309v-231h281v-5v-70v-5h-281v-231h309v-10v-69h-386v700h386v-69v-10z" glyph-name="Eacute" unicode="É"/><glyph d="M239 770h-56l93 138h88l93 -138h-56l-81 94zM512 621h-309v-231h281v-5v-70v-5h-281v-231h309v-10v-69h-386v700h386v-69v-10z" glyph-name="Ecircumflex" unicode="Ê"/><glyph d="M184 839q0 22 15.5 38t37.5 16t37.5 -16t15.5 -38t-15.5 -38t-37.5 -16t-37.5 15.5t-15.5 38.5zM349 839q0 22 15.5 38t37.5 16t37 -15.5t15 -38.5t-15 -38.5t-37 -15.5t-37.5 16t-15.5 38zM512 621h-309v-231h281v-5v-70v-5h-281v-231h309v-10v-69h-386v700h386v-69v-10 z" glyph-name="Edieresis" unicode="Ë"/><glyph d="M344 769l-53 140h-81l76 -140h58zM501 621h-158v-542h158v-10v-69h-392v74v5h157v542h-157v5v74h392v-69v-10z" glyph-name="Igrave" unicode="Ì"/><glyph d="M266 769l53 140h81l-76 -140h-58zM501 621h-158v-542h158v-10v-69h-392v74v5h157v542h-157v5v74h392v-69v-10z" glyph-name="Iacute" unicode="Í"/><glyph d="M224 770h-56l93 138h88l93 -138h-56l-81 94zM501 621h-158v-542h158v-10v-69h-392v74v5h157v542h-157v5v74h392v-69v-10z" glyph-name="Icircumflex" unicode="Î"/><glyph d="M170 839q0 22 15.5 38t37.5 16t37.5 -16t15.5 -38t-15.5 -38t-37.5 -16t-37.5 15.5t-15.5 38.5zM335 839q0 22 15.5 38t37.5 16t37 -15.5t15 -38.5t-15 -38.5t-37 -15.5t-37.5 16t-15.5 38zM501 621h-158v-542h158v-10v-69h-392v74v5h157v542h-157v5v74h392v-69v-10z" glyph-name="Idieresis" unicode="Ï"/><glyph d="M324 700q95 0 155 -61.5t60 -160.5v-256q0 -99 -60.5 -160.5t-156.5 -61.5h-237v74v5h51v237h-51v68h51v237h-51v5v74h239zM462 220v259q0 64 -37 103t-97 39h-115v-237h118v-68h-118v-237h111q63 0 100.5 38.5t37.5 102.5z" glyph-name="Eth" unicode="Ð"/><glyph d="M145 799q8 47 33.5 72t64.5 25q35 0 65 -22q5 -3 15 -12t15.5 -13t15.5 -8t20 -4q30 0 43 40h48q-8 -46 -34 -71t-65 -25q-35 0 -66 23q-5 4 -14.5 11.5t-15 12t-15 8.5t-19.5 4q-32 0 -43 -41h-48zM444 700h78v-700h-108l-250 594v-594h-78v700h109l249 -594v594z" glyph-name="Ntilde" unicode="Ñ"/><glyph d="M339 769l-53 140h-81l76 -140h58zM301 709q110 0 175.5 -64.5t65.5 -175.5v-238q0 -111 -66.5 -176t-176.5 -65q-103 0 -167 67t-64 174v238q0 109 64 174.5t169 65.5zM465 470q0 73 -42 117t-112 44q-79 0 -122.5 -41.5t-43.5 -118.5v-241q0 -74 41 -117t112 -43h9 q74 0 116 42.5t42 117.5v240z" glyph-name="Ograve" unicode="Ò"/><glyph d="M272 769l53 140h81l-76 -140h-58zM301 709q110 0 175.5 -64.5t65.5 -175.5v-238q0 -111 -66.5 -176t-176.5 -65q-103 0 -167 67t-64 174v238q0 109 64 174.5t169 65.5zM465 470q0 73 -42 117t-112 44q-79 0 -122.5 -41.5t-43.5 -118.5v-241q0 -74 41 -117t112 -43h9 q74 0 116 42.5t42 117.5v240z" glyph-name="Oacute" unicode="Ó"/><glyph d="M224 770h-56l93 138h88l93 -138h-56l-81 94zM300 709q110 0 175.5 -64.5t65.5 -175.5v-238q0 -111 -66.5 -176t-176.5 -65q-103 0 -167 67t-64 174v238q0 109 64 174.5t169 65.5zM464 470q0 73 -42 117t-112 44q-79 0 -122.5 -41.5t-43.5 -118.5v-241q0 -74 41 -117 t112 -43h9q74 0 116 42.5t42 117.5v240z" glyph-name="Ocircumflex" unicode="Ô"/><glyph d="M145 799q8 47 33.5 72t64.5 25q35 0 65 -22q5 -3 15 -12t15.5 -13t15.5 -8t20 -4q30 0 43 40h48q-8 -46 -34 -71t-65 -25q-35 0 -66 23q-5 4 -14.5 11.5t-15 12t-15 8.5t-19.5 4q-32 0 -43 -41h-48zM300 709q110 0 175.5 -64.5t65.5 -175.5v-238q0 -111 -66.5 -176 t-176.5 -65q-103 0 -167 67t-64 174v238q0 109 64 174.5t169 65.5zM464 470q0 73 -42 117t-112 44q-79 0 -122.5 -41.5t-43.5 -118.5v-241q0 -74 41 -117t112 -43h9q74 0 116 42.5t42 117.5v240z" glyph-name="Otilde" unicode="Õ"/><glyph d="M170 839q0 22 15.5 38t37.5 16t37.5 -16t15.5 -38t-15.5 -38t-37.5 -16t-37.5 15.5t-15.5 38.5zM335 839q0 22 15.5 38t37.5 16t37 -15.5t15 -38.5t-15 -38.5t-37 -15.5t-37.5 16t-15.5 38zM300 709q110 0 175.5 -64.5t65.5 -175.5v-238q0 -111 -66.5 -176t-176.5 -65 q-103 0 -167 67t-64 174v238q0 109 64 174.5t169 65.5zM464 230v240q0 73 -42 117t-112 44q-79 0 -122.5 -41.5t-43.5 -118.5v-241q0 -74 41 -117t112 -43h9q74 0 116 42.5t42 117.5z" glyph-name="Odieresis" unicode="Ö"/><glyph d="M485 472l-137 -140l137 -139l-44 -46l-136 141l-136 -141l-44 46l137 139l-137 140l44 43l136 -140l136 140z" glyph-name="multiply" unicode="×"/><glyph d="M550 707l-52 -87q44 -61 44 -151v-238q0 -111 -66.5 -176t-176.5 -65q-90 0 -150 51l-45 -75l-44 26l53 88q-45 62 -45 151v238q0 109 64 174.5t169 65.5q97 0 160 -51l45 75zM145 230q0 -40 13 -74l262 434q-43 41 -109 41q-79 0 -122.5 -41.5t-43.5 -118.5v-241z M465 470q0 39 -13 73l-262 -434q42 -39 108 -39h9q74 0 116 42.5t42 117.5v240z" glyph-name="Oslash" unicode="Ø"/><glyph d="M344 769l-53 140h-81l76 -140h58zM466 700h66v-479q0 -104 -61 -167.5t-161 -63.5q-105 0 -168.5 62.5t-63.5 169.5v478h67h5h5v-475q0 -73 38 -114t106 -41q66 0 111.5 34t45.5 120v476h5h5z" glyph-name="Ugrave" unicode="Ù"/><glyph d="M266 769l53 140h81l-76 -140h-58zM466 700h66v-479q0 -104 -61 -167.5t-161 -63.5q-105 0 -168.5 62.5t-63.5 169.5v478h67h5h5v-475q0 -73 38 -114t106 -41q66 0 111.5 34t45.5 120v476h5h5z" glyph-name="Uacute" unicode="Ú"/><glyph d="M224 770h-56l93 138h88l93 -138h-56l-81 94zM466 700h66v-479q0 -104 -61 -167.5t-161 -63.5q-105 0 -168.5 62.5t-63.5 169.5v478h67h5h5v-475q0 -73 38 -114t106 -41q66 0 111.5 34t45.5 120v476h5h5z" glyph-name="Ucircumflex" unicode="Û"/><glyph d="M170 839q0 22 15.5 38t37.5 16t37.5 -16t15.5 -38t-15.5 -38t-37.5 -16t-37.5 15.5t-15.5 38.5zM335 839q0 22 15.5 38t37.5 16t37 -15.5t15 -38.5t-15 -38.5t-37 -15.5t-37.5 16t-15.5 38zM466 700h66v-479q0 -104 -61 -167.5t-161 -63.5q-105 0 -168.5 62.5 t-63.5 169.5v478h67h5h5v-475q0 -73 38 -114t106 -41q66 0 111.5 34t45.5 120v476h5h5z" glyph-name="Udieresis" unicode="Ü"/><glyph d="M269 769l53 140h81l-76 -140h-58zM550 701l-206 -412v-290h-3h-2h-34h-34h-2h-3v290l-206 412h82h5l158 -339l158 339h87z" glyph-name="Yacute" unicode="Ý"/><glyph d="M350 555q83 0 136 -54.5t53 -140.5v-16q0 -89 -52.5 -144t-138.5 -55h-163v-145h-5h-5h-68v700h68h5h5v-145h165zM345 225q55 0 85.5 29.5t30.5 83.5v23q0 53 -29.5 83.5t-80.5 30.5h-166v-250h160z" glyph-name="Thorn" unicode="Þ"/><glyph d="M64 504q0 81 56 138.5t135 57.5h76q53 0 91 -38.5t38 -93.5q0 -41 -22 -75l-88 -134q2 1 7 2.5t19.5 3.5t30.5 2q70 -2 110.5 -54t40.5 -123q0 -87 -47 -143t-128 -56q-69 0 -114 42.5t-51 111.5h72q14 -80 96 -80q32 0 53.5 14t30.5 36t12 38.5t3 31.5q0 55 -31 88.5 t-82 33.5q-25 0 -50 -11l-68 48l124 191q10 14 10 33q0 24 -16.5 41t-40.5 17h-76q-49 0 -83.5 -36t-34.5 -86v-504h-73v504z" glyph-name="germandbls" unicode="ß"/><glyph d="M287 700l53 -140h-58l-76 140h81zM72 256q0 102 49 159q55 64 139 64q37 0 68.5 -8.5t50 -21t32 -25t18.5 -20.5l5 -9v75h72v-396h50v-74h-86q-16 0 -26 10.5t-10 27.5v37q-2 -3 -5 -9t-17.5 -20.5t-32 -25.5t-50 -20t-70.5 -9q-79 0 -128.5 53t-57.5 138q-1 13 -1 74z M144 256v-41q0 -72 37 -112t107 -40q66 0 106 38t40 108v52q0 70 -39.5 108t-105.5 38q-70 0 -107.5 -40t-37.5 -111z" glyph-name="agrave" unicode="à"/><glyph d="M72 256q0 102 49 159q55 64 139 64q37 0 68.5 -8.5t50 -21t32 -25t18.5 -20.5l5 -9v75h72v-396h50v-74h-86q-16 0 -26 10.5t-10 27.5v37q-2 -3 -5 -9t-17.5 -20.5t-32 -25.5t-50 -20t-70.5 -9q-79 0 -128.5 53t-57.5 138q-1 13 -1 74zM144 256v-41q0 -72 37 -112t107 -40 q66 0 106 38t40 108v52q0 70 -39.5 108t-105.5 38q-70 0 -107.5 -40t-37.5 -111zM258 560l52 140h82l-76 -140h-58z" glyph-name="aacute" unicode="á"/><glyph d="M72 256q0 102 49 159q55 64 139 64q37 0 68.5 -8.5t50 -21t32 -25t18.5 -20.5l5 -9v75h72v-396h50v-74h-86q-16 0 -26 10.5t-10 27.5v37q-2 -3 -5 -9t-17.5 -20.5t-32 -25.5t-50 -20t-70.5 -9q-79 0 -128.5 53t-57.5 138q-1 13 -1 74zM144 256v-41q0 -72 37 -112t107 -40 q66 0 106 38t40 108v52q0 70 -39.5 108t-105.5 38q-70 0 -107.5 -40t-37.5 -111zM217 562h-57l94 138h87l94 -138h-57l-80 94z" glyph-name="acircumflex" unicode="â"/><glyph d="M72 256q0 102 49 159q55 64 139 64q37 0 68.5 -8.5t50 -21t32 -25t18.5 -20.5l5 -9v75h72v-396h50v-74h-86q-16 0 -26 10.5t-10 27.5v37q-2 -3 -5 -9t-17.5 -20.5t-32 -25.5t-50 -20t-70.5 -9q-79 0 -128.5 53t-57.5 138q-1 13 -1 74zM144 256v-41q0 -72 37 -112t107 -40 q66 0 106 38t40 108v52q0 70 -39.5 108t-105.5 38q-70 0 -107.5 -40t-37.5 -111zM139 590h48q11 41 43 41q13 0 22.5 -4.5t23.5 -16.5t18 -15q33 -24 66 -24q39 0 65 25.5t34 71.5h-48q-11 -40 -43 -40q-10 0 -19.5 4t-15.5 8.5t-16 12.5l-15 12q-30 22 -64 22 q-39 0 -65 -25t-34 -72z" glyph-name="atilde" unicode="ã"/><glyph d="M166 630q0 22 15.5 38t37.5 16t37.5 -16t15.5 -38t-15.5 -38t-37.5 -16t-37.5 15.5t-15.5 38.5zM331 630q0 22 15.5 38t37.5 16t37 -15.5t15 -38.5t-15 -38.5t-37 -15.5t-37.5 16t-15.5 38zM72 256q0 102 49 159q55 64 139 64q37 0 68.5 -8.5t50 -21t32 -25t18.5 -20.5 l5 -9v75h72v-396h50v-74h-86q-16 0 -26 10.5t-10 27.5v37q-2 -3 -5 -9t-17.5 -20.5t-32 -25.5t-50 -20t-70.5 -9q-79 0 -128.5 53t-57.5 138q-1 13 -1 74zM144 256v-41q0 -72 37 -112t107 -40q66 0 106 38t40 108v52q0 70 -39.5 108t-105.5 38q-70 0 -107.5 -40t-37.5 -111z " glyph-name="adieresis" unicode="ä"/><glyph d="M72 256q0 102 49 159q55 64 139 64q37 0 68.5 -8.5t50 -21t32 -25t18.5 -20.5l5 -9v75h72v-396h50v-74h-86q-16 0 -26 10.5t-10 27.5v37q-2 -3 -5 -9t-17.5 -20.5t-32 -25.5t-50 -20t-70.5 -9q-79 0 -128.5 53t-57.5 138q-1 13 -1 74zM144 256v-41q0 -72 37 -112t107 -40 q66 0 106 38t40 108v52q0 70 -39.5 108t-105.5 38q-70 0 -107.5 -40t-37.5 -111zM290 723q-36 0 -61 -25.5t-25 -61.5q0 -37 25 -62.5t61 -25.5q35 0 59.5 25.5t24.5 62.5q0 36 -24.5 61.5t-59.5 25.5zM289 591q-18 0 -31 13t-13 32q0 18 13 31t31 13t30.5 -13.5t12.5 -30.5 q0 -18 -12.5 -31.5t-30.5 -13.5z" glyph-name="aring" unicode="å"/><glyph d="M581 199h-241v-43q0 -43 22.5 -67.5t63.5 -24.5q58 0 77 36l4 7l68 -17l-4 -11q-16 -41 -54.5 -64.5t-89.5 -23.5q-34 0 -65.5 17t-48.5 46l-8 14l-8 -14q-35 -63 -125 -63q-59 0 -101 41t-42 99q0 64 43 102t116 38h82v43q0 43 -23 68t-63 25q-54 0 -65 -50l-1 -7h-71 l1 11q6 53 43.5 85.5t91.5 32.5q74 0 113 -62l9 -13l9 13q40 62 115 62q68 0 110 -47t42 -123v-110zM340 271h171v38q0 98 -85 98q-41 0 -63.5 -24.5t-22.5 -67.5v-44zM270 199h-82q-89 0 -89 -68q0 -30 22.5 -48.5t50.5 -18.5h12q41 0 63.5 24.5t22.5 67.5v43z" glyph-name="ae" unicode="æ"/><glyph d="M315 65q112 0 150 85l68 -27q-56 -126 -209 -132l-14 -38q8 2 30 -0.5t35 -12.5q34 -24 34 -60t-28.5 -61.5t-71.5 -23.5q-22 1 -44.5 8t-34.5 13l-12 7l14 33l11 -5q30 -10 57 -10q21 0 39 9.5t18 29.5q0 39 -84 39h-10l24 73q-96 8 -152 74.5t-56 169.5q0 110 64 176 t170 66q164 0 220 -131l-68 -27q-37 85 -151 85q-77 0 -119.5 -45t-42.5 -124q0 -81 42.5 -126t120.5 -45z" glyph-name="ccedilla" unicode="ç"/><glyph d="M543 232h-71h-332q-2 -80 43 -124q44 -46 122 -44q79 -3 124 44q13 13 20 26l62 -33q-13 -24 -32 -44q-66 -69 -174 -67h-4q-104 0 -168 67q-66 69 -64 178q-2 108 64 178q62 66 174 66q106 2 172 -66q47 -48 59 -122q5 -23 5 -57v-2zM307 405q-80 2 -124 -44 q-25 -25 -36 -66h318q-11 41 -36 66q-45 47 -122 44zM295 700l53 -140h-58l-76 140h81z" glyph-name="egrave" unicode="è"/><glyph d="M543 232h-71h-332q-2 -80 43 -124q44 -46 122 -44q79 -3 124 44q13 13 20 26l62 -33q-13 -24 -32 -44q-66 -69 -174 -67h-4q-104 0 -168 67q-66 69 -64 178q-2 108 64 178q62 66 174 66q106 2 172 -66q47 -48 59 -122q5 -23 5 -57v-2zM307 405q-80 2 -124 -44 q-25 -25 -36 -66h318q-11 41 -36 66q-45 47 -122 44zM270 560l53 140h81l-75 -140h-59z" glyph-name="eacute" unicode="é"/><glyph d="M543 232h-71h-332q-2 -80 43 -124q44 -46 122 -44q79 -3 124 44q13 13 20 26l62 -33q-13 -24 -32 -44q-66 -69 -174 -67h-4q-104 0 -168 67q-66 69 -64 178q-2 108 64 178q62 66 174 66q106 2 172 -66q47 -48 59 -122q5 -23 5 -57v-2zM307 405q-80 2 -124 -44 q-25 -25 -36 -66h318q-11 41 -36 66q-45 47 -122 44zM225 562h-56l93 138h88l93 -138h-56l-81 94z" glyph-name="ecircumflex" unicode="ê"/><glyph d="M171 630q0 22 15.5 38t37.5 16t37.5 -16t15.5 -38t-15.5 -38t-37.5 -16t-37.5 15.5t-15.5 38.5zM336 630q0 -22 15.5 -38t37.5 -16t37 15.5t15 38.5t-15 38.5t-37 15.5t-37.5 -16t-15.5 -38zM543 232h-71h-332q-2 -80 43 -124q44 -46 122 -44q79 -3 124 44q13 13 20 26 l62 -33q-13 -24 -32 -44q-66 -69 -174 -67h-4q-104 0 -168 67q-66 69 -64 178q-2 108 64 178q62 66 174 66q106 2 172 -66q47 -48 59 -122q5 -23 5 -57v-2zM307 405q-80 2 -124 -44q-25 -25 -36 -66h318q-11 41 -36 66q-45 47 -122 44z" glyph-name="edieresis" unicode="ë"/><glyph d="M126 0v74h157v322h-157v74h193q15 0 26 -11t11 -26v-359h158v-74h-388zM292 700l53 -140h-58l-76 140h81z" glyph-name="igrave" unicode="ì"/><glyph d="M514 0h-388v74h157v322h-157v74h193q15 0 26 -11t11 -26v-359h158v-74zM294 560l53 140h81l-76 -140h-58z" glyph-name="iacute" unicode="í"/><glyph d="M126 74h157v322h-157v74h193q15 0 26 -11t11 -26v-359h158v-74h-388v74zM239 562h-56l93 138h88l93 -138h-56l-81 94z" glyph-name="icircumflex" unicode="î"/><glyph d="M283 396h-157v74h193q15 0 26 -11t11 -26v-359h158v-74h-388v74h157v322zM184 630q0 22 15.5 38t37.5 16t37.5 -16t15.5 -38t-15.5 -38t-37.5 -16t-37.5 15.5t-15.5 38.5zM349 630q0 22 15.5 38t37.5 16t37 -15.5t15 -38.5t-15 -38.5t-37 -15.5t-37.5 16t-15.5 38z" glyph-name="idieresis" unicode="ï"/><glyph d="M277 479q122 0 188 -88q-1 10 -6 29t-31 74.5t-66 108.5l-5 7l-54 -47l-31 40l55 46l-9 11q-8 11 -23 29.5t-20 24.5l56 47q7 -9 21 -26.5t21 -26.5l10 -12l56 48l30 -40l-56 -49l4 -5q131 -171 131 -353q0 -135 -62.5 -220.5t-183.5 -85.5q-109 0 -174.5 66.5 t-65.5 178.5q0 99 61 171t154 72zM303 65q73 0 118 47t45 123q0 74 -47.5 122t-119.5 48q-76 0 -120 -45.5t-44 -123.5q0 -81 44.5 -126t123.5 -45z" glyph-name="eth" unicode="ð"/><glyph d="M353 479q72 0 121.5 -54.5t49.5 -127.5v-297h-73v289q0 55 -39 87t-90 32q-57 0 -92 -37.5t-35 -95.5v-275h-72v373v23h-51v74h88q14 0 24.5 -9t10.5 -23v-21v-11q2 3 6 8t18 17.5t30.5 22t44.5 17.5t59 8zM164 590q8 47 34 72t65 25q33 0 65 -22q5 -3 15 -12t15.5 -13 t15.5 -8t20 -4q31 0 42 40h48q-7 -46 -33 -71.5t-65 -25.5q-32 0 -67 24q-5 3 -14.5 11.5t-15 12.5t-15 8t-19.5 4q-31 0 -42 -41h-49z" glyph-name="ntilde" unicode="ñ"/><glyph d="M478 413q66 -69 64 -179q2 -108 -64 -177t-174 -67h-4q-104 0 -168 67q-66 69 -64 178q-2 108 64 178q62 66 174 66q106 2 172 -66zM471 234v1q2 81 -43 126q-45 47 -122 44q-80 2 -124 -44q-45 -45 -43 -126q-2 -82 43 -127q44 -46 122 -44q79 -3 124 44q45 45 43 126z M288 700l53 -140h-58l-76 140h81z" glyph-name="ograve" unicode="ò"/><glyph d="M478 413q66 -69 64 -179q2 -108 -64 -177t-174 -67h-4q-104 0 -168 67q-66 69 -64 178q-2 108 64 178q62 66 174 66q106 2 172 -66zM471 234v1q2 81 -43 126q-45 47 -122 44q-80 2 -124 -44q-45 -45 -43 -126q-2 -82 43 -127q44 -46 122 -44q79 -3 124 44q45 45 43 126z M273 560l53 140h81l-76 -140h-58z" glyph-name="oacute" unicode="ó"/><glyph d="M478 413q66 -69 64 -179q2 -108 -64 -177t-174 -67h-4q-104 0 -168 67q-66 69 -64 178q-2 108 64 178q62 66 174 66q106 2 172 -66zM471 234v1q2 81 -43 126q-45 47 -122 44q-80 2 -124 -44q-45 -45 -43 -126q-2 -82 43 -127q44 -46 122 -44q79 -3 124 44q45 45 43 126z M224 562h-56l93 138h88l93 -138h-56l-81 94z" glyph-name="ocircumflex" unicode="ô"/><glyph d="M478 413q66 -69 64 -179q2 -108 -64 -177t-174 -67h-4q-104 0 -168 67q-66 69 -64 178q-2 108 64 178q62 66 174 66q106 2 172 -66zM471 234v1q2 81 -43 126q-45 47 -122 44q-80 2 -124 -44q-45 -45 -43 -126q-2 -82 43 -127q44 -46 122 -44q79 -3 124 44q45 45 43 126z M145 590q8 47 34 72t65 25q34 0 64 -22l15 -12t16 -12.5t15.5 -8.5t19.5 -4q32 0 43 40h48q-8 -46 -34 -71.5t-65 -25.5q-33 0 -66 24q-5 4 -14.5 11.5t-15 12t-15 8.5t-19.5 4q-32 0 -43 -41h-48z" glyph-name="otilde" unicode="õ"/><glyph d="M77 235q0 114 65 178t177 64q106 0 168.5 -66.5t62.5 -176.5t-63.5 -176.5t-169.5 -66.5q-111 0 -175.5 65t-64.5 179zM149 235q0 -86 45 -128.5t127 -42.5q76 0 116.5 47t40.5 124v5q0 72 -42 118t-113 46q-174 0 -174 -169zM160 640q0 22 15.5 38t37.5 16t37.5 -16 t15.5 -38q0 -23 -15.5 -38.5t-37.5 -15.5t-37.5 15.5t-15.5 38.5zM413 586q-22 0 -37 15.5t-15 38.5t15 38.5t37 15.5t37.5 -16t15.5 -38q0 -23 -15.5 -38.5t-37.5 -15.5z" glyph-name="odieresis" unicode="ö"/><glyph d="M128 300v63h354v-63h-354zM251 511q0 23 15.5 39t38.5 16q22 0 37.5 -16t15.5 -39t-15.5 -39t-37.5 -16q-23 0 -38.5 16t-15.5 39zM305 208q22 0 37.5 -16.5t15.5 -39.5t-15.5 -39t-37.5 -16t-38 16t-16 39t16 39.5t38 16.5z" glyph-name="divide" unicode="÷"/><glyph d="M478 413q66 -69 64 -179q2 -108 -64 -177t-174 -67h-4q-57 0 -99 19l-35 -57l-46 28l35 57q-16 12 -23 20q-66 69 -64 178q-2 108 64 178q62 66 174 66q54 1 103 -19l35 57l46 -28l-35 -56q12 -9 23 -20zM182 108q6 -6 10 -9l179 297q-29 11 -65 9q-80 2 -124 -44 q-45 -45 -43 -126q-2 -82 43 -127zM428 108q45 45 43 126v1q2 81 -43 126q-4 6 -10 10l-179 -298q28 -9 65 -9q79 -3 124 44z" glyph-name="oslash" unicode="ø"/><glyph d="M257 -9q-72 0 -121.5 54.5t-49.5 127.5v297h73v-289q0 -55 39 -87t90 -32q57 0 92 37.5t35 96.5v274h72v-373v-23h51v-74h-88q-14 0 -24.5 9t-10.5 23v21v12q-2 -3 -6 -8t-18 -18t-30.5 -22.5t-44.5 -17.5t-59 -8zM265 700l52 -140h-58l-76 140h82z" glyph-name="ugrave" unicode="ù"/><glyph d="M257 -9q-72 0 -121.5 54.5t-49.5 127.5v297h73v-289q0 -55 39 -87t90 -32q57 0 92 37.5t35 96.5v274h72v-373v-23h51v-74h-88q-14 0 -24.5 9t-10.5 23v21v12q-2 -3 -6 -8t-18 -18t-30.5 -22.5t-44.5 -17.5t-59 -8zM250 560l53 140h81l-76 -140h-58z" glyph-name="uacute" unicode="ú"/><glyph d="M257 -9q-72 0 -121.5 54.5t-49.5 127.5v297h73v-289q0 -55 39 -87t90 -32q57 0 92 37.5t35 96.5v274h72v-373v-23h51v-74h-88q-14 0 -24.5 9t-10.5 23v21v12q-2 -3 -6 -8t-18 -18t-30.5 -22.5t-44.5 -17.5t-59 -8zM199 562h-57l94 138h88l93 -138h-56l-81 94z" glyph-name="ucircumflex" unicode="û"/><glyph d="M145 630q0 22 15.5 38t37.5 16t37.5 -16t15.5 -38t-15.5 -38t-37.5 -16t-37.5 15.5t-15.5 38.5zM310 630q0 22 16 38t38 16t37 -15.5t15 -38.5t-15 -38.5t-37 -15.5t-38 16t-16 38zM257 -9q-72 0 -121.5 54.5t-49.5 127.5v297h73v-289q0 -55 39 -87t90 -32q57 0 92 37.5 t35 96.5v274h72v-373v-23h51v-74h-88q-14 0 -24.5 9t-10.5 23v21v12q-2 -3 -6 -8t-18 -18t-30.5 -22.5t-44.5 -17.5t-59 -8z" glyph-name="udieresis" unicode="ü"/><glyph d="M497 470v-528v-57q0 -49 -32.5 -82.5t-78.5 -33.5h-195v75h195q15 0 27.5 12t12.5 29v57v122q-2 -3 -6 -8t-18 -18t-30.5 -22.5t-45 -17.5t-59.5 -8q-72 0 -121 55t-49 128v297h72v-289q0 -55 39 -87t91 -32q57 0 92 37.5t35 95.5v275h71zM260 560l53 140h81l-76 -140 h-58z" glyph-name="yacute" unicode="ý"/><glyph d="M93 700h72v-305q2 3 5 9t17 20.5t32 25.5t50 20t70 9q79 0 129 -53t58 -138q1 -13 1 -74q0 -102 -49 -159q-55 -64 -140 -64q-37 0 -68 8.5t-49.5 21t-32 25t-18.5 20.5l-5 9v-305h-72v930zM455 214v41q0 72 -37 112t-107 40q-66 0 -106 -38t-40 -108v-52 q0 -70 39.5 -108t105.5 -38q70 0 107.5 40t37.5 111z" glyph-name="thorn" unicode="þ"/><glyph d="M162 630q0 22 15.5 38t37.5 16t38 -16t16 -38t-16 -38t-38 -16t-37.5 15.5t-15.5 38.5zM328 630q0 22 15.5 38t37.5 16t37 -15.5t15 -38.5t-15 -38.5t-37 -15.5t-37.5 16t-15.5 38zM497 470v-528v-57q0 -49 -32.5 -82.5t-78.5 -33.5h-195v75h195q15 0 27.5 12t12.5 29v57 v122q-2 -3 -6 -8t-18 -18t-30.5 -22.5t-45 -17.5t-59.5 -8q-72 0 -121 55t-49 128v297h72v-289q0 -55 39 -87t91 -32q57 0 92 37.5t35 95.5v275h71z" glyph-name="ydieresis" unicode="ÿ"/><glyph d="M305 765q-58 0 -96.5 42t-38.5 95h51q1 -33 26 -55.5t58 -22.5q34 0 58.5 22.5t25.5 55.5h52q0 -53 -38.5 -95t-97.5 -42zM563 0h-72h-5l-47 161h-270l-47 -161h-5h-72l210 700h33h32h33zM186 236zM192 239h224l-112 386z" glyph-name="Abreve" unicode="Ă"/><glyph d="M432 693h-52q-1 -33 -26 -55.5t-58 -22.5t-58 22.5t-26 55.5h-51q0 -53 38.5 -95.5t96.5 -42.5q59 0 97.5 42.5t38.5 95.5zM72 256q0 102 49 159q55 64 139 64q37 0 68.5 -8.5t50 -21t32 -25t18.5 -20.5l5 -9v75h72v-396h50v-74h-86q-16 0 -26 10.5t-10 27.5v37 q-2 -3 -5 -9t-17.5 -20.5t-32 -25.5t-50 -20t-70.5 -9q-79 0 -128.5 53t-57.5 138q-1 13 -1 74zM144 256v-41q0 -72 37 -112t107 -40q66 0 106 38t40 108v52q0 70 -39.5 108t-105.5 38q-70 0 -107.5 -40t-37.5 -111z" glyph-name="abreve" unicode="ă"/><glyph d="M546 -133l33 -56q-50 -25 -97 -17q-33 6 -58 30.5t-25 72.5q0 68 80 112l-43 152h-270l-47 -161h-5h-73l210 700h33h33h33l210 -700v0q-42 -8 -73 -35q-31 -26 -29 -58q1 -27 18 -38.5t35 -10t35 8.5zM182 236zM188 239h225l-112 386z" glyph-name="Aogonek" unicode="Ą"/><glyph d="M555 -131l32 -56q-51 -23 -97 -16q-33 6 -58 30.5t-25 72.5q0 57 62 100h-6q-16 0 -26 10.5t-10 27.5v37q-2 -3 -5 -9t-17 -20.5t-32 -25.5t-50 -20t-70 -9q-79 0 -129 53t-58 138q-1 13 -1 74q0 102 49 159q55 64 140 64q37 0 68 -8.5t49.5 -21t32 -25t18.5 -20.5l5 -9 v75h72v-396h50v-74q-36 -14 -59.5 -38.5t-22.5 -51.5t17.5 -38.5t35 -10.5t35.5 8zM427 209v52q0 70 -39.5 108t-105.5 38q-70 0 -107.5 -40t-37.5 -111v-41q0 -72 37 -112t107 -40q66 0 106 38t40 108z" glyph-name="aogonek" unicode="ą"/><glyph d="M406 909l-76 -140h-58l53 140h81zM472 212h73q-6 -103 -72 -162.5t-170 -59.5t-168 67t-64 174v238q0 109 64 174.5t170 65.5q104 0 168.5 -58.5t71.5 -161.5h-73h-5q-6 65 -47 103.5t-106 38.5q-79 0 -122.5 -42t-43.5 -118v-241q0 -74 41.5 -117t112.5 -43h8 q70 0 111 37t46 105h5z" glyph-name="Cacute" unicode="Ć"/><glyph d="M317 -9q-106 0 -168.5 67t-62.5 177t63.5 176t169.5 66q163 0 219 -131l-67 -27q-37 85 -151 85q-77 0 -119.5 -45t-42.5 -124q0 -80 42.5 -125t120.5 -45q112 0 150 85l67 -27q-57 -132 -221 -132zM295 582l44 116h81l-67 -116h-58z" glyph-name="cacute" unicode="ć"/><glyph d="M350 770h-88l-93 138h56l81 -94l81 94h56zM472 212h73q-6 -103 -72 -162.5t-170 -59.5t-168 67t-64 174v238q0 109 64 174.5t170 65.5q104 0 168.5 -58.5t71.5 -161.5h-73h-5q-6 65 -47 103.5t-106 38.5q-79 0 -122.5 -42t-43.5 -118v-241q0 -74 41.5 -117t112.5 -43h8 q70 0 111 37t46 105h5z" glyph-name="Ccaron" unicode="Č"/><glyph d="M443 700h-56l-81 -94l-81 94h-56l93 -138h88zM79 236q0 110 64 176t170 66q164 0 220 -131l-68 -27q-37 85 -151 85q-77 0 -119.5 -45t-42.5 -124q0 -81 42.5 -126t120.5 -45q112 0 150 85l68 -27q-57 -132 -222 -132q-106 0 -169 67.5t-63 177.5z" glyph-name="ccaron" unicode="č"/><glyph d="M356 770h-88l-93 138h56l81 -94l81 94h56zM330 700q95 0 155 -61.5t60 -160.5v-256q0 -99 -60.5 -160.5t-156.5 -61.5h-237v74v5h51v542h-51v5v74h239zM219 621v-542h111q63 0 100.5 38.5t37.5 102.5v259q0 64 -37 103t-97 39h-115z" glyph-name="Dcaron" unicode="Ď"/><glyph d="M580 709q-25 0 -42.5 -17.5t-17.5 -42.5q0 -24 16 -42t40 -19l11 -1l-3 -20q-4 -46 -28 -46h-21v-9v-9v-21h22q22 0 39.5 15t21.5 37l18 92q2 18 2 27q0 23 -17 39.5t-41 16.5zM46 256q0 102 49 159q55 64 139 64q37 0 68.5 -8.5t50 -21t32 -25t18.5 -20.5l5 -9v305h72 v-626h50v-74h-86q-16 0 -26 10.5t-10 27.5v37q-2 -3 -5 -9t-17.5 -20.5t-32 -25.5t-50 -20t-70.5 -9q-79 0 -128.5 53t-57.5 138q-1 13 -1 74zM118 256v-41q0 -72 37 -112t107 -40q66 0 106 38t40 108v52q0 70 -39.5 108t-105.5 38q-70 0 -107.5 -40t-37.5 -111z" glyph-name="dcaron" unicode="ď"/><glyph d="M85 621v79h239q95 0 155 -61.5t60 -160.5v-256q0 -99 -60.5 -160.5t-156.5 -61.5h-237v79h51v237h-51v68h51v237h-51zM213 79h111q63 0 100.5 38.5t37.5 102.5v259q0 64 -37 103t-97 39h-115v-237h118v-68h-118v-237z" glyph-name="Dcroat" unicode="Đ"/><glyph d="M556 558h-50v-484h50v-74h-86q-16 0 -26 10.5t-10 27.5v37q-2 -3 -5 -9t-17.5 -20.5t-32 -25.5t-50 -20t-70.5 -9q-79 0 -128.5 53t-57.5 138q-1 13 -1 74q0 102 49 159q55 64 139 64q37 0 68.5 -8.5t50 -21t32 -25t18.5 -20.5l5 -9v163h-173v68h173v74h72v-74h50v-68z M434 209v52q0 70 -39.5 108t-105.5 38q-70 0 -107.5 -40t-37.5 -111v-41q0 -72 37 -112t107 -40q66 0 106 38t40 108z" glyph-name="dcroat" unicode="đ"/><glyph d="M492 -133l32 -56q-49 -25 -97 -17q-33 6 -58 30.5t-25 72.5q0 58 66 103h-290v700h385v-69v-10h-309v-231h282v-5v-70v-5h-282v-231h309v-10v-69q-40 -8 -73 -35q-30 -26 -28 -58q1 -27 17.5 -38.5t35 -10t35.5 8.5z" glyph-name="Eogonek" unicode="Ę"/><glyph d="M473 232h-333q0 -80 43 -124q46 -46 122 -44q78 -3 125 44q8 8 20 26l61 -33q-14 -17 -45 -53.5t-44 -53t-26.5 -41t-14.5 -43.5q-2 -27 15 -38.5t37 -10.5t37 8l32 -56q-51 -24 -97 -16q-33 6 -58 30.5t-25 72.5q0 38 43 95q-24 -5 -59 -5h-4q-104 0 -168 67 q-67 68 -65 178q-2 108 65 178q62 66 173 66q107 2 172 -66q46 -48 60 -122q5 -30 5 -57v-1l-1 -1h-70zM183 361q-26 -28 -35 -66h317q-9 38 -35 66q-47 47 -122 44q-80 1 -125 -44z" glyph-name="eogonek" unicode="ę"/><glyph d="M401 908h56l-93 -138h-88l-93 138h56l81 -94zM512 621h-309v-231h281v-5v-70v-5h-281v-231h309v-10v-69h-386v700h386v-69v-10z" glyph-name="Ecaron" unicode="Ě"/><glyph d="M543 232h-70h-333q0 -80 43 -124q46 -46 122 -44q78 -3 125 44q8 8 20 26l61 -33q-15 -27 -32 -44q-64 -69 -173 -67h-4q-104 0 -168 67q-67 68 -65 178q-2 108 65 178q62 66 173 66q107 2 172 -66q46 -48 60 -122q5 -30 5 -57v-1zM308 405q-80 1 -125 -44 q-26 -28 -35 -66h317q-9 38 -35 66q-47 47 -122 44zM388 700h56l-93 -138h-88l-93 138h56l81 -94z" glyph-name="ecaron" unicode="ě"/><glyph d="M141 769l53 140h81l-76 -140h-58zM518 79v-10v-69h-382v700h68h5h5v-621h304z" glyph-name="Lacute" unicode="Ĺ"/><glyph d="M266 626h-158v74h194q14 0 25 -11t11 -26v-589h200v-74h-430v74h158v552zM277 769l52 140h82l-76 -140h-58z" glyph-name="lacute" unicode="ĺ"/><glyph d="M388 705q24 0 41.5 -16.5t17.5 -39.5q0 -15 -3 -28l-18 -92q-4 -22 -21.5 -36.5t-39.5 -14.5h-21v21v9v9h20q23 0 29 46l2 20h-10q-24 1 -40 19t-16 42q0 26 17 43.5t42 17.5zM518 79v-10v-69h-382v700h68h5h5v-621h304z" glyph-name="Lcaron" unicode="Ľ"/><glyph d="M108 0v74h158v552h-158v74h194q14 0 25 -11t11 -26v-589h200v-74h-430zM438 709q24 0 41 -16.5t17 -39.5q0 -9 -2 -27l-18 -92q-4 -22 -21.5 -37t-39.5 -15h-22v21v9v9h21q22 0 28 46l3 20l-11 1q-24 1 -40 19t-16 42q0 25 17.5 42.5t42.5 17.5z" glyph-name="lcaron" unicode="ľ"/><glyph d="M228 79h304v-10v-69h-381v299l-81 -45l-26 48l107 60v338h67h5h5v-295l76 41l25 -48l-101 -55v-264z" glyph-name="Lslash" unicode="Ł"/><glyph d="M108 626v74h194q14 0 25 -11t11 -26v-261l81 44l25 -48l-106 -58v-266h200v-74h-430v74h158v225l-81 -45l-25 48l106 59v265h-158z" glyph-name="lslash" unicode="ł"/><glyph d="M404 909l-76 -140h-58l53 140h81zM444 700h78v-700h-108l-250 594v-594h-78v700h109l249 -594v594z" glyph-name="Nacute" unicode="Ń"/><glyph d="M353 479q72 0 121.5 -54.5t49.5 -127.5v-297h-73v289q0 55 -39 87t-90 32q-57 0 -92 -37.5t-35 -95.5v-275h-72v373v23h-51v74h88q14 0 24.5 -9t10.5 -23v-21v-11q2 3 6 8t18 17.5t30.5 22t44.5 17.5t59 8zM286 560l53 140h81l-76 -140h-58z" glyph-name="nacute" unicode="ń"/><glyph d="M349 770h-88l-93 138h56l81 -94l81 94h56zM444 700h78v-700h-108l-250 594v-594h-78v700h109l249 -594v594z" glyph-name="Ncaron" unicode="Ň"/><glyph d="M353 479q72 0 121.5 -54.5t49.5 -127.5v-297h-73v289q0 55 -39 87t-90 32q-57 0 -92 -37.5t-35 -95.5v-275h-72v373v23h-51v74h88q14 0 24.5 -9t10.5 -23v-21v-11q2 3 6 8t18 17.5t30.5 22t44.5 17.5t59 8zM404 700h57l-94 -138h-87l-94 138h57l81 -94z" glyph-name="ncaron" unicode="ň"/><glyph d="M193 769l53 140h81l-76 -140h-58zM402 909l-53 -140h58l76 140h-81zM300 709q110 0 175.5 -64.5t65.5 -175.5v-238q0 -111 -66.5 -176t-176.5 -65q-103 0 -167 67t-64 174v238q0 109 64 174.5t169 65.5zM464 230v240q0 73 -42 117t-112 44q-79 0 -122.5 -41.5 t-43.5 -118.5v-241q0 -74 41 -117t112 -43h9q74 0 116 42.5t42 117.5z" glyph-name="Ohungarumlaut" unicode="Ő"/><glyph d="M191 560l53 140h81l-76 -140h-58zM400 700l-53 -140h58l76 140h-81zM478 413q67 -68 65 -179q2 -109 -65 -177q-64 -69 -173 -67h-4q-104 0 -168 67q-67 68 -65 178q-2 108 65 178q62 66 173 66q107 2 172 -66zM472 234v1q2 81 -43 126q-47 47 -122 44q-79 1 -125 -44 q-45 -45 -43 -126q-2 -82 43 -127q46 -46 122 -44q78 -3 125 44q45 45 43 126z" glyph-name="ohungarumlaut" unicode="ő"/><glyph d="M377 700h189v-69v-5v-5h-192v-231h162v-3v-2v-70v-2v-3h-162v-231h192v-5v-5v-69h-189h-79h-26q-101 0 -163.5 65t-62.5 169v121v17v94q0 104 62.5 169t163.5 65h9h17h79zM298 79v542h-27q-69 0 -108.5 -41.5t-39.5 -112.5v-234q0 -71 39.5 -112.5t108.5 -41.5h27z" glyph-name="OE" unicode="Œ"/><glyph d="M581 199h-241v-43q0 -43 22.5 -67.5t62.5 -24.5q59 0 78 36l4 7l68 -17l-4 -11q-16 -41 -54.5 -64.5t-89.5 -23.5q-72 0 -113 62l-9 14l-9 -14q-38 -62 -122 -62q-44 0 -80 26t-53 70q-12 31 -12 83v139q0 75 41.5 122.5t107.5 47.5q79 0 119 -62l8 -13l9 13 q40 62 115 62q68 0 110 -47t42 -123v-110zM426 407q-41 0 -63.5 -24.5t-22.5 -67.5v-44h171v43q0 44 -22.5 68.5t-62.5 24.5zM270 307q0 100 -89 100q-26 0 -44 -10.5t-25.5 -27.5t-10 -30.5t-2.5 -28.5v-150q0 -37 18.5 -67t68.5 -30q34 0 54.5 19.5t25 38.5t4.5 40v146z " glyph-name="oe" unicode="œ"/><glyph d="M261 769l53 140h81l-76 -140h-58zM525 435q-11 -38 -38.5 -66t-49.5 -37l-22 -8q4 -1 11.5 -3.5t26.5 -13.5t33.5 -26.5t26.5 -45t12 -65.5v-170h-68h-5h-5v174q0 46 -23.5 80t-71.5 34h-171v-288h-5h-5h-68v700h227q42 0 62 -5q67 -16 105 -68t38 -125q0 -40 -10 -67z M331 367q15 0 45 2q81 11 81 126q0 65 -30.5 95.5t-95.5 30.5h-150v-254h150z" glyph-name="Racute" unicode="Ŕ"/><glyph d="M129 470h137q14 0 25 -9t11 -23v-29q2 3 5.5 7.5t17 16.5t30 21.5t44.5 17t60 7.5q56 0 102 -35l-49 -61q-32 24 -80 24q-61 0 -95.5 -34.5t-34.5 -97.5v-201h153v-74h-325v74h100v322h-101v74zM274 560l52 140h82l-76 -140h-58z" glyph-name="racute" unicode="ŕ"/><glyph d="M381 908h57l-94 -138h-87l-94 138h57l80 -94zM525 435q-11 -38 -38.5 -66t-49.5 -37l-22 -8q4 -1 11.5 -3.5t26.5 -13.5t33.5 -26.5t26.5 -45t12 -65.5v-170h-68h-5h-5v174q0 46 -23.5 80t-71.5 34h-171v-288h-5h-5h-68v700h227q42 0 62 -5q67 -16 105 -68t38 -125 q0 -40 -10 -67zM331 367q15 0 45 2q81 11 81 126q0 65 -30.5 95.5t-95.5 30.5h-150v-254h150z" glyph-name="Rcaron" unicode="Ř"/><glyph d="M483 700h-57l-80 -94l-81 94h-57l94 -138h87zM129 470h137q14 0 25 -9t11 -23v-29q2 3 5.5 7.5t17 16.5t30 21.5t44.5 17t60 7.5q56 0 102 -35l-49 -61q-32 24 -80 24q-61 0 -95.5 -34.5t-34.5 -97.5v-201h153v-74h-325v74h100v322h-101v74z" glyph-name="rcaron" unicode="ř"/><glyph d="M270 769l53 140h81l-76 -140h-58zM419 356q55 -26 85.5 -71t30.5 -98q0 -95 -69 -145.5t-161 -50.5q-97 0 -159.5 52t-70.5 139v3h76l1 -2q4 -36 23 -60.5t46 -35t48.5 -14t43.5 -3.5q51 0 98.5 28t47.5 90q0 60 -73 98q-29 15 -96 38h-1q-194 63 -194 196q0 83 57 136 t148 53q92 0 149 -53t63 -144v-2h-76v2q-6 57 -41 88t-92 31q-48 0 -89.5 -25.5t-41.5 -82.5q0 -70 110 -114q4 -2 11.5 -4.5l10.5 -3.5q14 -6 20 -8q18 -6 26 -9q43 -15 69 -28z" glyph-name="Sacute" unicode="Ś"/><glyph d="M112 85l59 31q42 -58 141 -58q19 0 38.5 3t40.5 10t34 21t13 34q0 40 -46 56q-24 9 -89 23q-33 8 -50.5 12.5t-46 16.5t-43.5 25.5t-27 37t-12 52.5q0 61 51 95t121 34q125 0 183 -76l-57 -35q-40 43 -126 43q-106 0 -106 -62q0 -16 9 -28t19.5 -18t27.5 -13 q12 -5 64 -17q14 -3 47.5 -11t50.5 -12q46 -11 72 -41.5t26 -76.5q0 -38 -18 -66.5t-48.5 -44t-64 -22.5t-70.5 -7q-133 0 -193 94zM276 560l52 140h82l-76 -140h-58z" glyph-name="sacute" unicode="ś"/><glyph d="M313 -9l-15 -38q9 2 30.5 -0.5t35.5 -12.5q33 -24 33 -60t-28.5 -61.5t-70.5 -23.5q-22 1 -44.5 8t-34.5 13l-12 7l14 33l11 -5q30 -10 57 -10q21 0 39 9.5t18 29.5q0 39 -85 39h-9l24 73h-1q-86 8 -139.5 59t-60.5 131v3h76l1 -2q4 -36 23 -60.5t46 -35t48.5 -14 t43.5 -3.5q51 0 98.5 28t47.5 90q0 60 -73 98q-29 15 -96 38h-1q-194 63 -194 196q0 83 57 136t148 53q92 0 149 -53t63 -144v-2h-76v2q-6 57 -41 88t-92 31q-48 0 -89.5 -25.5t-41.5 -82.5q0 -70 110 -114q4 -2 11.5 -4.5l10.5 -3.5q14 -6 20 -8q18 -6 26 -9q43 -15 69 -28 q55 -26 85.5 -71t30.5 -98q0 -92 -66 -143t-156 -53z" glyph-name="Scedilla" unicode="Ş"/><glyph d="M506 131q0 -69 -54.5 -102.5t-131.5 -37.5l-15 -38q9 2 30.5 -0.5t35.5 -12.5q33 -24 33 -60t-28.5 -61.5t-70.5 -23.5q-22 1 -44.5 8t-34.5 13l-12 7l14 33l11 -5q30 -10 57 -10q21 0 39 9.5t18 29.5q0 39 -85 39h-9l24 73q-117 8 -171 93l59 31q42 -58 141 -58 q19 0 38.5 3t40.5 10t34 21t13 34q0 40 -46 56q-24 9 -89 23q-33 8 -50.5 12.5t-46 16.5t-43.5 25.5t-27 37t-12 52.5q0 61 51 95t121 34q125 0 183 -76l-57 -35q-40 43 -126 43q-106 0 -106 -62q0 -16 9 -28t19.5 -18t27.5 -13q12 -5 64 -17q14 -3 47.5 -11t50.5 -12 q46 -11 72 -41.5t26 -76.5z" glyph-name="scedilla" unicode="ş"/><glyph d="M386 908h57l-94 -138h-87l-94 138h57l81 -94zM419 356q55 -26 85.5 -71t30.5 -98q0 -95 -69 -145.5t-161 -50.5q-97 0 -159.5 52t-70.5 139v3h76l1 -2q4 -36 23 -60.5t46 -35t48.5 -14t43.5 -3.5q51 0 98.5 28t47.5 90q0 60 -73 98q-29 15 -96 38h-1q-194 63 -194 196 q0 83 57 136t148 53q92 0 149 -53t63 -144v-2h-76v2q-6 57 -41 88t-92 31q-48 0 -89.5 -25.5t-41.5 -82.5q0 -70 110 -114q4 -2 11.5 -4.5l10.5 -3.5q14 -6 20 -8q18 -6 26 -9q43 -15 69 -28z" glyph-name="Scaron" unicode="Š"/><glyph d="M442 700h-56l-81 -94l-81 94h-56l93 -138h88zM112 85l59 31q42 -58 141 -58q19 0 38.5 3t40.5 10t34 21t13 34q0 40 -46 56q-24 9 -89 23q-33 8 -50.5 12.5t-46 16.5t-43.5 25.5t-27 37t-12 52.5q0 61 51 95t121 34q125 0 183 -76l-57 -35q-40 43 -126 43 q-106 0 -106 -62q0 -16 9 -28t19.5 -18t27.5 -13q12 -5 64 -17q14 -3 47.5 -11t50.5 -12q46 -11 72 -41.5t26 -76.5q0 -38 -18 -66.5t-48.5 -44t-64 -22.5t-70.5 -7q-133 0 -193 94z" glyph-name="scaron" unicode="š"/><glyph d="M305 -60q24 0 41.5 -16.5t17.5 -39.5q0 -14 -3 -27l-17 -92q-5 -22 -22.5 -37t-39.5 -15h-21v22v9v8h21q22 0 28 47l3 19l-11 1q-24 1 -40 19t-16 42q0 25 17 42.5t42 17.5zM540 631v-10h-197v-621h-2h-3h-67h-3h-2v621h-196v5v74h470v-69z" glyph-name="uni0162" unicode="Ţ"/><glyph d="M210 396h-120v74h120v230h71v-230h213v-74h-213v-282q0 -17 12.5 -28.5t28.5 -11.5h172v-74h-172q-46 0 -79 33.5t-33 80.5v282zM268 -60q24 0 41 -16.5t17 -39.5q0 -14 -3 -27l-17 -92q-5 -22 -22 -37t-39 -15h-22v22v9v8h21q22 0 28 47l3 19l-11 1q-24 1 -40 19t-16 42 q0 26 17 43t43 17z" glyph-name="uni0163" unicode="ţ"/><glyph d="M386 908h56l-93 -138h-88l-93 138h56l81 -94zM540 631v-10h-197v-621h-2h-3h-67h-3h-2v621h-196v5v74h470v-69z" glyph-name="Tcaron" unicode="Ť"/><glyph d="M90 396v74h120v230h71v-586q0 -17 12.5 -28.5t28.5 -11.5h172v-74h-172q-46 0 -79 33.5t-33 80.5v282h-120zM382 709q24 0 41.5 -16.5t17.5 -39.5q0 -13 -3 -27l-18 -92q-4 -22 -21.5 -37t-39.5 -15h-21v21v9v9h20q23 0 29 46l2 20l-10 1q-24 1 -40 19t-16 42 q0 25 17 42.5t42 17.5z" glyph-name="tcaron" unicode="ť"/><glyph d="M306 932q35 0 59.5 -25.5t24.5 -61.5q0 -37 -24.5 -62.5t-59.5 -25.5q-36 0 -61 25.5t-25 62.5q0 36 25 61.5t61 25.5zM305 800q18 0 30.5 13.5t12.5 31.5t-12.5 31.5t-30.5 13.5t-31 -13.5t-13 -31.5q0 -19 13 -32t31 -13zM466 700h66v-479q0 -104 -61 -167.5 t-161 -63.5q-105 0 -168.5 62.5t-63.5 169.5v478h67h5h5v-475q0 -73 38 -114t106 -41q66 0 111.5 34t45.5 120v476h5h5z" glyph-name="Uring" unicode="Ů"/><glyph d="M257 -9q-72 0 -121.5 54.5t-49.5 127.5v297h73v-289q0 -55 39 -87t90 -32q57 0 92 37.5t35 96.5v274h72v-373v-23h51v-74h-88q-14 0 -24.5 9t-10.5 23v21v12q-2 -3 -6 -8t-18 -18t-30.5 -22.5t-44.5 -17.5t-59 -8zM287 723q35 0 60 -25.5t25 -61.5q0 -37 -25 -62.5 t-60 -25.5q-36 0 -61 25.5t-25 62.5q0 36 25 61.5t61 25.5zM287 591q18 0 30 13.5t12 31.5q0 17 -12.5 30.5t-29.5 13.5q-19 0 -31.5 -13t-12.5 -31q0 -19 12.5 -32t31.5 -13z" glyph-name="uring" unicode="ů"/><glyph d="M190 769l53 140h81l-76 -140h-58zM346 769l52 140h82l-76 -140h-58zM466 700h66v-479q0 -104 -61 -167.5t-161 -63.5q-105 0 -168.5 62.5t-63.5 169.5v478h67h5h5v-475q0 -73 38 -114t106 -41q66 0 111.5 34t45.5 120v476h5h5z" glyph-name="Uhungarumlaut" unicode="Ű"/><glyph d="M167 560l53 140h81l-76 -140h-58zM323 560l53 140h81l-76 -140h-58zM257 -9q-72 0 -121.5 54.5t-49.5 127.5v297h73v-289q0 -55 39 -87t90 -32q57 0 92 37.5t35 96.5v274h72v-373v-23h51v-74h-88q-14 0 -24.5 9t-10.5 23v21v12q-2 -3 -6 -8t-18 -18t-30.5 -22.5 t-44.5 -17.5t-59 -8z" glyph-name="uhungarumlaut" unicode="ű"/><glyph d="M170 839q0 22 15.5 38t37.5 16t37.5 -16t15.5 -38t-15.5 -38t-37.5 -16t-37.5 15.5t-15.5 38.5zM335 839q0 22 15.5 38t37.5 16t37 -15.5t15 -38.5t-15 -38.5t-37 -15.5t-37.5 16t-15.5 38zM550 701l-206 -412v-290h-3h-2h-34h-34h-2h-3v290l-206 412h82h5l158 -339 l158 339h87z" glyph-name="Ydieresis" unicode="Ÿ"/><glyph d="M271 769l53 140h81l-75 -140h-59zM156 79h382v-10v-69h-466v89v5l364 527h-343v5v74h426v-93z" glyph-name="Zacute" unicode="Ź"/><glyph d="M199 74h309v-74h-404v65l298 331h-289v74h386v-65zM269 560l52 140h82l-76 -140h-58z" glyph-name="zacute" unicode="ź"/><glyph d="M253 839q0 -23 15.5 -38.5t37.5 -15.5t37.5 16t15.5 38t-15.5 38t-37.5 16t-37.5 -16t-15.5 -38zM156 79h382v-10v-69h-466v89v5l364 527h-343v5v74h426v-93z" glyph-name="Zdotaccent" unicode="Ż"/><glyph d="M104 65l298 331h-289v74h386v-65l-300 -331h309v-74h-404v65zM253 630q0 22 15.5 38t37.5 16t37.5 -15.5t15.5 -38.5t-15.5 -38.5t-37.5 -15.5t-37.5 16t-15.5 38z" glyph-name="zdotaccent" unicode="ż"/><glyph d="M387 908h56l-93 -138h-88l-93 138h56l81 -94zM156 79h382v-10v-69h-466v89v5l364 527h-343v5v74h426v-93z" glyph-name="Zcaron" unicode="Ž"/><glyph d="M104 65l298 331h-289v74h386v-65l-300 -331h309v-74h-404v65zM387 700h56l-93 -138h-88l-93 138h56l81 -94z" glyph-name="zcaron" unicode="ž"/><glyph d="M71 -54h97q18 0 31 11.5t16 29.5l56 322h-99v62h110l41 228q7 44 40.5 72.5t77.5 28.5h98v-74h-98q-18 0 -31 -11.5t-16 -28.5l-37 -215h98v-62h-109l-60 -336q-8 -44 -41 -72.5t-77 -28.5h-97v74z" glyph-name="florin" unicode="ƒ"/><glyph d="M224 562h-56l93 138h88l93 -138h-56l-81 94z" glyph-name="circumflex" unicode="ˆ"/><glyph d="M386 700h56l-93 -138h-88l-93 138h56l81 -94z" glyph-name="caron" unicode="ˇ"/><glyph d="M389 693h51q0 -53 -38.5 -95.5t-96.5 -42.5t-96.5 42.5t-38.5 95.5h51q1 -33 26 -55.5t58 -22.5t58 22.5t26 55.5z" glyph-name="breve" unicode="˘"/><glyph d="M252 630q0 22 15.5 38t37.5 16t37.5 -16t15.5 -38t-15.5 -38t-37.5 -16t-37.5 15.5t-15.5 38.5z" glyph-name="dotaccent" unicode="˙"/><glyph d="M306 723q35 0 59.5 -25.5t24.5 -61.5q0 -37 -24.5 -62.5t-59.5 -25.5q-36 0 -61 25.5t-25 62.5q0 36 25 61.5t61 25.5zM305 591q18 0 30.5 13.5t12.5 31.5q0 17 -12.5 30.5t-30.5 13.5t-31 -13t-13 -31q0 -19 13 -32t31 -13z" glyph-name="ring" unicode="˚"/><glyph d="M357 34l19 -34q-40 -8 -73 -35q-31 -26 -29 -58q1 -27 18 -38.5t35.5 -10t35.5 8.5l32 -56q-50 -25 -97 -17q-33 6 -58 30.5t-25 72.5q0 47 43 85t99 52z" glyph-name="ogonek" unicode="˛"/><glyph d="M145 590q8 47 34 72t65 25q34 0 64 -22l15 -12t16 -12.5t15.5 -8.5t19.5 -4q32 0 43 40h48q-8 -46 -34 -71.5t-65 -25.5q-33 0 -66 24q-5 4 -14.5 11.5t-15 12t-15 8.5t-19.5 4q-32 0 -43 -41h-48z" glyph-name="tilde" unicode="˜"/><glyph d="M160 560l53 140h81l-76 -140h-58zM316 560l53 140h81l-76 -140h-58z" glyph-name="hungarumlaut" unicode="˝"/><glyph d="M477 290v-61h-344v61h344z" glyph-name="endash" unicode="–"/><glyph d="M543 290v-61h-476v61h476z" glyph-name="emdash" unicode="—"/><glyph d="M304 453q-27 0 -47 18.5t-19 45.5q0 16 3 31l20 104q4 25 24 41.5t45 16.5h24v-44h-23q-25 0 -32 -52l-3 -23h12q26 0 44.5 -20.5t18.5 -48.5q0 -29 -19.5 -49t-47.5 -20z" glyph-name="quoteleft" unicode="‘"/><glyph d="M238 642q0 29 19.5 48.5t47.5 19.5q27 0 46.5 -18.5t19.5 -44.5q0 -16 -3 -31l-20 -105q-4 -25 -24 -41.5t-45 -16.5h-24v44h23q25 0 32 53l3 22l-12 1q-27 2 -45 22t-18 47z" glyph-name="quoteright" unicode="’"/><glyph d="M305 128q28 0 47.5 -18.5t19.5 -44.5q0 -16 -3 -31l-20 -104q-5 -25 -25 -41.5t-45 -16.5h-24v24v10v10h23q26 0 33 52l3 22l-13 1q-27 1 -45 21.5t-18 47.5q0 29 19.5 48.5t47.5 19.5z" glyph-name="quotesinglbase" unicode="‚"/><glyph d="M324 516q0 -26 19.5 -44.5t46.5 -18.5q28 0 47.5 19.5t19.5 48.5q0 28 -18 48.5t-45 21.5h-12l3 23q6 52 32 52h23v10v10v24h-24q-25 0 -45 -16.5t-24 -41.5l-20 -104q-3 -15 -3 -32zM219 453q-27 0 -46.5 18.5t-19.5 44.5q0 17 3 32l20 104q4 25 24 41.5t45 16.5h24v-24 v-10v-10h-23q-26 0 -32 -52l-3 -23h12q27 -1 45 -21.5t18 -48.5q0 -29 -19.5 -48.5t-47.5 -19.5z" glyph-name="quotedblleft" unicode="“"/><glyph d="M286 647q0 26 -19.5 44.5t-46.5 18.5q-28 0 -47.5 -19.5t-19.5 -48.5q0 -27 18 -47.5t45 -21.5l12 -1l-3 -22q-6 -53 -32 -53h-23v-10v-10v-24h24q25 0 45 16.5t24 41.5l20 105q3 15 3 31zM391 710q27 0 46.5 -18.5t19.5 -44.5q0 -16 -3 -31l-20 -105q-4 -25 -24 -41.5 t-45 -16.5h-24v24v10v10h23q26 0 32 53l3 22l-12 1q-27 1 -45 21.5t-18 47.5q0 29 19.5 48.5t47.5 19.5z" glyph-name="quotedblright" unicode="”"/><glyph d="M286 65q0 -16 -3 -31l-20 -104q-4 -25 -24 -41.5t-45 -16.5h-24v24v10v10h23q26 0 32 52l3 22l-12 1q-27 1 -45 21.5t-18 47.5q0 29 19.5 48.5t47.5 19.5q27 0 46.5 -18.5t19.5 -44.5zM391 128q-28 0 -47.5 -19.5t-19.5 -48.5q0 -27 18 -47.5t45 -21.5l12 -1l-3 -22 q-6 -52 -32 -52h-23v-10v-10v-24h24q25 0 45 16.5t24 41.5l20 104q3 15 3 31q0 26 -19.5 44.5t-46.5 18.5z" glyph-name="quotedblbase" unicode="„"/><glyph d="M269 396h-178v74h178v230h72v-230h178v-74h-178v-511h-72v511z" glyph-name="dagger" unicode="†"/><glyph d="M91 396v74h178v230h72v-230h178v-74h-178v-207h178v-75h-178v-229h-72v229h-178v75h178v207h-178z" glyph-name="daggerdbl" unicode="‡"/><glyph d="M305 458q49 0 83 -35.5t34 -85.5q0 -49 -34.5 -84t-82.5 -35t-82.5 35t-34.5 84q0 50 34 85.5t83 35.5z" glyph-name="bullet" unicode="•"/><glyph d="M64 47q0 23 15.5 39t37.5 16t38 -16.5t16 -38.5q0 -23 -16 -39.5t-38 -16.5t-37.5 16.5t-15.5 39.5zM251 47q0 23 16 39t38 16t38 -16t16 -39t-16 -39.5t-38 -16.5t-38 16.5t-16 39.5zM493 102q22 0 37.5 -16t15.5 -39t-15.5 -39.5t-37.5 -16.5t-38 16.5t-16 39.5t16 39 t38 16z" glyph-name="ellipsis" unicode="…"/><glyph d="M153 709q36 0 58.5 -22t22.5 -59v-82q0 -38 -22.5 -60t-60.5 -22t-60 23.5t-22 62.5v75q0 39 22.5 61.5t61.5 22.5zM152 511q36 0 36 38v76q0 38 -36 38t-36 -38v-75q0 -39 36 -39zM459 235q37 0 59.5 -22.5t22.5 -59.5v-82q0 -37 -23 -59t-61 -22q-37 0 -59.5 23.5 t-22.5 61.5v75q0 40 22.5 62.5t61.5 22.5zM458 37q37 0 37 37v76q0 39 -37 39q-17 0 -26.5 -10.5t-9.5 -28.5v-75q0 -38 36 -38zM229 235q36 0 58.5 -22.5t22.5 -59.5v-82q0 -37 -23 -59t-60 -22t-59.5 23.5t-22.5 61.5v75q0 40 22.5 62.5t61.5 22.5zM228 37q36 0 36 37v76 q0 39 -36 39q-17 0 -27 -10.5t-10 -28.5v-75q0 -38 37 -38zM519 487l14 -46l-442 -153l-14 46z" glyph-name="perthousand" unicode="‰"/><glyph d="M190 306l144 177l55 -46l-124 -155l124 -155l-55 -47l-144 179q-7 9 -7 24t7 23z" glyph-name="guilsinglleft" unicode="‹"/><glyph d="M420 306q7 -8 7 -23t-7 -24l-144 -179l-55 47l124 155l-124 155l55 46z" glyph-name="guilsinglright" unicode="›"/><glyph d="M327 70q125 0 134 128h77q-5 -96 -59 -152t-147 -56h-10q-96 0 -151 61t-55 163v32h-48v54h48v100h-48v54h48v33q0 105 56 163.5t157 58.5q95 0 149.5 -55t59.5 -151h-77q-9 128 -132 128q-135 0 -135 -141v-36h167v-54h-167v-100h167v-54h-167v-35q0 -69 34 -105t99 -36 z" glyph-name="Euro" unicode="€"/><glyph d="M420 334h165v43h-165v-43zM503 709q36 0 58.5 -22t22.5 -59v-82q0 -38 -22.5 -60t-60.5 -22q-37 0 -59 23.5t-22 62.5v75q0 39 22.5 61.5t60.5 22.5zM502 511q36 0 36 38v76q0 38 -36 38q-35 0 -35 -38v-75q0 -39 35 -39zM303 700h48v-700h-35h-18h-34l-140 590v-590h-10 h-49v700h35h19h34l140 -591v591h10z" glyph-name="uni2116" unicode="№"/><glyph d="M141 672v28h144v-28h-58v-168h-28v168h-58zM410 700h43v-196h-28v150l-38 -150h-10h-9l-38 150v-150h-28v196h42l33 -142z" glyph-name="trademark" unicode="™"/><glyph d="M81 373l211 216l50 -52l-148 -153h345v-73h-345l148 -153l-50 -53l-211 217q-10 10 -10 26q0 15 10 25z" glyph-name="arrowleft" unicode="←"/><glyph d="M70 368l209 216q10 10 25 10q17 0 27 -10l209 -216l-50 -52l-149 152v-355h-73v355l-148 -152z" glyph-name="arrowup" unicode="↑"/><glyph d="M71 311v73h345l-148 153l50 52l211 -216q10 -10 10 -25q0 -16 -10 -26l-211 -217l-50 53l148 153h-345z" glyph-name="arrowright" unicode="→"/><glyph d="M70 307l50 51l148 -152v355h73v-355l149 152l50 -51l-209 -217q-11 -11 -27 -11q-14 0 -25 11z" glyph-name="arrowdown" unicode="↓"/><glyph d="M53 351q0 10 6 19l120 201l60 -38l-86 -146h304l-86 144l61 40l120 -201q5 -10 5 -20q0 -11 -5 -19l-120 -201l-61 39l87 145h-305l86 -145l-60 -39l-120 202q-6 9 -6 19z" glyph-name="arrowboth" unicode="↔"/><glyph d="M91 517l195 125q10 6 20 6t19 -6l194 -125l-38 -63l-139 91v-392l139 91l38 -63l-195 -124q-10 -6 -18 -6q-10 0 -20 6l-195 124l38 63l140 -91v392l-140 -91z" glyph-name="arrowupdn" unicode="↕"/><glyph d="M120 359v304q0 16 10.5 26.5t24.5 10.5h297v-73h-211l281 -289l-50 -52l-281 289v-216h-71z" glyph-name="uni2196" unicode="↖"/><glyph d="M88 338l281 289h-211v73h297q14 0 24.5 -10.5t10.5 -26.5v-304h-71v216l-281 -289z" glyph-name="uni2197" unicode="↗"/><glyph d="M419 342h71v-305q0 -15 -10.5 -26t-24.5 -11h-297v73h211l-281 290l50 51l281 -288v216z" glyph-name="uni2198" unicode="↘"/><glyph d="M120 342h71v-216l281 288l50 -51l-281 -290h211v-73h-297q-14 0 -24.5 11t-10.5 26v305z" glyph-name="uni2199" unicode="↙"/><glyph d="M548 508q8 -8 8 -22t-8 -22l-154 -158l-43 44l96 99h-378v74h378l-96 98l43 44zM542 219v-75h-378l96 -98l-43 -44l-154 157q-9 9 -9 23q0 11 9 22l154 158l43 -45l-96 -98h378z" glyph-name="uni21C4" unicode="⇄"/><glyph d="M62 508l154 157l43 -44l-96 -98h378v-74h-378l96 -99l-43 -44l-154 158q-8 8 -8 22t8 22zM68 144v75h378l-96 98l43 45l154 -158q9 -11 9 -22q0 -14 -9 -23l-154 -157l-43 44l96 98h-378z" glyph-name="uni21C6" unicode="⇆"/><glyph d="M481 363v-63h-352v63h352z" glyph-name="minus" unicode="−"/><glyph d="M450 390h78v-3v-2v-70v-2v-3h-78v-231h78v-5v-5v-69h-254q-34 0 -58 5q-61 13 -96.5 61t-35.5 115q0 76 43 123q16 17 34 28.5t28 14.5l10 3q-35 7 -72 46q-43 47 -43 123q0 67 35.5 115t96.5 61q24 5 58 5h81v-69v-5v-5h-101q-95 0 -95 -115q0 -53 21 -80q29 -36 93 -36 h101v80h5h5h66v-80zM254 79h120v231h-101q-64 0 -93 -36q-21 -27 -21 -80q0 -115 95 -115z" glyph-name="glyph288"/><glyph d="M492 550l-155 -37l103 -122l-51 -37l-84 136l-84 -136l-51 37l103 122l-155 37l20 60l147 -60l-12 159h64l-12 -159l147 60z" glyph-name="glyph289"/><glyph d="M494 512l-14 -61l-138 42l72 -124l-57 -28l-52 134l-52 -134l-57 28l72 124l-138 -42l-14 61l142 21l-118 81l39 50l105 -98l-11 143h64l-11 -143l105 98l39 -50l-118 -81z" glyph-name="glyph290"/><glyph d="M349 541l142 11v-29v-29l-142 11l108 -93l-20 -21l-21 -20l-93 108l11 -142h-29h-29l11 142l-93 -108l-21 20l-20 21l108 93l-142 -11v29v29l142 -11l-108 93l20 20l21 21l93 -108l-11 142h29h29l-11 -142l93 108l21 -21l20 -20z" glyph-name="glyph291"/><glyph d="M478 413q66 -69 64 -179q2 -108 -64 -177q-67 -69 -174 -67h-4q-104 0 -168 67q-66 69 -64 178q-1 106 64 178q62 66 174 66q106 2 172 -66zM421 361l-182 -282q29 -10 65 -10h1q79 0 120 43q41 41 41 122q0 82 -41 124q-2 2 -3 2zM188 109h1l182 282q-30 10 -65 9h-5 q-74 0 -116 -42q-43 -44 -41 -123q-1 -79 41 -123z" glyph-name="zero.oldstyle"/><glyph d="M538 79v-10v-69h-442v74v5h207v323l-147 -146l-4 3v1l-3 3l-48 49l113 111l47 47h33h86v-396v5h158z" glyph-name="one.oldstyle"/><glyph d="M184 96l-1 -17h315v-10v-69h-382h-5h-5v88q0 41 13 71.5t37 49t47 28.5t54 17q9 3 61 13q26 4 51 11q29 7 45.5 19t16.5 35q0 67 -121 67q-33 0 -69 -10.5t-49 -34.5h-5h-75q10 61 68.5 92.5t133.5 31.5q82 0 139 -37.5t57 -110.5q0 -26 -12 -53q-20 -40 -53 -55.5 t-94 -27.5q-7 -2 -33 -6t-42 -8q-46 -12 -68 -28t-24 -56zM183 74z" glyph-name="two.oldstyle"/><glyph d="M95 -43h78q5 -56 40.5 -86.5t96.5 -30.5t93.5 34.5t32.5 99.5q0 68 -40 100.5t-124 32.5h-66v84l180 200h-268v79h363v-76l-199 -222l37 -1q89 -2 142 -55t53 -142q0 -94 -57 -153.5t-147 -59.5q-93 0 -150.5 52.5t-64.5 143.5z" glyph-name="three.oldstyle"/><glyph d="M83 -15l247 485h111v-479h95v-79h-95v-142h-76v142h-282v73zM365 389l-204 -398h204v398z" glyph-name="four.oldstyle"/><glyph d="M309 -239q-95 0 -154.5 57.5t-66.5 151.5h77q7 -63 45 -96.5t102 -33.5q70 0 106.5 37.5t36.5 108.5q0 73 -38.5 113.5t-109.5 40.5q-72 0 -113 -54h-88v384h377v-79h-300v-237q55 49 147 48q97 -1 149 -58.5t52 -158.5q0 -104 -60.5 -164t-161.5 -60z" glyph-name="five.oldstyle"/><glyph d="M94 146q-36 133 47 292q20 38 45.5 79.5t66.5 104t51 78.5h91l-190 -295q51 24 121 24q96 0 148.5 -56.5t52.5 -158.5q0 -101 -58 -162t-155 -61h-15q-77 0 -131 42t-74 113zM302 363q-141 -6 -141 -143q0 -71 39 -110.5t110 -39.5q68 0 104 38.5t36 110.5q0 73 -39 110 t-109 34z" glyph-name="six.oldstyle"/><glyph d="M99 470h429v-91l-270 -609h-93l276 621h-342v79z" glyph-name="seven.oldstyle"/><glyph d="M306 -9q-92 0 -152 56.5t-60 146.5q0 54 25.5 104.5t76.5 77.5l-2 -1q-37 21 -55.5 64t-17.5 93q1 78 53 127.5t131 49.5h1q78 0 129.5 -49.5t53.5 -127.5q2 -49 -17 -92t-56 -65l-2 1q51 -27 76.5 -77.5t25.5 -104.5q0 -90 -59.5 -146.5t-150.5 -56.5zM304 341 q-62 0 -96 -35.5t-34 -99.5t34 -100t95 -36h5q60 0 94 36t34 100q0 65 -34 100t-96 35h-2zM200 519q0 -111 105 -111v-5v5q105 0 105 111q0 53 -27 82t-77 29q-52 0 -79 -29t-27 -82z" glyph-name="eight.oldstyle"/><glyph d="M285 40q-97 0 -149.5 56.5t-52.5 158.5q0 101 58.5 162t155.5 61h15q77 0 131 -42t73 -113q36 -133 -47 -292q-20 -38 -46.5 -81.5t-63.5 -100t-52 -80.5h-91l189 295q-51 -24 -120 -24zM160 250q0 -76 39 -111q39 -36 109 -33q141 6 141 143q0 71 -39 110.5t-109 39.5 q-68 0 -104.5 -38.5t-36.5 -110.5z" glyph-name="nine.oldstyle"/></font>
</defs>
</svg>
