<svg xmlns="http://www.w3.org/2000/svg" viewBox="0 0 80 80"><defs><style>.cls-1,.cls-2{fill:none;stroke:#231f20;stroke-linecap:round;stroke-linejoin:round;}.cls-1{stroke-width:0.6px;}.cls-2{stroke-width:0.3px;}.cls-3{fill:#231f20;}</style></defs><g id="Layer_17" data-name="Layer 17"><path class="cls-1" d="M59,34.06c2.22.16,2.47,1.76,2.47,1.76a1.46,1.46,0,0,1-.93.21c1.18.58.75,2.4.75,2.4-2.1.43-2.75-.62-2.75-.62A1.12,1.12,0,0,1,58.4,39a3.29,3.29,0,0,1-2.92-2.22A32.65,32.65,0,0,1,53,42.44"/><path class="cls-1" d="M58,33.13c2.13-.74,5.66,1.12,7.58-3.75a4.47,4.47,0,0,0-.84-.38l.84-1.68a11.72,11.72,0,0,0-1.34-.11,4.87,4.87,0,0,0-3.51.9,4,4,0,0,0,.34-1.6s-4.48.38-5.6,3.37"/><path class="cls-1" d="M9.78,64.66A38.94,38.94,0,0,1,1.35,34.82C2.34,42.3,6,50.13,11.74,53.34a12.82,12.82,0,0,0,2,.91,17.13,17.13,0,0,0,6.75.65c.67-.06,1.34-.14,2-.26"/><path class="cls-1" d="M11.54,66.68A39,39,0,1,0,7.89,17.86c4.69-2,11-2.11,15.1-7.63.74-1,2.27-3.29,4.24-3.2s2.15,2.25,4.47,3.91c3.69,2.65,6.83-.06,12.48,1.87a16.36,16.36,0,0,1,6.08,3.81h0a3.78,3.78,0,0,0,.49,1.89c1.37,2.37,2.09,3.27,1.27,3.58s-2.52-3.34-3-3.77l-.54.61c-.11-.37-.54-1.7-2.74-1.87a3.42,3.42,0,0,0,.87,3.49,1.78,1.78,0,0,0-1.58.34s.73,1.72,4.3,4.49c3.34,2.6,2.7,7.92,2.7,7.92s-1.53.1-2.18-3.59-5-5-5-5A4.58,4.58,0,0,0,45,25.9a.49.49,0,0,1-.75.5,5.79,5.79,0,0,0-3.59-1A4.34,4.34,0,0,0,43.3,29s-2,.48-2.44,1.31a14.46,14.46,0,0,0,6.35,2.11s-4.1.3-5.42,3.27c0,0,3.89,1.11,6.05-1.09s3.07.78,3.07.78"/><path class="cls-1" d="M1.35,34.82v0h0c-.78-5.85.1-11.46,3-14.53a10.26,10.26,0,0,1,3.58-2.4"/><path class="cls-1" d="M38.17,29A12.08,12.08,0,1,1,26.1,16.93,12.06,12.06,0,0,1,38.17,29Z"/><path class="cls-2" d="M17,29a9.09,9.09,0,0,1,9.08-9.08"/><path class="cls-1" d="M22.18,62.87l.62,0a32.36,32.36,0,0,0,4.45-.31"/><path class="cls-1" d="M29.7,62.22l1.75-.34h0A33.17,33.17,0,0,0,37.65,60c4.48-1.94,5.47-3.4,14.22-2.77,1.8.13,3.36.24,4.7.32,5.21.32,7.25.17,7.61-1.14.27-1-.77-2.47-1.44-4.26a6.71,6.71,0,0,1-.39-3.68C63.08,45,65,43.12,63,41.85c-1.28-.81-5.49-.24-8.37.28a25.12,25.12,0,0,0-3,.66"/><path class="cls-1" d="M28.25,63.84c-2,1.33-4.22,3.07-4.71,4.44-.91,2.55,6.28-.09,10.29,4.55S36.42,77.58,40,75,53.08,58.35,56.57,57.57"/><path class="cls-1" d="M31.47,61.87h0"/><path class="cls-1" d="M64.25,27.21c1.13-3.32,2.12-4.41,3.38-4.13S66.27,27.45,69.74,29s4.18,6.38,5.83,7.56.27,2.31-1.83,3.43-6.12,4-7.61,7.77-3.39,4.4-3.39,4.4"/><path class="cls-1" d="M55.17,14.87c.23-.75.77-3.1-1-4a3.12,3.12,0,0,0-1.49,3.7,2.92,2.92,0,0,0-1.3-1.71,8.3,8.3,0,0,0-1.1,3.79h0"/><path class="cls-1" d="M55.17,14.87c.85-1.13,1.46-1.12,1.46-1.12s.69.62.37,2.38-2.44,4.19-2.58,5.42,2.46.38,2.95-1.68a2.85,2.85,0,0,1,1.89-2.35A7,7,0,0,1,59.57,19a3.85,3.85,0,0,1,3.84-2,4.87,4.87,0,0,1-2.55,4.67"/><path class="cls-1" d="M53.24,32.6s-.56-4.47,1.13-5.5a13.9,13.9,0,0,1,1.74-.82c2.11-.9,5.86-1.64,6.24-4.12a3.67,3.67,0,0,0-1.49-.47"/><path class="cls-1" d="M24.38,54.28a26.69,26.69,0,0,0,5.17-1.76,19.92,19.92,0,0,0,5.65-3.74A14.38,14.38,0,0,1,40.52,45c4-1.53,5.88.2,8.83-.82a18.33,18.33,0,0,0,3.18-9.6s1.54-1.14,2.2.24c.25.53.45,1.25.75,1.93h0"/><path class="cls-1" d="M28.5,54.62l.06.05c.53.35,3.57,2.16,6.2.81,0,0-2.24-3.16-5.21-3"/><path class="cls-1" d="M29.38,59.74c.12.13,1.09,1.13,1.75,1.17,0,0-.29-4.25-2.57-6.24l-.06-.05h0"/><path class="cls-1" d="M24.38,54.28c-.08.14-.15.3-.24.45-1.8,3.29.55,6.4.55,6.4a3.71,3.71,0,0,0,1.56-2.4,9.43,9.43,0,0,0,1,3.86,5,5,0,0,0,1,1.25c.12.1.24.2.37.29a4.06,4.06,0,0,0,.75-1,4.21,4.21,0,0,0,.33-.91,3.79,3.79,0,0,0-.32-2.48h0"/><path class="cls-1" d="M22.55,54.64a6.34,6.34,0,0,0-.46,3.84,11.51,11.51,0,0,1,.09,4.39,8.35,8.35,0,0,1-.81,2.49,4.31,4.31,0,0,1-.64-.7,3.17,3.17,0,0,1-2.22,2.55c-.9-1.18,1.68-6.51-.27-7.61"/><path class="cls-1" d="M18.24,59.6c-.81-.28-.83.86-1.26,3.58s-3.42,3.54-3.42,3.54A1.79,1.79,0,0,1,13,65.07a0,0,0,0,1,0,0,3.62,3.62,0,0,1-1.45,1.59,3,3,0,0,1-2,.32,2.37,2.37,0,0,1,.27-2.34,5.77,5.77,0,0,1,1.48-1.43,2.09,2.09,0,0,1-1.22-1c1.12-1.32,4.5-1.87,5.13-3.78.39-1.21-1.16-1.18-2.92,0"/><path class="cls-1" d="M12.25,58.4c-3.4,2.16-4.41.4-4.41.4a3.33,3.33,0,0,1,1.9-1.91,1.3,1.3,0,0,1-.94-.59,3.34,3.34,0,0,1,2.52-1.17"/><path class="cls-1" d="M11.74,53.34a3.3,3.3,0,0,0-1.06.66,1.37,1.37,0,0,0,.64,1.13"/><path class="cls-2" d="M63.06,46.1A33,33,0,0,0,51.79,47c-6.2,1.58-14.78,3.12-18.51,6.92"/><path class="cls-2" d="M34.05,54.64a50.53,50.53,0,0,1,9.4-2.81c4.22-.67,16.7-2.1,18.9-3.34"/><path class="cls-2" d="M63.62,54.16A83.92,83.92,0,0,0,49,53.66c-6.11.5-8.93,2.5-13.26,3.91s-4.92,1.63-4.92,1.63"/><path class="cls-2" d="M68.48,28.06s-1.15,4.46-3.08,6.76a28.64,28.64,0,0,0-3.58,6.69"/><path class="cls-2" d="M70.66,29.54a38.16,38.16,0,0,1-4,6.91A45.67,45.67,0,0,0,63,41.85"/><path class="cls-2" d="M74.28,34.78s-9.1,7.42-10.66,9.78"/><path class="cls-2" d="M52.64,57.31a68.24,68.24,0,0,0-7.79,7.35c-3.5,4-6.41,8-10,9.36"/><path class="cls-2" d="M48.2,57.1s-5.51,4.86-7.55,7-8.09,7.53-8.09,7.53"/><path class="cls-2" d="M37.65,60s-4.52,3.77-6.52,5.64a52.07,52.07,0,0,0-3.88,4.16"/><path class="cls-2" d="M31.63,47.75s-6.9,6.11-15.34,3.82S5.86,39.67,5.86,39.67"/><path class="cls-2" d="M29.78,12.31a6.4,6.4,0,0,0,5.89,2"/><path class="cls-2" d="M20.25,30.59a3.32,3.32,0,0,1,3.32-3.32"/><path class="cls-2" d="M72.83,50.22A34.46,34.46,0,0,1,49,73.18"/><path class="cls-2" d="M34.05,6.14a34.47,34.47,0,0,1,15.79.91"/><path class="cls-3" d="M35.78,26.59a.2.2,0,0,0,0-.4.2.2,0,0,0,0,.4Z"/><path class="cls-3" d="M33.21,26.51a.2.2,0,0,0,0-.4.2.2,0,0,0,0,.4Z"/><path class="cls-3" d="M34.7,24.93a.2.2,0,0,0,0-.4.2.2,0,0,0,0,.4Z"/><path class="cls-3" d="M34,28.84a.2.2,0,0,0,0-.4.2.2,0,0,0,0,.4Z"/><path class="cls-3" d="M35.78,29.08a.2.2,0,0,0,0-.4.2.2,0,0,0,0,.4Z"/><path class="cls-3" d="M35,31.66a.2.2,0,0,0,0-.4.2.2,0,0,0,0,.4Z"/><path class="cls-3" d="M33.29,30.5a.2.2,0,0,0,0-.4.2.2,0,0,0,0,.4Z"/><path class="cls-3" d="M31.63,28.84a.2.2,0,0,0,0-.4.2.2,0,0,0,0,.4Z"/><path class="cls-3" d="M31.38,31.83a.2.2,0,0,0,0-.4.2.2,0,0,0,0,.4Z"/><path class="cls-3" d="M33.29,33.41a.2.2,0,0,0,0-.4.2.2,0,0,0,0,.4Z"/><path class="cls-3" d="M33.29,35.57a.2.2,0,0,0,0-.4.2.2,0,0,0,0,.4Z"/><path class="cls-3" d="M31.13,35a.2.2,0,0,0,0-.4.2.2,0,0,0,0,.4Z"/><path class="cls-3" d="M29.3,33.08a.2.2,0,0,0,0-.4.2.2,0,0,0,0,.4Z"/><path class="cls-3" d="M29.22,36a.2.2,0,0,0,0-.4.2.2,0,0,0,0,.4Z"/><path class="cls-3" d="M31.05,37.07a.2.2,0,0,0,0-.4.2.2,0,0,0,0,.4Z"/><path class="cls-3" d="M28.39,38.48a.2.2,0,0,0,0-.4.2.2,0,0,0,0,.4Z"/><path class="cls-3" d="M73.36,48.79a.2.2,0,0,0,0-.4.2.2,0,0,0,0,.4Z"/><path class="cls-3" d="M73.69,47.46a.2.2,0,0,0,0-.4.2.2,0,0,0,0,.4Z"/><path class="cls-3" d="M74.11,46a.2.2,0,0,0,0-.4.2.2,0,0,0,0,.4Z"/><path class="cls-3" d="M51.08,7.8a.2.2,0,0,0,0-.4.2.2,0,0,0,0,.4Z"/><path class="cls-3" d="M52.25,8.3a.2.2,0,0,0,0-.4.2.2,0,0,0,0,.4Z"/><path class="cls-3" d="M43.85,59.26a.2.2,0,0,0,0-.4.2.2,0,0,0,0,.4Z"/><path class="cls-3" d="M42.1,59.84a.2.2,0,0,0,0-.4.2.2,0,0,0,0,.4Z"/><path class="cls-3" d="M42.52,60.76a.2.2,0,0,0,0-.4.2.2,0,0,0,0,.4Z"/><path class="cls-3" d="M39.94,61a.2.2,0,0,0,0-.4.2.2,0,0,0,0,.4Z"/><path class="cls-3" d="M37,62.59a.2.2,0,0,0,0-.4.2.2,0,0,0,0,.4Z"/><path class="cls-3" d="M39.69,62.59a.2.2,0,0,0,0-.4.2.2,0,0,0,0,.4Z"/><path class="cls-3" d="M37.7,64.17a.2.2,0,0,0,0-.4.2.2,0,0,0,0,.4Z"/><path class="cls-3" d="M35.54,65.5a.2.2,0,0,0,0-.4.2.2,0,0,0,0,.4Z"/><path class="cls-3" d="M63.22,49.2a.2.2,0,0,0,0-.4.2.2,0,0,0,0,.4Z"/><path class="cls-3" d="M65.21,46a.2.2,0,0,0,0-.4.2.2,0,0,0,0,.4Z"/><path class="cls-3" d="M64.3,47.29a.2.2,0,0,0,0-.4.2.2,0,0,0,0,.4Z"/><path class="cls-3" d="M64.22,48.79a.2.2,0,0,0,0-.4.2.2,0,0,0,0,.4Z"/><path class="cls-3" d="M61.22,43.47a.2.2,0,0,0,0-.4.2.2,0,0,0,0,.4Z"/><path class="cls-3" d="M61.81,44.38a.2.2,0,0,0,0-.4.2.2,0,0,0,0,.4Z"/><path class="cls-3" d="M59.15,44.63a.2.2,0,0,0,0-.4.2.2,0,0,0,0,.4Z"/><path class="cls-3" d="M59,43.47a.2.2,0,0,0,0-.4.2.2,0,0,0,0,.4Z"/><path class="cls-3" d="M56,44.3a.2.2,0,0,0,0-.4.2.2,0,0,0,0,.4Z"/><path class="cls-3" d="M47.67,37.65a.2.2,0,0,0,0-.4.2.2,0,0,0,0,.4Z"/><path class="cls-3" d="M47.92,40a.2.2,0,0,0,0-.4.2.2,0,0,0,0,.4Z"/><path class="cls-3" d="M42.44,40.22a.2.2,0,0,0,0-.4.2.2,0,0,0,0,.4Z"/><path class="cls-3" d="M40.27,42.14a.2.2,0,0,0,0-.4.2.2,0,0,0,0,.4Z"/><path class="cls-3" d="M44.43,42.05a.2.2,0,0,0,0-.4.2.2,0,0,0,0,.4Z"/><path class="cls-3" d="M37.53,44.71a.2.2,0,0,0,0-.4.2.2,0,0,0,0,.4Z"/><path class="cls-3" d="M34.79,43.8a.2.2,0,0,0,0-.4.2.2,0,0,0,0,.4Z"/><path class="cls-3" d="M7.69,21.94a.2.2,0,0,0,0-.4.2.2,0,0,0,0,.4Z"/><path class="cls-3" d="M5.61,23.76a.2.2,0,0,0,0-.4.2.2,0,0,0,0,.4Z"/><path class="cls-3" d="M7,27.75a.2.2,0,0,0,0-.4.2.2,0,0,0,0,.4Z"/><path class="cls-3" d="M4.36,27.92a.2.2,0,0,0,0-.4.2.2,0,0,0,0,.4Z"/><path class="cls-3" d="M8.85,24.35a.2.2,0,0,0,0-.4.2.2,0,0,0,0,.4Z"/><path class="cls-3" d="M5.86,31.75a.2.2,0,0,0,0-.4.2.2,0,0,0,0,.4Z"/><path class="cls-3" d="M9.6,33.08a.2.2,0,0,0,0-.4.2.2,0,0,0,0,.4Z"/><path class="cls-3" d="M5.27,35.15a.2.2,0,0,0,0-.4.2.2,0,0,0,0,.4Z"/><path class="cls-3" d="M3.69,32.16a.2.2,0,0,0,0-.4.2.2,0,0,0,0,.4Z"/><path class="cls-3" d="M9.93,38.15a.2.2,0,0,0,0-.4.2.2,0,0,0,0,.4Z"/><path class="cls-3" d="M18.83,44.71a.2.2,0,0,0,0-.4.2.2,0,0,0,0,.4Z"/><path class="cls-3" d="M13.92,45.71a.2.2,0,0,0,0-.4.2.2,0,0,0,0,.4Z"/><path class="cls-3" d="M14.25,40.06a.2.2,0,0,0,0-.4.2.2,0,0,0,0,.4Z"/><path class="cls-3" d="M38.53,18.36a.2.2,0,0,0,0-.4.2.2,0,0,0,0,.4Z"/><path class="cls-3" d="M40.86,20.44a.2.2,0,0,0,0-.4.2.2,0,0,0,0,.4Z"/><path class="cls-3" d="M59,29.67a.2.2,0,0,0,0-.4.2.2,0,0,0,0,.4Z"/><path class="cls-3" d="M61.72,29.92a.2.2,0,0,0,0-.4.2.2,0,0,0,0,.4Z"/><path class="cls-3" d="M57.32,31.83a.2.2,0,0,0,0-.4.2.2,0,0,0,0,.4Z"/><path class="cls-3" d="M14.5,61.76a.2.2,0,0,0,0-.4.2.2,0,0,0,0,.4Z"/><path class="cls-3" d="M12.75,63a.2.2,0,0,0,0-.4.2.2,0,0,0,0,.4Z"/><path class="cls-3" d="M14.83,64.08a.2.2,0,0,0,0-.4.2.2,0,0,0,0,.4Z"/><path class="cls-3" d="M20.65,56.44a.2.2,0,0,0,0-.4.2.2,0,0,0,0,.4Z"/><path class="cls-3" d="M19.41,56.35a.2.2,0,0,0,0-.4.2.2,0,0,0,0,.4Z"/><path class="cls-3" d="M20.07,57.35a.2.2,0,0,0,0-.4.2.2,0,0,0,0,.4Z"/><path class="cls-3" d="M17.58,56.69a.2.2,0,0,0,0-.4.2.2,0,0,0,0,.4Z"/><path class="cls-3" d="M25.64,55.6a.2.2,0,0,0,0-.4.2.2,0,0,0,0,.4Z"/><path class="cls-3" d="M26.56,55.11a.2.2,0,0,0,0-.4.2.2,0,0,0,0,.4Z"/><path class="cls-3" d="M26.72,56.6a.2.2,0,0,0,0-.4.2.2,0,0,0,0,.4Z"/><path class="cls-3" d="M41.77,46a.2.2,0,0,0,0-.4.2.2,0,0,0,0,.4Z"/><path class="cls-3" d="M43.52,46.13a.2.2,0,0,0,0-.4.2.2,0,0,0,0,.4Z"/><path class="cls-3" d="M41.27,47.54a.2.2,0,0,0,0-.4.2.2,0,0,0,0,.4Z"/><path class="cls-3" d="M39.86,46.79a.2.2,0,0,0,0-.4.2.2,0,0,0,0,.4Z"/><path class="cls-3" d="M38.94,48.29a.2.2,0,0,0,0-.4.2.2,0,0,0,0,.4Z"/><path class="cls-3" d="M37,49.54a.2.2,0,0,0,0-.4.2.2,0,0,0,0,.4Z"/></g></svg>