<svg xmlns="http://www.w3.org/2000/svg" viewBox="0 0 80 80"><defs><style>.cls-1,.cls-2{fill:none;stroke:#231f20;stroke-linecap:round;stroke-linejoin:round;}.cls-1{stroke-width:0.6px;}.cls-2{stroke-width:0.3px;}.cls-3{fill:#231f20;}</style></defs><g id="Layer_72" data-name="Layer 72"><path class="cls-1" d="M44.47,7.73C41.7,9,42.25,13.24,42.25,13.24a8.87,8.87,0,0,0,7.93-2.12"/><path class="cls-1" d="M42.56,10.05c-2.54-.14-5.28-.21-8.14-.21-13,0-23.46,1.58-23.46,3.52s10.5,3.53,23.46,3.53,21.25-1.44,23.46-3.53"/><ellipse class="cls-2" cx="34.42" cy="20.39" rx="18.56" ry="1.76"/><path class="cls-1" d="M39.17,70.34c3.73.52,6.31,1.64,6.31,3,0,1.81-5,3.28-11.06,3.28-4.89,0-9-.93-10.49-2.23a1.45,1.45,0,0,1-.57-1c0-1.31,2.57-2.43,6.3-3"/><path class="cls-1" d="M45.48,73.29v2.43c0,1.81-5,3.28-11.06,3.28s-11.06-1.47-11.06-3.28V73.29"/><path class="cls-1" d="M11,13.36s-.73,6.76,5.29,10.38,6.08.84,8.31,6.8S28.9,38.12,31,38.9c0,0,1.23.43,1.39,2.7.14,1.84-.17,15-.29,19.79a21.49,21.49,0,0,1-.78,5.41,10.62,10.62,0,0,1-1.21,2.86,24.57,24.57,0,0,1-2.79,3.51"/><path class="cls-2" d="M23.35,24.89a3.55,3.55,0,0,1,2.21,2.53c.72,2.17,2.78,9.75,8.86,9.75"/><path class="cls-1" d="M57.87,13.36s.73,6.76-5.29,10.38-6.08.84-8.31,6.8-4.34,7.58-6.46,8.36c0,0-1.23.43-1.4,2.7-.13,1.84.18,15,.29,19.79a22,22,0,0,0,.79,5.41,10.62,10.62,0,0,0,1.21,2.86,24.57,24.57,0,0,0,2.79,3.51"/><path class="cls-2" d="M34.41,26.69A31,31,0,0,0,51,22.29a13.71,13.71,0,0,0,5-6.06"/><path class="cls-2" d="M34.41,26.69a31,31,0,0,1-16.55-4.4,13.58,13.58,0,0,1-5-6.06"/><path class="cls-2" d="M45.48,24.89a3.53,3.53,0,0,0-2.21,2.53c-.72,2.17-2.78,9.75-8.86,9.75"/><path class="cls-2" d="M48.93,7.9a3,3,0,0,1-3.25-.78c-.8-1-.63-1.61-.94-2.59.26,0,3-.5,3.79.69"/><path class="cls-2" d="M40.54,29.18s-.85,5.06-4.53,6"/><path class="cls-2" d="M52,1S48.86,3.71,50.7,8.77"/><path class="cls-2" d="M46.05,5.47A5.75,5.75,0,0,0,48.59,7"/><path class="cls-2" d="M42.25,13.24S45.58,9.6,49.6,8.81"/><path class="cls-2" d="M46.05,13.27s-.12-2.77.88-3.52"/><path class="cls-2" d="M43.29,8.65s3.19,1.13,4.54.69"/><path class="cls-2" d="M49.48,2.77a8.47,8.47,0,0,1,.69,2.16"/><path class="cls-2" d="M51.56,4.53A2.75,2.75,0,0,0,50.21,6.9"/><path class="cls-1" d="M55.9,20.66A9.46,9.46,0,1,0,50.15,12,9.42,9.42,0,0,0,51,15.78"/><path class="cls-2" d="M60.87,12.85l2.89,4.45a.48.48,0,0,0,.71.11,7.31,7.31,0,0,0,2.3-4,.48.48,0,0,0-.45-.56L61,12.59A.17.17,0,0,0,60.87,12.85Z"/><path class="cls-2" d="M52.9,11l5.3.28a.17.17,0,0,0,.15-.26L55.46,6.6a.48.48,0,0,0-.71-.11,7.37,7.37,0,0,0-2.3,4A.48.48,0,0,0,52.9,11Z"/><path class="cls-2" d="M63.76,6.6,61,10.79c-.25.38-.16.53,0,.52l5.3-.28a.47.47,0,0,0,.45-.56,7.31,7.31,0,0,0-2.3-4A.48.48,0,0,0,63.76,6.6Z"/><path class="cls-2" d="M58.2,12.59l-5.3.28a.49.49,0,0,0-.45.56,7.56,7.56,0,0,0,.27,1"/><path class="cls-2" d="M59.76,10.41l2.41-4.73A.48.48,0,0,0,61.91,5a7.33,7.33,0,0,0-4.6,0,.48.48,0,0,0-.26.67l2.41,4.73A.17.17,0,0,0,59.76,10.41Z"/><path class="cls-2" d="M58.2,19.13a7.16,7.16,0,0,0,3.71-.24.47.47,0,0,0,.26-.66l-2.41-4.74a.17.17,0,0,0-.3,0l-.64,1.27"/><path class="cls-1" d="M50.47,9.49l-.07,0a3.92,3.92,0,0,1-1.92-3.28C48.39,3.84,49.86,1.42,52,1c0,0,1.47,2.65.94,4.21"/><path class="cls-3" d="M65.69,14a.2.2,0,0,0,0-.4.2.2,0,0,0,0,.4Z"/><path class="cls-3" d="M64.25,14a.2.2,0,0,0,0-.4.2.2,0,0,0,0,.4Z"/><path class="cls-3" d="M65.22,15a.2.2,0,0,0,0-.4.2.2,0,0,0,0,.4Z"/><path class="cls-3" d="M60.89,6.3a.2.2,0,0,0,0-.4.2.2,0,0,0,0,.4Z"/><path class="cls-3" d="M59.78,5.92a.2.2,0,0,0,0-.4.2.2,0,0,0,0,.4Z"/><path class="cls-3" d="M60.06,7.38a.2.2,0,0,0,0-.4.2.2,0,0,0,0,.4Z"/><path class="cls-3" d="M29.79,29.62a.2.2,0,0,0,0-.4.2.2,0,0,0,0,.4Z"/><path class="cls-3" d="M31.19,33.67a.2.2,0,0,0,0-.4.2.2,0,0,0,0,.4Z"/><path class="cls-3" d="M32,31a.2.2,0,0,0,0-.4.2.2,0,0,0,0,.4Z"/><path class="cls-3" d="M33.22,34.39a.2.2,0,0,0,0-.4.2.2,0,0,0,0,.4Z"/><path class="cls-3" d="M41.67,24.52a.2.2,0,0,0,0-.4.2.2,0,0,0,0,.4Z"/><path class="cls-3" d="M39.58,23.86a.2.2,0,0,0,0-.4.2.2,0,0,0,0,.4Z"/><path class="cls-3" d="M38.66,25.11a.2.2,0,0,0,0-.4.2.2,0,0,0,0,.4Z"/><path class="cls-3" d="M35.23,24.61a.2.2,0,0,0,0-.4.2.2,0,0,0,0,.4Z"/><path class="cls-3" d="M38.24,73.6a.2.2,0,0,0,0-.4.2.2,0,0,0,0,.4Z"/><path class="cls-3" d="M36.06,71.67a.2.2,0,0,0,0-.4.2.2,0,0,0,0,.4Z"/><path class="cls-3" d="M36,73.6a.2.2,0,0,0,0-.4.2.2,0,0,0,0,.4Z"/><path class="cls-3" d="M33.64,71.84a.2.2,0,0,0,0-.4.2.2,0,0,0,0,.4Z"/><path class="cls-3" d="M35.23,67.58a.2.2,0,0,0,0-.4.2.2,0,0,0,0,.4Z"/><path class="cls-3" d="M18.65,12.9a.2.2,0,0,0,0-.4.2.2,0,0,0,0,.4Z"/><path class="cls-3" d="M18.65,14.72a.2.2,0,0,0,0-.4.2.2,0,0,0,0,.4Z"/><path class="cls-3" d="M14.53,13.56a.2.2,0,0,0,0-.4.2.2,0,0,0,0,.4Z"/><path class="cls-3" d="M16.7,12.9a.2.2,0,0,0,0-.4.2.2,0,0,0,0,.4Z"/><path class="cls-3" d="M47.52,11.71a.2.2,0,0,0,0-.4.2.2,0,0,0,0,.4Z"/><path class="cls-3" d="M48.48,11.09a.2.2,0,0,0,0-.4.2.2,0,0,0,0,.4Z"/><path class="cls-3" d="M30,32.38a.2.2,0,0,0,0-.4.2.2,0,0,0,0,.4Z"/><path class="cls-3" d="M34.64,69.58a.2.2,0,0,0,0-.4.2.2,0,0,0,0,.4Z"/></g></svg>