<?xml version="1.0" encoding="UTF-8"?><svg id="Layer_2" xmlns="http://www.w3.org/2000/svg" viewBox="0 0 279.6823 135.0387"><g id="Components"><g id="_2d76b55d-477a-4f87-b6f4-b15648d1f1ad_5"><ellipse cx="39.6931" cy="37.3492" rx="8.51" ry="17.53" transform="translate(-10.9739 57.4328) rotate(-64.88)" style="fill:none; stroke:#fff; stroke-miterlimit:10; stroke-width:.89px;"/><path d="M23.9124,29.7187c-.59,1.06-1.27,2.34-1.81,3.49-6.16,13.14-3.97,27.17,4.9,31.33,8.87,4.16,21.05-3.13,27.22-16.27.53-1.14,1.21-2.98,1.59-4.14" style="fill:none; stroke:#fff; stroke-miterlimit:10; stroke-width:.89px;"/><path d="M34.9424,48.8387c-5.99-2.81-10.44-6.86-12.03-10.51-3.16,9.91-.92,19.57,5.74,22.69,6.46,3.03,14.99-1.07,20.61-9.33-3.79.57-9.04-.38-14.32-2.85Z" style="fill:#fff;"/><path d="M29.5624,65.4087c-2.29,3.14-4.64,7.26-5.9,9.34-5.41,8.91-7.2,14.56-6.77,15.58.48,1.11,1.98,1.03,4.01,1.81,2.52.96,5.78,3.21,5.69,5.3-.09,1.96-3.12,3.26-3.36,3.36-4.88,2.03-10.54-1.63-13.82-3.75-3.18-2.05-9.58-6.19-8.92-10.72.24-1.66,1.45-3.47,2.97-3.88,2.18-.58,5.44,1.59,7.11,3.1.73.66,1.14,1.18,1.81,1.16,1-.02,3.1-.56,9.24-14.54,1.38-3.16,3.01-7.1,3.63-8.66" style="fill:none; stroke:#fff; stroke-miterlimit:10; stroke-width:.89px;"/><ellipse cx="75.3777" cy="37.3519" rx="17.53" ry="8.51" transform="translate(-8.7273 35.5317) rotate(-25.12)" style="fill:none; stroke:#fff; stroke-miterlimit:10; stroke-width:.89px;"/><path d="M91.1624,29.7187c.59,1.06,1.27,2.34,1.81,3.49,6.16,13.14,3.97,27.17-4.9,31.33-8.87,4.16-21.05-3.13-27.22-16.27-.53-1.14-1.21-2.98-1.59-4.14" style="fill:none; stroke:#fff; stroke-miterlimit:10; stroke-width:.89px;"/><path d="M80.1324,48.8387c5.99-2.81,10.44-6.86,12.03-10.51,3.16,9.91.92,19.57-5.74,22.69-6.46,3.03-14.99-1.07-20.61-9.33,3.79.57,9.04-.38,14.32-2.85Z" style="fill:#fff;"/><path d="M85.5124,65.4087c2.29,3.14,4.64,7.26,5.9,9.34,5.41,8.91,7.2,14.56,6.77,15.58-.48,1.11-1.98,1.03-4.01,1.81-2.52.96-5.78,3.21-5.69,5.3.09,1.96,3.12,3.26,3.36,3.36,4.88,2.03,10.54-1.63,13.82-3.75,3.18-2.05,9.58-6.19,8.92-10.72-.24-1.66-1.45-3.47-2.97-3.88-2.18-.58-5.44,1.59-7.11,3.1-.73.66-1.14,1.18-1.81,1.16-1-.02-3.1-.56-9.24-14.54-1.38-3.16-3.01-7.1-3.63-8.66" style="fill:none; stroke:#fff; stroke-miterlimit:10; stroke-width:.89px;"/><path d="M37.1524,16.5787c2.7,5.16,6.05,7.88,8.16,9.26,1.53,1,3.88,2.54,4.84,1.8,1.91-1.48-2.92-11.05-2.9-11.06.02,0,3.13,9.55,5.25,9.26.93-.13,1.38-2.09,1.66-3.32,1.14-4.99-1.09-6.88-.28-11.06.55-2.81,2.43-6.45,4.98-6.64,1.53-.11,3.28,1.03,3.73,2.49.5,1.64-.85,3-2.35,5.53-2.71,4.56-3.4,8.75-3.73,10.78-.98,5.91.49,8.88.83,9.54.52.99,1.1,1.73,1.52,2.21" style="fill:none; stroke:#fff; stroke-linecap:round; stroke-linejoin:round; stroke-width:1.13px;"/><path d="M62.7224,33.1687c2.25-2.34,2.96-4.43,3.18-5.94.33-2.31-.43-3.74.69-5.81.27-.5,1.13-2.09,2.76-2.35.74-.12,1.85,0,2.35.69.69.95.21,2.94-1.66,4.42" style="fill:none; stroke:#fff; stroke-linecap:round; stroke-linejoin:round; stroke-width:1.13px;"/><path d="M135.5424,52.5487c.32-.32.74-.42,1.27-.42s1.17,0,1.81-.21h3.5c.32,0,.64,0,1.06.11.21,0,.53,0,.85.11.11,0,.21-.11.32,0h.74c.64,0,1.17,0,1.7-.11.21,0,.43.11.53.11.21.11.32.11.53,0,.11,0,.21,0,.32.11.85.21,1.7.42,2.66.64.64.21,1.38.53,2.02.74.42.21.85.53,1.27.64.0733,0,.1433.0367.21.11.21.32.53.42.85.53.21.11.43.21.53.42.21.42.64.64.96.96.42.42.74.85,1.06,1.38.11.21.32.53.42.74.85,2.02,1.27,3.93,1.7,6.05.21.64.21,1.38.11,2.12-.11.85-.21,1.59-.32,2.34-.74,2.66-2.97,7.54-5.63,8.5-.21.11-.53.32-.74.53.21.64.53,1.17.85,1.81.96,2.02,2.12,3.93,3.08,5.95.21.42.43.85.53,1.38,0,.11.11.21.11.21.42.42.53.96.85,1.49.21.64.53,1.17.85,1.81.74,1.27,1.38,2.55,2.02,3.82.42.85.85,1.7,1.38,2.44.11.21.11.32.21.42.42.32.53.74.53,1.27,0,.32,0,.53-.11.74v.32c.32.53-.11.74-.21,1.06-.21.42-.64.53-.96.64-.85,0-1.59.11-2.44.21-.53,0-.96,0-1.49.11h-2.87c-.32,0-.64-.11-.85-.21-.32-.21-.74-.32-1.06-.53-.11-.11-.21-.32-.32-.42,0-.21,0-.32-.11-.42-.53-.96-.96-1.81-1.49-2.76l-1.59-3.19c-.42-.85-.96-1.81-1.38-2.66l-1.91-3.82c-.85-1.7-1.59-3.4-2.34-4.99,0-.11,0-.21-.21-.32-.11.11,0,.32,0,.42v3.72c0,.32.11.53,0,.85-.11.42,0,.96,0,1.49.11.85,0,1.7,0,2.55v5.2c0,.85,0,1.7-.11,2.55,0,1.06-.74,2.02-1.7,2.34-.11,0-.21.11-.32,0h-.43c-.64,0-1.17.11-1.7.11h-2.23c-1.49,0-2.34-2.02-2.34-3.29,0-1.38-.11-2.76-.11-4.25v-6.48c0-.53-.11-1.06-.11-1.59-.11-.42-.11-.85-.11-1.27v-4.46c-.11-.74-.11-1.59-.11-2.34,0-.32-.11-.74,0-1.06.0733-.0733.11-.1433.11-.21-.21-1.7-.11-3.4-.11-4.99-.11-1.7,0-3.4,0-5.1,0-.96,0-2.02-.11-2.97,0-.74-.11-1.49-.11-2.12-.11-1.17-.11-2.34-.21-3.51v-3.72c0-.74.32-1.17.85-1.59l.05-.04ZM144.1424,62.1087v8.6c0,.11.11.21.11.32.11.11.32.11.42.11h.64c.21,0,.42,0,.64-.11.11-.11.42-.11.64-.21.85-.32,1.81-.64,2.55-1.27.64-.42,1.06-1.06,1.17-1.81.11-.43.11-.85.21-1.28.21-.85,0-1.7-.42-2.55-.64-1.59-3.08-1.91-4.57-1.91-.21,0-.32,0-.53-.11-.32,0-.53,0-.85.21l-.01.01Z" style="fill:#fff;"/><path d="M173.7824,79.4187c-.21-3.93-.21-7.97-.21-11.9.11-.85,0-1.81.11-2.66v-.64c-.21-.64,0-1.28,0-2.02,0,0,.11-.11.11-.21.21-.42.32-.96.53-1.38.42-1.17,1.38-2.76,2.12-3.82.32-.53.74-1.06,1.17-1.49.64-.74,1.38-1.38,2.12-1.91.11-.11.21-.21.42-.21.11-.11.21-.11.32-.21.74-.64,1.59-.96,2.55-1.17h.21c1.38-.64,2.87-.64,4.35-.64.64,0,1.38,0,2.02-.11h.53c.53,0,.96,0,1.38.11.74.11,1.49.32,2.23.64.85.43,1.7.85,2.55,1.49.64.42,1.27.96,2.02,1.38.21.11.42.32.53.53.32.21.64.64.96.85.11.11.32.21.32.42.21.53.64.96.85,1.49.21.32.32.74.53,1.06.42.96.64,1.91.85,2.97.11.21.11.42.11.64,0,1.59.11,3.19,0,4.78-.11,1.81-.11,3.72-.11,5.52-.11,1.38-.11,2.87-.11,4.25-.11,1.49-.11,2.97-.11,4.46,0,1.91,0,3.72-.21,5.52,0,1.17-.11,2.34-.32,3.5-.11.42-.21.85-.42,1.28-.21.53-.32,1.06-.42,1.59-.21.74-.53,1.38-.74,2.02-.11.21-.21.32-.21.53-.32.96-1.06,1.7-1.91,2.34l-1.91,1.59c-.32.21-.53.42-.96.64,0,0-.11,0-.21.11-1.27,1.06-3.61,1.59-5.2,1.59h-2.34c-.21.11-.42.11-.64,0-.74,0-1.38,0-2.12-.11h-.21c-.74-.21-1.59-.42-2.34-.64-.21-.11-.53-.21-.74-.42-.53-.32-1.06-.64-1.59-.96-.21-.21-.64-.32-.85-.64-.11-.21-.43-.42-.64-.64-.32-.21-.53-.64-.85-.96-1.59-1.81-2.44-4.14-2.97-6.48-.11-.85-.32-1.7-.21-2.55-.32-.85-.21-1.81-.21-2.66v-2.55c0-1.49,0-2.87-.11-4.36l-.02.04ZM183.1224,85.6887c.11.96,0,1.81.11,2.66.21,1.49.42,2.97,1.17,4.25.53,1.28,2.02,2.66,3.5,2.66.85,0,1.7-.21,2.34-.85.74-.64,1.38-1.38,1.81-2.23.11-.32.21-.64.42-.96.42-.74.42-1.49.42-2.23v-1.59c.11-.74.21-1.49.21-2.23v-3.08c-.11-1.38-.11-2.76-.21-4.14-.11-1.38,0-2.76-.11-4.14-.11-1.06,0-2.12-.11-3.08,0-1.91.11-3.93-.11-5.84-.11-.74,0-1.59-.32-2.34-.11-.21,0-.32-.11-.53-.11-.85-.32-1.7-.96-2.34-.21-.21-.53-.53-.74-.74-.53-.42-1.17-.64-1.7-.74-.11-.11-.21-.11-.32-.11-.32.11-.74.11-1.17.11-.21.11-.42.11-.64.21-.64.42-1.17.85-1.7,1.38-.74.96-1.17,2.02-1.49,3.19v.32c0,.74,0,1.49-.11,2.23v2.66c-.11,1.38-.11,2.76-.21,4.14,0,2.12,0,4.36-.11,6.48-.11,1.17-.11,2.23-.11,3.4,0,.21,0,.42.11.64.11.96.11,1.91.11,2.87l.03-.03Z" style="fill:#fff;"/><path d="M220.9424,87.9187c.42.11.53.32.74.53.53.74,1.38,1.17,2.12,1.59.53.32,1.06.53,1.59,1.06,0,0,.11,0,.21.11.85.21,1.7.42,2.55.53.43.11.85.21,1.27.21.21,0,.53-.11.85-.11.53-.11.96-.32,1.38-.64.53-.53,1.06-1.06,1.49-1.7.53-.96.74-2.02.43-3.08-.11-.42-.32-.74-.64-1.06-.74-.64-1.38-1.38-2.23-1.91-.21-.21-.53-.42-.74-.64,0-.11-.11-.21-.21-.21-.42-.11-.64-.32-.96-.53-.74-.42-1.49-1.06-2.44-1.59-.42-.21-.42-.53-.74-.64-.42-.21-.85-.42-1.27-.53-.11-.11-.21-.11-.42-.21-.53-.42-1.27-.74-1.91-1.06-.11,0-.21,0-.21-.11-.32-.43-.96-.53-1.38-.96-.42-.53-1.06-.96-1.49-1.49-.53-.53-1.06-1.17-1.59-1.7-.32-.32-.53-.74-.85-1.06,0-.11-.11-.21-.11-.32,0-.32-.21-.53-.32-.74-.32-.21-.42-.64-.53-.96,0-.32-.11-.64-.21-.85-.21-.53-.32-.96-.32-1.49v-1.59c0-.32,0-.53.11-.85,0-.32.11-.53.11-.85v-.32c.32-1.49.74-2.87,1.17-4.25,1.38-2.66,3.93-5.74,6.69-6.8.85-.42,1.59-.64,2.44-1.06.53-.21,1.17-.21,1.81-.32h.21c.42,0,.74-.11,1.06-.11h1.91c.21,0,.42,0,.53.11.96,0,2.02.21,2.97.32.64.11,1.27.11,1.91.32.74.11,1.38.21,2.02.53.42.21.96.32,1.38.42.74.21,1.27.85,1.81,1.38.21.11.21.32.11.53-.21.74-.21,1.49-.64,2.12-.64,1.27-1.27,2.55-2.12,3.72-.42.74-1.17,1.81-1.81,2.44-.21.21-.42.21-.64.11-.21-.21-.32-.32-.42-.42-.43-.32-.74-.64-1.17-.74-.42-.21-.96-.53-1.38-.74-.42-.11-.74-.42-1.17-.53-.64-.11-1.27-.32-1.91-.32-.74,0-1.49,0-2.23.11-.53.21-1.06.53-1.38.96-.53.42-.96,1.06-1.27,1.59-.42.96-.64,1.91-.32,2.97.21.42.43.74.74,1.06.64.53,1.27,1.06,1.91,1.49.32.21.74.42.96.64,1.38,1.06,2.55,1.17,3.61,2.23.53.32,1.38.74,1.91.96.53.32,1.06.64,1.59.96.42.42.96.74,1.49.96.32.21.64.32.74.53.11.11.21.21.42.32.11.11.21.11.32.21.42.53.85.96,1.27,1.49.21.11.42.32.53.53.21.11.32.32.42.43.32.53.74,1.06,1.17,1.49.11.11.21.32.32.53s.21.43.42.53c.11.21.32.42.32.74.11.32.32.53.42.74.21.32.43.64.32.96,0,.32.11.53.21.85.21.42.32.85.32,1.38,0,.11.11.21.11.21-.21.64,0,1.28-.11,1.91-.11.11-.11.32-.11.53-.11.42-.21.74-.21,1.17-.11.11-.11.32-.11.42-.32.96-.64,2.12-1.06,3.08-.32.74-.64,1.38-1.06,2.02-.64.85-1.38,1.7-2.34,2.44-.53.53-1.17.96-1.81,1.49-.96.64-2.02,1.06-3.19,1.38-.85.32-1.81.53-2.76.74-.11.11-.32.11-.42.11h-.96c-.11,0-.32,0-.53-.11-.11-.11-.21,0-.42,0-.74,0-1.59-.11-2.44-.21-.74-.21-1.59-.32-2.34-.64h-.21c-.96-.11-1.81-.42-2.66-.64-.74-.21-1.49-.42-2.12-.64-.32-.11-.53-.21-.85-.42-.42-.21-.85-.42-1.38-.64-.74-.32-1.38-.85-1.91-1.49-.21-.32-.21-.64-.11-.85.21-.53.32-.96.53-1.38.21-.53.53-.96.85-1.38.32-.64.85-1.27,1.17-1.91.53-.64,1.06-1.27,1.59-1.91.42-.53,1.06-.96,1.59-1.49l.02.01Z" style="fill:#fff;"/><path d="M257.0524,91.2087c0-1.38.11-2.66,0-3.93v-5.74c0-.74-.11-1.59,0-2.34-.11-.53,0-1.06,0-1.7,0-.32-.11-.64,0-.96.11,0,.11-.11.11-.21-.11-1.49,0-2.87,0-4.36,0-2.87.11-5.84.21-8.71,0-.85-.11-1.59-.11-2.44-.11-.64.11-1.38-.11-2.02.11-.85,0-1.81,0-2.66s0-1.81.11-2.66c0-.74.32-1.27.85-1.7.32-.21.85-.32,1.27-.32h1.27c.11-.11.21-.11.32-.11h3.61c.32,0,.74,0,1.06.11s.74.11,1.06.11h1.49c.96-.11,1.81-.11,2.66-.21h.74c.53,0,.96,0,1.49-.11h2.02c.53,0,.96,0,1.49-.11.21,0,.53,0,.85.11h.21c.11-.11.21-.11.32-.11.21,0,.42.11.64.21.11,0,.21.11.32.11.53.11.74.64.64,1.06,0,.32.11.74.11,1.06v2.02c0,.53-.11,1.06-.11,1.59.11.85-.21,1.7-.21,2.55-.11.32-.21.53-.53.64-.64.32-1.49.32-2.12.32h-.74c-.11.11-.32.11-.53.11h-1.38c-.21,0-.42,0-.53.11h-1.38c-.96.11-1.91.11-2.87.11h-1.7c-.11.11-.32.11-.53.11-.42-.11-.53.11-.53.42-.11,2.66-.11,5.21-.21,7.86,0,.42-.11.85,0,1.27.21.11.42.11.64.11h1.38c.85-.21,1.59-.11,2.44-.21.21,0,.32.11.53.11.53,0,1.06-.21,1.59-.21h1.17c.43.11.74.42,1.17.53.32.32.32.64.32,1.06.11,1.49,0,2.97,0,4.57,0,.53,0,1.06-.11,1.59-.11.21-.11.53-.11.74,0,.43-.21.64-.53.85-.32.11-.64.21-.96.21-.42,0-.85,0-1.38.11-.42,0-.85,0-1.27.11h-.21c-.42,0-.74,0-1.06-.11-.42,0-.64.21-1.06.21h-2.34c-.0733,0-.1433.0367-.21.11-.21.32-.21.85-.21,1.28v5.95c-.11.53-.11,1.06-.11,1.59v2.87c.11.21.21.21.32.21,1.27,0,2.44,0,3.72-.11.64-.11,1.27-.11,1.91-.11h.42c.11-.11.21-.11.32-.11s.32,0,.42.11h.42c.32-.11.74-.11,1.06-.11h2.55c.11-.11.32-.11.42-.11.42,0,.74.42,1.17.42l.32.32c.11.21.21.42.11.64v4.67c0,.85-.21,1.7-.21,2.55-.11.32-.21.53-.53.64-.64.32-1.49.32-2.23.32h-.64c-.32.11-.64.11-.96.11h-1.27c-.53.21-1.06.11-1.59.21h-3.93c-.21,0-.42,0-.53.11h-1.17c-.43-.11-.96-.11-1.49-.21h-.21c-.32.11-.74.21-1.06.21h-2.76c-.21.11-.53.11-.74.11-.32,0-.53,0-.85-.11-.42,0-.96-.32-1.17-.74-.32-.53-.64-1.17-.74-1.91v-.32c0-.85,0-1.81-.11-2.76v-2.66c0-.74.11-1.59.11-2.34l-.0202.02ZM261.4124,47.4487c0-.32.11-.53.21-.64.32-.96.85-1.91,1.38-2.87.96-1.59,2.12-3.29,3.08-4.89.85-1.28,1.38-2.34,2.12-3.4,0-.11.11-.21.21-.32.32-.53.74-.74,1.17-.74.32,0,.64.11.96.32.42.21.74.53,1.06.74.74.53,1.38,1.38,2.02,2.02.32.21.42.53.64.96,0,.64-1.49,1.59-2.02,1.91-.32.21-.64.53-1.06.85-1.49,1.27-3.29,2.44-4.89,3.82-.64.64-1.59,1.27-2.44,1.91-.11,0-.11.11-.21.32-.32.42-.74.53-1.27.64-.21.11-.42.11-.64.11-.32,0-.42-.32-.32-.74h0Z" style="fill:#fff;"/><path d="M172.5724,25.9087c.32.18.51.39.6.7,0,.27.12.43.13.7-.03.14.09.31.08.51.12.44.16.82.22,1.28.05.19.02.33.01.53,0,.73-.05,1.49-.11,2.24.04.39,0,.73-.1,1.1-.05.55-.32,1.02-.67,1.46-.3.35-.53.75-.81,1.16-.05.08-.11.1-.15.18-.41.45-.8.96-1.37,1.32.02.06-.04.08-.11.1-.37.37-.84.57-1.32.77-.06.02-.19.05-.25.07-.19.05-.31.09-.5.14-.37.1-.75.21-1.12.31-.04.08-.11.1-.17.11-.12.04-.19.05-.27,0-.37.1-.74.21-1.13.25l-.12.03c-.47,0-.88-.02-1.28-.04-.25.07-.47,0-.69-.08-.34-.04-.71-.14-1.01-.26-.16-.09-.24-.13-.38-.16-.12.03-.22-.07-.3-.12-.62-.3-1.19-.67-1.72-1.13-.37-.37-.72-.67-1.11-1.1-.42-.55-.8-1.18-1.11-1.83-.25-.4-.37-.83-.55-1.25-.23-.6-.39-1.16-.54-1.72-.17-.62-.33-1.18-.48-1.74-.22-.54-.39-1.16-.55-1.72-.26-.93-.52-1.86-.84-2.78-.15-.56-.39-1.16-.54-1.72-.33-1.18-.64-2.3-.97-3.48-.14-.5-.28-.99-.41-1.49-.09-.31-.17-.62-.2-.95.03-.14-.02-.33,0-.47.04-.08.03-.14.01-.2,0-.73.13-1.44.35-2.1.18-.79.51-1.55.83-2.3.26-.27.34-.7.68-.92.16-.38.52-.54.7-.86.3-.35.64-.58,1.04-.82.12-.03.19-.05.25-.07.7-.6,1.57-.84,2.44-1.08.37-.1.75-.21,1.1-.37.12-.04.25-.07.31-.09.31-.09.56-.15.82-.16.58-.09,1.12-.04,1.67,0,.5.13.99.19,1.45.4.38.16.76.32,1.18.41.44.15.76.32,1.16.55.08.04.16.09.24.13.08.05.16.09.26.2.29.32.64.62,1.01.99.1.11.09.31.25.4.18.15.29.32.4.49.04.12.13.23.25.4.28.52.58,1.11.67,1.69-.01.2.04.39-.03.61-.41.45-.61.7-1.23.88-.43.12-.85.3-1.25.55-.25.07-1.77.62-1.81.7s-.11.1-.11.1c-.12.03-.28-.05-.42-.08-.08-.04-.22-.07-.32-.18-.13-.23-.41-.29-.48-.53-.03-.12-.11-.17-.15-.29.03-.14-.07-.25-.09-.31-.26-.46-.46-.94-.71-1.34-.18-.42-.52-.66-.9-.82-.08-.04-.16-.09-.24-.14-.33-.24-.68-.28-1.09-.3-.06.02-.19.05-.31.09-.81.22-1.16.39-1.61,1.18-.24.33-.4.71-.41,1.18l-.16.85c0,.27.03.59.1.84.12.44.24.87.36,1.3.19.68.34,1.44.53,2.13.45,2.35,1.25,5.2,1.88,7.5.09.31.17.62.38.9.03.12.07.25.1.37.12.44.26.93.38,1.37.36,1.3,1.41,3.62,2.92,4,.16.09.52.19.71.14.27,0,.51-.08.78-.08l.12-.04c.34-.23.66-.52.9-.85.36-.63.64-1.31.7-2.07-.0133-.04-.0033-.0867.03-.14.14-.44.02-.88-.14-1.23-.14-.5-.21-1.01-.29-1.53-.04-.39.16-.64.57-.83.35-.17.73-.27,1.14-.45.5-.14,1.04-.35,1.6-.51.19-.05.26-.27.46-.26.06-.02.12-.03.19-.05.12-.04.25-.07.31-.09.12-.03.25-.07.35-.17l.0099-.01Z" style="fill:#fff;"/><path d="M183.3224,33.5187c.05-.26.09-.52.08-.78.04-.33.15-.66.26-.99.29-1.38.59-2.75.88-4.19l.87-4.32c.04-.33.15-.66.25-1.05.14-.85.33-1.77.53-2.62.24-1.24.48-2.49.71-3.79.14-.85.33-1.77.53-2.62.41-2.55,1-5.17,1.61-7.73.08-.72.56-1.27,1.12-1.63.19-.08.31-.22.5-.29.51-.04,1.03-.07,1.54-.11.26-.02.51-.03.77-.05.19-.01.38-.03.58-.04.13,0,.19-.01.32-.02.06,0,.2.05.27.11.27.18.54.42.7.79.21.24.3.56.38.88.11.7.35,1.4.53,2.1.24.63.48,1.32.71,1.95l.74,2.27c.4,1.14.67,2.28,1.01,3.42.16.44.25.89.35,1.33.34,1.14.67,2.28,1.01,3.42.26.95.58,1.9.84,2.85l.76,2.66c.27,1.08.6,2.15.99,3.23.18.7.42,1.39.72,2.08.16.44.32.95.49,1.45-.05.13-.12.2-.17.33-.1.39-.41.61-.8.64-.57.1-1.15.14-1.79.25-.32.02-.7.11-1.02.13-.13,0-.19.01-.32.02-.26.02-.45-.03-.72-.21-.07-.12-.15-.31-.22-.44-.1-.51-.32-.95-.49-1.45-.32-.95-.64-1.83-1.03-2.77v-.19c-.1-.25-.16-.25-.42-.23-.44.16-.9.12-1.4.22l-1.54.1c-.12.07-.25.08-.45.1l-1.67.11c-.45.1-.83.12-1.21.21-.13,0-.32.09-.45.1-.12.2-.17.4-.16.53-.29,1.38-.66,2.63-1.02,3.94-.12.2-.17.4-.42.54-.06,0-.12.14-.18.21-.05.2-.31.21-.5.23h-.13c-.19.01-.26.02-.45.03h-.13c-.2-.04-.45-.03-.65-.01l-2.06.14c-.06,0-.13-.06-.13-.06-.08-.25-.35-.36-.48-.42-.08-.19-.08-.25-.03-.39l-.01.03ZM190.6824,23.9787c.14.12.26.05.39.04l1.86-.13c.19-.01.39-.03.58-.04l1.16-.08c.26-.02.45-.1.7-.11,0-.06.06-.13-.01-.19-.02-.26-.1-.57-.25-.89-.08-.25-.17-.57-.25-.89l-.49-1.52c-.33-1.01-.72-2.08-1.05-3.09-.16-.51-.39-1.01-.43-1.59-.07-.06-.07-.12-.2-.11-.71,2.82-1.36,5.65-2,8.53v.06l-.01.01Z" style="fill:#fff;"/><path d="M219.7424,15.9387c.12.08.19.02.32.04.13.01.26.03.45.05.06,0,.13.01.19.02.06,0,.13.01.19.02.53-.07.97.05,1.49.04.06,0,.13.01.26.03.32.04.78.03,1.1.06.13.01.19.02.26.03.13.01.26-.03.39-.02.25.09.42.31.67.34.16.28.14.47.17.73-.04.9-.21,1.79-.25,2.7-.04.32-.07.64-.24.95-.02.19-.04.32-.06.51s-.17.37-.37.41c-.41.21-1.7.13-2.21.07-.06,0-.07.06-.14.05-.19-.02-.45-.05-.63-.14-.18-.09-.4.08-.59.06-.51-.06-.97-.05-1.48-.11,0,0-.06,0-.13-.01-.16.24-.13.57-.16.82s-.07.58-.11.9c-.07.58-.13,1.15-.2,1.73-.04.32-.01.65-.05.97-.1.31-.07.58-.11.9-.13,1.15-.13,2.25-.27,3.41-.21,1.27-.19,2.77-.6,4.02-.1.31-.17.37-.3.35-.06,0-.25-.09-.43-.18-.19-.02-.38-.04-.58-.07-.32-.04-.77-.09-1.09-.13-.26-.03-.51-.06-.78-.03-.14.05-.33.03-.45.01-.19-.02-.32-.04-.5-.12-.26-.03-.5-.19-.66-.47-.15-.41-.29-.81-.31-1.2-.06-.07-.05-.14-.04-.2.07-.58.13-1.09.13-1.67s.13-1.09.19-1.66c.14-1.22.29-2.5.38-3.78.07-1.16.2-2.31.34-3.46-.01-.46-.02-.91.09-1.35-.03-.33.08-.7.12-1.02-.04-.2-.02-.39.07-.58,0-.06.01-.13.01-.13.04-.9.21-1.79.24-2.63.21-1.79.41-3.52.62-5.31.05-.45.05-.97.1-1.42-.01-.46.1-.83.08-1.22.07-.58.06-1.1.12-1.61.07-.58.13-1.09.19-1.6.05-.45.28-.75.63-.96.22-.17.54-.2.8-.17l.38.04c.13.01.26.03.39-.02.06,0,.13.01.19.02.13.01.26.03.45.05.58.07,1.16.07,1.74.14.19.02.45.05.63.14.18.09.44.12.63.14.32.04.58,0,.9.04.58,0,1.09.06,1.61.06.13.01.33-.03.46-.01.19.02.32.04.45.05s.32.04.46-.01c.06,0,.19.02.26.03.26.03.45.05.7.08.06,0,.19.02.26.03.32.04.58,0,.9.04.06,0,.19.02.32.04.06,0,.13.01.19.02,0,0,.06,0,.13.01.07-.06.14-.05.2-.04.13.01.25.09.37.17.06,0,.12.08.18.09.31.1.41.37.37.69-.02.19-.05.45-.07.64-.04.38-.09.77-.08,1.22-.04.32-.14.63-.11.96-.06.51-.25,1.01-.31,1.52-.09.18-.16.3-.37.35-.41.15-1.18.12-1.57.08-.06-.07-.12-.08-.19-.02-.2.04-.45.01-.65-.01-.06,0-.13-.01-.19-.02-.13-.01-.19-.02-.32-.04s-.26-.03-.33.03l-.38-.04c-.13-.01-.26-.03-.45.01-.58,0-1.16-.07-1.74-.14-.19-.02-.38-.04-.58-.07s-.32-.04-.46.01c-.06,0-.19-.02-.32-.04-.26-.03-.33.03-.36.28-.18,1.54-.37,3.14-.55,4.67-.03.26-.12.5-.03.84h.03Z" style="fill:#fff;"/><path d="M234.9124,30.9287c.23-.8.51-1.53.66-2.29l.96-3.34c.12-.43.2-.95.39-1.36.03-.33.18-.62.29-.99.05-.19.04-.39.16-.56.06.02.08-.04.1-.11.19-.89.48-1.67.73-2.54.48-1.67,1.04-3.39,1.59-5.04.14-.49.21-.95.35-1.44.04-.39.29-.79.28-1.19.2-.48.3-1.05.45-1.55s.3-1.05.51-1.53c.13-.43.4-.69.78-.85.22-.07.55-.04.8.03l.74.21c.08-.04.14-.03.2,0l2.1.61c.19.05.43.12.6.24.17.12.42.19.6.24l.87.25c.57.1,1.07.24,1.58.32l.43.12c.31.09.56.16.88.19l1.18.34c.31.09.56.16.88.19.12.04.31.09.48.2l.12.04c.08-.04.14-.03.2,0,.12.04.23.13.34.23.06.02.11.1.17.12.29.15.33.5.19.73-.05.19-.06.45-.12.64l-.34,1.18c-.09.31-.24.6-.33.91-.08.51-.41.95-.55,1.45-.12.17-.21.27-.42.28-.42.08-.92-.06-1.29-.17l-.43-.12c-.08.04-.2,0-.33-.03l-.8-.23c-.12-.04-.25-.07-.33-.03l-.8-.23c-.57-.1-1.13-.26-1.69-.42l-.99-.29c-.08.04-.2,0-.33-.03-.23-.13-.33-.03-.38.16-.51,1.53-.94,3.02-1.44,4.55-.07.25-.2.48-.21.74.11.1.23.13.35.17l.8.23c.53.02.95.21,1.46.29.12.04.17.11.29.15.31.09.65.05.96.14l.68.2c.23.13.36.37.59.51.13.24.08.42,0,.67-.19.88-.5,1.73-.77,2.66-.09.31-.18.62-.33.91-.1.11-.15.29-.19.42-.07.25-.23.34-.45.41-.2,0-.41.02-.59-.04-.25-.07-.49-.14-.82-.17-.25-.07-.5-.14-.76-.15l-.12-.04c-.25-.07-.43-.12-.6-.24-.25-.07-.41.02-.65-.05l-1.36-.39c-.04-.0133-.0867-.0033-.14.03-.18.15-.27.46-.34.71l-1,3.47c-.15.29-.24.6-.33.91l-.48,1.67c.03.14.09.16.15.18.74.21,1.42.41,2.18.56.39.04.76.15,1.13.26l.25.07c.08-.04.14-.03.2,0,.06.02.19.05.23.13l.25.07c.2,0,.45.06.64.12l1.49.43c.08-.04.2,0,.27,0,.25.07.36.37.61.44l.13.24c.03.14.05.28-.04.39l-.79,2.72c-.14.5-.41.96-.55,1.45-.11.17-.21.27-.42.28-.42.08-.92-.06-1.35-.19l-.37-.11c-.2,0-.39-.04-.58-.1l-.74-.21c-.34.04-.64-.12-.96-.14l-2.29-.66c-.12-.04-.25-.07-.33-.03l-.68-.2c-.23-.13-.54-.22-.83-.37l-.12-.04c-.2,0-.47,0-.65-.05l-1.61-.46c-.14.03-.33-.03-.45-.06-.19-.05-.31-.09-.48-.2-.25-.07-.5-.35-.56-.63-.1-.36-.18-.79-.11-1.24l.05-.19c.14-.5.3-1.05.4-1.63l.45-1.55c.12-.43.33-.91.45-1.34v-.04ZM244.8024,6.1487c.05-.19.15-.29.23-.34.35-.5.82-.97,1.29-1.44.82-.77,1.79-1.56,2.62-2.33.71-.6,1.2-1.13,1.81-1.62.02-.06.1-.11.18-.15.27-.26.56-.31.8-.24.19.05.35.17.5.35.21.2.34.44.49.61.34.43.57,1.04.84,1.51.15.18.16.38.21.66-.11.37-1.13.68-1.5.78-.22.07-.46.2-.76.32-1.08.49-2.33.87-3.49,1.41-.48.26-1.14.48-1.74.7-.06-.02-.08.04-.18.15-.26.19-.52.18-.85.16-.14.03-.27,0-.39-.04-.19-.05-.19-.26-.06-.49h0Z" style="fill:#fff;"/><path d="M3.6624,119.8687h-1.24v-1.96h1.24v-.15c0-2.22,1.56-3.39,4.44-3.39.43,0,.88.02,1.3.09l-.23,2.24c-.15,0-.3-.02-.45-.02-.68,0-2.2.15-2.2,1.09l.02.15h2.84v1.96h-2.86l.02,9.94h-2.86l-.02-9.94v-.01Z" style="fill:#fff;"/><path d="M10.3224,123.9287c0-2.67,1.3-4.95,4.74-5.89.66-.17,1.52-.32,2.2-.32h.7c.9,0,2.01.21,2.82.49,3.05,1.04,4.12,3.26,4.12,5.72,0,2.58-1.22,4.8-4.5,5.8-.68.19-1.71.38-2.43.38h-.7c-.7,0-1.77-.21-2.43-.41-3.27-1-4.5-3.2-4.5-5.78l-.02.01ZM17.6024,127.7487c2.95,0,4.29-1.88,4.29-3.78v-.04c-.04-.66-.11-1.28-.43-1.86-.7-1.26-2.43-1.98-3.86-1.98-2.28,0-4.27,1.39-4.27,3.84,0,.45.11.92.26,1.32.56,1.47,1.84,2.5,4.01,2.5Z" style="fill:#fff;"/><path d="M26.9124,123.9287c0-2.67,1.3-4.95,4.74-5.89.66-.17,1.52-.32,2.2-.32h.7c.9,0,2.01.21,2.82.49,3.05,1.04,4.12,3.26,4.12,5.72,0,2.58-1.22,4.8-4.5,5.8-.68.19-1.71.38-2.43.38h-.7c-.7,0-1.77-.21-2.43-.41-3.27-1-4.5-3.2-4.5-5.78l-.02.01ZM34.1924,127.7487c2.95,0,4.29-1.88,4.29-3.78v-.04c-.04-.66-.11-1.28-.43-1.86-.7-1.26-2.43-1.98-3.86-1.98-2.28,0-4.27,1.39-4.27,3.84,0,.45.11.92.26,1.32.56,1.47,1.84,2.5,4.01,2.5Z" style="fill:#fff;"/><path d="M57.0924,114.8987l-.04,14.89-2.99.02.6-2.99c-.9,1.86-2.97,3.03-5.64,3.03-3.54,0-5.42-2.28-5.42-5.78,0-2.92,1.15-6.17,5.53-6.17,3.22,0,5,1.9,5.74,4.22l-.13-1.17c-.21-2.03-.43-4.03-.62-6.06h2.97v.01ZM50.3724,120.4087h-.13c-2.2,0-3.74,1.32-3.74,3.63,0,.38.11.77.23,1.11.49,1.32,1.67,2.22,3.61,2.22,2.11,0,3.74-1.45,3.74-3.65,0-1.77-1.09-3.31-3.71-3.31Z" style="fill:#fff;"/><path d="M65.5024,122.3687c0-.85.66-1.88,1.79-1.88s1.79,1.02,1.79,1.88-.64,1.86-1.79,1.86-1.79-1.02-1.79-1.86Z" style="fill:#fff;"/><path d="M80.8324,130.9287c.9.87,2.52,1.37,3.93,1.37,2.03,0,3.59-.94,3.86-2.5.04-.17.04-.34.06-.51l.23-3.48c-.58,2.9-2.6,4.14-5.76,4.14-.96,0-1.84-.11-2.69-.55-2.26-1.13-2.84-3.48-2.84-5.46,0-3.62,1.9-5.99,5.55-5.99,3.46,0,4.95,1.49,5.91,4.29l-.88-4.25h3.01v11.41c-.04,1.04-.26,2.22-.9,3.14-1.07,1.58-2.99,2.47-5.32,2.5l-.21-.02c-.85-.02-1.64-.06-2.43-.23-1.71-.38-3.48-1.34-4.23-2.58l2.69-1.26.02-.02ZM84.2924,127.4287c2.92,0,3.89-1.52,3.89-3.48v-.19c0-1.92-1.15-3.31-3.89-3.31s-3.71,1.81-3.71,3.48,1.05,3.5,3.71,3.5Z" style="fill:#fff;"/><path d="M93.5524,114.7287c0-.9.7-2.01,1.94-2.01s1.94,1.11,1.94,2.01-.68,2.03-1.94,2.03-1.94-1.11-1.94-2.03ZM93.9424,117.8687h2.97v11.95h-2.97v-11.95Z" style="fill:#fff;"/><path d="M100.3424,119.8687h-1.24v-1.96h1.24v-.15c0-2.22,1.56-3.39,4.44-3.39.43,0,.88.02,1.3.09l-.23,2.24c-.15,0-.3-.02-.45-.02-.68,0-2.2.15-2.2,1.09l.02.15h2.84v1.96h-2.86l.02,9.94h-2.86l-.02-9.94v-.01Z" style="fill:#fff;"/><path d="M115.0324,129.8187h-2.39c-2.37,0-3.33-1.94-3.33-3.56v-6.34h-1.24v-1.98l1.24-.02v-3.01h2.86v3.03h2.86v1.98h-2.84v5.67c0,1.02.15,1.77,1.86,1.77.32,0,.66-.02.98-.02v2.48Z" style="fill:#fff;"/><path d="M119.4024,125.9987c.9.88,2.33,1.47,3.82,1.47.77,0,3.14-.17,3.14-1.26,0-.96-2.58-1.28-3.29-1.34-.79-.09-1.56-.17-2.26-.28-1.86-.34-3.56-.9-3.56-3.16,0-2.49,2.41-3.75,5.57-3.75h.15c.75.02,1.43.06,2.11.23,1.64.38,3.22,1.39,3.88,2.6l-2.54,1.13c-.68-.85-2.07-1.49-3.42-1.49-.9,0-2.8.11-2.8,1.34,0,.49.64.79,1.22.98.62.19,1.32.28,1.73.34,3.01.34,6.06.71,6.06,3.39s-2.82,3.78-6.06,3.78h-.19c-.73-.02-1.41-.06-2.11-.23-1.67-.41-3.22-1.39-4.01-2.58,0,0,2.56-1.17,2.56-1.17Z" style="fill:#fff;"/><path d="M137.6524,122.3687c0-.85.66-1.88,1.79-1.88s1.79,1.02,1.79,1.88-.64,1.86-1.79,1.86-1.79-1.02-1.79-1.86Z" style="fill:#fff;"/><path d="M149.8424,117.8887h3.12l3.27,9.17,3.27-9.17h3.24l3.27,9.17,3.29-9.17h3.1l-4.61,11.93h-3.56l-3.1-7.98-3.1,7.98h-3.56l-4.61-11.93h-.02Z" style="fill:#fff;"/><path d="M173.8024,114.7287c0-.9.7-2.01,1.94-2.01s1.94,1.11,1.94,2.01-.68,2.03-1.94,2.03-1.94-1.11-1.94-2.03ZM174.1824,117.8687h2.97v11.95h-2.97v-11.95Z" style="fill:#fff;"/><path d="M180.0324,129.7487v-11.86h2.99l-.36,3.14c.66-1.79,3.03-3.18,5.53-3.18,4.01,0,5.36,3.11,5.38,5.8v6.17h-2.92v-6.12c-.02-1.64-1.2-3.35-3.69-3.35-2.73,0-3.91,1.37-3.91,3.31v6.12l-3.01-.02-.01-.01Z" style="fill:#fff;"/><path d="M209.6224,124.0287l-10.76.21v.17c-.02,1.81,1.88,2.73,4.06,2.73,1.24,0,2.84-.38,3.67-1.2l2.71,1.28c-1,1.11-2.84,2.11-4.5,2.47-.62.13-1.17.17-1.81.21-3.93,0-7.22-1.73-7.22-6.08s3.67-6.06,7.56-6.06c3.16,0,6.3,1.3,6.3,4.99v1.26l-.01.02ZM198.9624,122.8387l7.86-.23v-.15c0-1.71-1.77-2.3-3.67-2.3s-4.18.6-4.18,2.39v.3l-.01-.01Z" style="fill:#fff;"/><path d="M220.5724,125.9987c.9.88,2.33,1.47,3.82,1.47.77,0,3.14-.17,3.14-1.26,0-.96-2.58-1.28-3.29-1.34-.79-.09-1.56-.17-2.26-.28-1.86-.34-3.56-.9-3.56-3.16,0-2.49,2.41-3.75,5.57-3.75h.15c.75.02,1.43.06,2.11.23,1.64.38,3.22,1.39,3.88,2.6l-2.54,1.13c-.68-.85-2.07-1.49-3.42-1.49-.9,0-2.8.11-2.8,1.34,0,.49.64.79,1.22.98.62.19,1.32.28,1.73.34,3.01.34,6.06.71,6.06,3.39s-2.82,3.78-6.06,3.78h-.19c-.73-.02-1.41-.06-2.11-.23-1.67-.41-3.22-1.39-4.01-2.58l2.56-1.17h0Z" style="fill:#fff;"/><path d="M232.6724,129.7487v-14.85h2.99l-.75,7.1c.34-1.43,1.9-4.16,5.29-4.16,4.23,0,5.93,2.9,5.93,5.84v6.12h-2.9c0-2.03,0-4.05-.02-6.1,0-1.62-1.17-3.31-3.67-3.31-2.71,0-3.88,1.34-3.88,3.29v6.08l-2.99-.02v.01Z" style="fill:#fff;"/><path d="M248.4024,123.9287c0-2.67,1.3-4.95,4.74-5.89.66-.17,1.52-.32,2.2-.32h.7c.9,0,2.01.21,2.82.49,3.05,1.04,4.12,3.26,4.12,5.72,0,2.58-1.22,4.8-4.5,5.8-.68.19-1.71.38-2.43.38h-.7c-.7,0-1.77-.21-2.43-.41-3.27-1-4.5-3.2-4.5-5.78l-.02.01ZM255.6824,127.7487c2.95,0,4.29-1.88,4.29-3.78v-.04c-.04-.66-.11-1.28-.43-1.86-.7-1.26-2.43-1.98-3.86-1.98-2.28,0-4.27,1.39-4.27,3.84,0,.45.11.92.26,1.32.56,1.47,1.84,2.5,4.01,2.5Z" style="fill:#fff;"/><path d="M265.2424,132.8887l.04-14.89,2.99-.02-.6,3.01c.9-1.86,2.95-3.05,5.64-3.05,3.54,0,5.42,2.28,5.42,5.78,0,2.92-1.15,6.14-5.53,6.14-3.22,0-5.14-1.15-5.74-3.35.26,2.41.51,3.97.77,6.38h-2.99ZM271.9724,127.3787h.13c2.2,0,3.74-1.32,3.74-3.63,0-.38-.11-.77-.23-1.11-.49-1.32-1.67-2.22-3.61-2.22-2.13,0-3.74,1.43-3.74,3.65,0,1.77,1.09,3.31,3.71,3.31Z" style="fill:#fff;"/></g></g></svg>