<svg xmlns="http://www.w3.org/2000/svg" viewBox="0 0 80 80"><defs><style>.cls-1{fill:#231f20;}</style></defs><g id="Layer_28" data-name="Layer 28"><path class="cls-1" d="M40.58,70.39A30.39,30.39,0,1,1,71,40,30.43,30.43,0,0,1,40.58,70.39Zm0-60.18A29.79,29.79,0,1,0,70.37,40,29.83,29.83,0,0,0,40.58,10.21Z"/><path class="cls-1" d="M40.58,58a18,18,0,1,1,18-18A18.06,18.06,0,0,1,40.58,58Zm0-35.48A17.44,17.44,0,1,0,58,40,17.46,17.46,0,0,0,40.58,22.56Z"/><path class="cls-1" d="M30,46a.14.14,0,0,1-.13-.08,12.19,12.19,0,0,1-.12-11.53.16.16,0,0,1,.21-.07.16.16,0,0,1,.06.21,11.87,11.87,0,0,0,.11,11.24.16.16,0,0,1-.06.21Z"/><path class="cls-1" d="M40.57,52.22A12.22,12.22,0,0,1,31.33,48a.16.16,0,0,1,0-.21.15.15,0,0,1,.21,0,11.91,11.91,0,0,0,17.4.66.15.15,0,0,1,.21.21A12.1,12.1,0,0,1,40.57,52.22Z"/><path class="cls-1" d="M51.33,45.62l-.07,0a.15.15,0,0,1-.07-.2,11.63,11.63,0,0,0,1.3-5.4A12,12,0,0,0,42.31,28.2a.14.14,0,0,1-.13-.17.15.15,0,0,1,.17-.12A12.28,12.28,0,0,1,52.79,40a12.1,12.1,0,0,1-1.33,5.54A.16.16,0,0,1,51.33,45.62Z"/><path class="cls-1" d="M32,31.65a.14.14,0,0,1-.1,0,.14.14,0,0,1,0-.21A12.06,12.06,0,0,1,38.47,28a.15.15,0,0,1,.05.29,11.89,11.89,0,0,0-6.4,3.35A.16.16,0,0,1,32,31.65Z"/><path class="cls-1" d="M40.58,67.06A27.06,27.06,0,1,1,67.64,40,27.09,27.09,0,0,1,40.58,67.06Zm0-53.82A26.76,26.76,0,1,0,67.33,40,26.79,26.79,0,0,0,40.58,13.24Z"/><path class="cls-1" d="M49.74,62.58H31.41A1.6,1.6,0,0,1,29.8,61V54.2a.16.16,0,0,1,.16-.15.15.15,0,0,1,.15.15V61a1.3,1.3,0,0,0,1.3,1.3H49.74A1.3,1.3,0,0,0,51,61V54.2a.15.15,0,0,1,.15-.15.15.15,0,0,1,.15.15V61A1.59,1.59,0,0,1,49.74,62.58Z"/><path class="cls-1" d="M51.19,26A.16.16,0,0,1,51,25.8V19a1.3,1.3,0,0,0-1.3-1.29H31.41A1.3,1.3,0,0,0,30.11,19V25.8A.16.16,0,0,1,30,26a.16.16,0,0,1-.16-.16V19a1.6,1.6,0,0,1,1.61-1.59H49.74A1.59,1.59,0,0,1,51.34,19V25.8A.15.15,0,0,1,51.19,26Z"/><path class="cls-1" d="M37.45,62.58a.15.15,0,0,1-.15-.15v-5a.15.15,0,1,1,.3,0v5A.15.15,0,0,1,37.45,62.58Z"/><path class="cls-1" d="M37.45,22.69a.15.15,0,0,1-.15-.15v-5a.15.15,0,1,1,.3,0v5A.15.15,0,0,1,37.45,22.69Z"/><path class="cls-1" d="M5.29,65.09a1.93,1.93,0,0,1-1.41-.64A3.68,3.68,0,0,1,3,61.85L3.6,36.51a.3.3,0,0,1,.3-.29h0a.3.3,0,0,1,.29.31L3.57,61.87A3,3,0,0,0,4.31,64a1.28,1.28,0,0,0,1.94,0A3,3,0,0,0,7,61.87L6.38,36.53a.29.29,0,0,1,.29-.31h0a.29.29,0,0,1,.3.29L7.6,61.85a3.65,3.65,0,0,1-.92,2.61A2,2,0,0,1,5.29,65.09Z"/><path class="cls-1" d="M3.9,36.82h0a.3.3,0,0,1-.29-.31,2.61,2.61,0,0,0-1.09-2.46A4.38,4.38,0,0,1,1,31.86c-1.28-4,1.53-13.76,1.65-14.18a.3.3,0,0,1,.58.09v9.1a.51.51,0,0,0,.5.5.4.4,0,0,0,.4-.37L5,17.54a.3.3,0,0,1,.59,0L6.41,27a.41.41,0,0,0,.41.37.5.5,0,0,0,.49-.5v-9.1a.3.3,0,0,1,.26-.3.31.31,0,0,1,.33.21c.12.42,2.92,10.18,1.64,14.18a4.38,4.38,0,0,1-1.48,2.19A2.65,2.65,0,0,0,7,36.51a.29.29,0,0,1-.29.31.3.3,0,0,1-.31-.29,3.21,3.21,0,0,1,1.29-2.92A3.9,3.9,0,0,0,9,31.69c.86-2.7-.29-8.4-1.06-11.58v6.76A1.09,1.09,0,0,1,6.82,28a1,1,0,0,1-1-.92l-.52-6-.53,6a1,1,0,0,1-1,.92,1.1,1.1,0,0,1-1.1-1.1V20.11C1.89,23.28.74,29,1.61,31.68a3.82,3.82,0,0,0,1.31,1.93A3.23,3.23,0,0,1,4.2,36.53.3.3,0,0,1,3.9,36.82Z"/><path class="cls-1" d="M5.31,62.59a1,1,0,0,1-1-1,.15.15,0,0,1,.15-.15.15.15,0,0,1,.15.15.71.71,0,1,0,1.42,0,.15.15,0,0,1,.15-.15.15.15,0,0,1,.15.15A1,1,0,0,1,5.31,62.59Z"/><path class="cls-1" d="M6.15,34.06A.15.15,0,0,1,6,33.91a.72.72,0,1,0-1.43,0,.15.15,0,1,1-.3,0,1,1,0,1,1,2,0A.15.15,0,0,1,6.15,34.06Z"/><path class="cls-1" d="M76.11,65.09a1.92,1.92,0,0,1-1.4-.64,3.59,3.59,0,0,1-.91-2.6L74.21,45a.3.3,0,0,1,.3-.29h0a.31.31,0,0,1,.29.31L74.4,61.87A3,3,0,0,0,75.13,64a1.3,1.3,0,0,0,2,0,3,3,0,0,0,.74-2.16L77.41,45l.6,0h0l.41,16.82a3.63,3.63,0,0,1-.9,2.6A2,2,0,0,1,76.11,65.09Z"/><path class="cls-1" d="M77.71,45.35h-3.2a.33.33,0,0,1-.24-.12C72,42.09,72.35,30.79,73.12,24.4c.56-4.67,2.62-6.58,4.25-7.37a1.3,1.3,0,0,1,1.28.08,1.28,1.28,0,0,1,.6,1.12c-.1,4.72,0,17.91,0,20.59A18.66,18.66,0,0,1,78,45.16.29.29,0,0,1,77.71,45.35Zm-3-.6H77.5a18.05,18.05,0,0,0,1.2-5.92c-.06-2.69-.15-15.88,0-20.61a.69.69,0,0,0-.32-.61.73.73,0,0,0-.7,0c-1.49.72-3.39,2.5-3.91,6.9C72.77,32.35,72.88,42,74.67,44.75Z"/><path class="cls-1" d="M75.56,62h0a.16.16,0,0,1-.14-.16l.51-14.79a.91.91,0,0,1,.9-.86h.92a.16.16,0,0,1,.15.16.15.15,0,0,1-.15.15h-.92a.59.59,0,0,0-.6.56l-.51,14.79A.15.15,0,0,1,75.56,62Z"/><path class="cls-1" d="M75.3,40.56a.16.16,0,0,1-.15-.11c-.5-2.33-.81-12.47,0-16.34s3.76-3.87,3.78-3.88a.15.15,0,0,1,.14.16.14.14,0,0,1-.16.14c-.1,0-2.68-.11-3.47,3.64-.84,4-.44,14.16,0,16.21a.15.15,0,0,1-.11.18Z"/><path class="cls-1" d="M76.24,28.65a.15.15,0,0,1-.11,0,.18.18,0,0,1,0-.22l1.15-1.14a.15.15,0,0,1,.21.21l-1.14,1.15A.15.15,0,0,1,76.24,28.65Z"/><path class="cls-1" d="M76.24,30.55a.16.16,0,0,1-.11-.05.17.17,0,0,1,0-.21l1.15-1.14a.15.15,0,0,1,.21.21L76.35,30.5A.16.16,0,0,1,76.24,30.55Z"/><path class="cls-1" d="M76.24,32.44a.15.15,0,0,1-.11,0,.17.17,0,0,1,0-.21L77.28,31a.17.17,0,0,1,.21,0,.16.16,0,0,1,0,.22L76.35,32.4A.15.15,0,0,1,76.24,32.44Z"/><path class="cls-1" d="M52,48.71a.13.13,0,0,1-.1,0,55.5,55.5,0,0,0-6.07-5C42,40.85,38.14,37.83,38.1,37.8a.16.16,0,0,1,0-.21.15.15,0,0,1,.21,0s3.89,3,7.73,5.84a53.26,53.26,0,0,1,6.11,5.06.15.15,0,0,1,0,.21A.15.15,0,0,1,52,48.71Z"/><path class="cls-1" d="M36.09,38a7.18,7.18,0,0,1-5-1.65A7.08,7.08,0,0,1,29,31.14a.14.14,0,0,1,.05-.1s.07-.06.11,0c.24,0,5.89.31,7.74,2.5a5.11,5.11,0,0,1,1.42,4.21.15.15,0,0,1-.12.12A14.74,14.74,0,0,1,36.09,38Zm-6.77-6.69a6.88,6.88,0,0,0,2,4.82c1.51,1.36,3.78,1.84,6.75,1.42a5.09,5.09,0,0,0-1.38-3.85C35.09,31.8,30.25,31.37,29.32,31.31Zm8.88,6.37Z"/><path class="cls-1" d="M41.41,40.3a.15.15,0,0,1-.14-.09,18,18,0,0,1-1.06-9.4.16.16,0,0,1,.18-.12.15.15,0,0,1,.12.17,17.76,17.76,0,0,0,1,9.23.15.15,0,0,1-.08.2Z"/><path class="cls-1" d="M43.42,41.82h-.06a16.68,16.68,0,0,0-8.39-1,.14.14,0,0,1-.17-.12.15.15,0,0,1,.12-.18,17.07,17.07,0,0,1,8.56,1,.15.15,0,0,1,.08.2A.16.16,0,0,1,43.42,41.82Z"/><path class="cls-1" d="M40.43,36.88a.18.18,0,0,1-.1,0,5.26,5.26,0,0,1-2-3.85,6.65,6.65,0,0,1,1.94-4.43.14.14,0,0,1,.19,0s3.92,2.91.1,8.26a.14.14,0,0,1-.1.07Zm0-8A6.38,6.38,0,0,0,38.62,33,4.91,4.91,0,0,0,40.4,36.5C43.59,31.91,41,29.35,40.38,28.87Z"/><path class="cls-1" d="M33.74,42.61a4.9,4.9,0,0,1-.77-.07,4.47,4.47,0,0,1-2.89-2,.15.15,0,0,1,.05-.2c5.33-3.64,8.16,0,8.19.06a.16.16,0,0,1,0,.21A7.49,7.49,0,0,1,33.74,42.61Zm-3.32-2.06A4.21,4.21,0,0,0,33,42.24c1.48.28,3.15-.31,4.95-1.73C37.48,39.93,35,37.52,30.42,40.55Z"/><path class="cls-1" d="M48.9,46a.14.14,0,0,1-.12-.06c-.17-.23-4.21-5.64-4.09-10a.15.15,0,0,1,.15-.15h0a.16.16,0,0,1,.15.16c-.11,4.26,4,9.76,4,9.82a.16.16,0,0,1,0,.21Z"/><path class="cls-1" d="M49.67,46.59l-.06,0c-.06,0-5.61-2.29-10.39-1.24a.16.16,0,0,1-.18-.12.13.13,0,0,1,.11-.17C44,44,49.67,46.27,49.73,46.3a.15.15,0,0,1,.08.19A.16.16,0,0,1,49.67,46.59Z"/><path class="cls-1" d="M46,41,46,41a5,5,0,0,1-2.83-3.38A6.25,6.25,0,0,1,44.58,33a.15.15,0,0,1,.21,0s3.84,2.93,1.37,8a.13.13,0,0,1-.09.07Zm-1.31-7.71a5.9,5.9,0,0,0-1.29,4.25A4.65,4.65,0,0,0,46,40.63C48,36.35,45.33,33.79,44.72,33.28Z"/><path class="cls-1" d="M38,47.22a8.91,8.91,0,0,1-3.87-1,.13.13,0,0,1-.07-.1.17.17,0,0,1,0-.12,6,6,0,0,1,4.17-2.63,5.67,5.67,0,0,1,3.94,1.43.14.14,0,0,1,0,.19A4.83,4.83,0,0,1,38,47.22ZM34.43,46a8.79,8.79,0,0,0,2.72.84,4.67,4.67,0,0,0,4.74-1.94,5.34,5.34,0,0,0-3.62-1.27A5.59,5.59,0,0,0,34.43,46Z"/><path class="cls-1" d="M38.2,37.83a.17.17,0,0,1-.1,0s-4.41-3.54-6.36-4.28a.16.16,0,0,1-.09-.2.16.16,0,0,1,.19-.09c2,.77,6.27,4.19,6.45,4.33a.15.15,0,0,1,0,.21A.14.14,0,0,1,38.2,37.83Z"/><path class="cls-1" d="M31.42,57.41a.2.2,0,0,0,0-.4.2.2,0,0,0,0,.4Z"/><path class="cls-1" d="M33.23,58a.2.2,0,0,0,0-.4.2.2,0,0,0,0,.4Z"/><path class="cls-1" d="M33.28,59.56a.2.2,0,0,0,0-.4.2.2,0,0,0,0,.4Z"/><path class="cls-1" d="M31.48,59.22a.2.2,0,0,0,0-.4.2.2,0,0,0,0,.4Z"/><path class="cls-1" d="M31.42,60.74a.2.2,0,0,0,0-.4.2.2,0,0,0,0,.4Z"/><path class="cls-1" d="M49.68,57.36a.2.2,0,0,0,0-.4.2.2,0,0,0,0,.4Z"/><path class="cls-1" d="M47.14,60.74a.2.2,0,0,0,0-.4.2.2,0,0,0,0,.4Z"/><path class="cls-1" d="M49.67,59.05a.2.2,0,0,0,0-.4.2.2,0,0,0,0,.4Z"/><path class="cls-1" d="M49.8,60.74a.2.2,0,0,0,0-.4.2.2,0,0,0,0,.4Z"/><path class="cls-1" d="M48.45,60.74a.2.2,0,0,0,0-.4.2.2,0,0,0,0,.4Z"/><path class="cls-1" d="M49.68,22.75a.2.2,0,0,0,0-.4.2.2,0,0,0,0,.4Z"/><path class="cls-1" d="M46.68,19.4a.2.2,0,0,0,0-.4.2.2,0,0,0,0,.4Z"/><path class="cls-1" d="M49.57,20.89a.2.2,0,0,0,0-.4.2.2,0,0,0,0,.4Z"/><path class="cls-1" d="M47.94,20.44a.2.2,0,0,0,0-.4.2.2,0,0,0,0,.4Z"/><path class="cls-1" d="M41.64,37.15a.2.2,0,0,0,0-.4.2.2,0,0,0,0,.4Z"/><path class="cls-1" d="M43.21,30a.2.2,0,0,0,0-.4.2.2,0,0,0,0,.4Z"/><path class="cls-1" d="M44.43,30.2a.2.2,0,0,0,0-.4.2.2,0,0,0,0,.4Z"/><path class="cls-1" d="M43.42,31.22a.2.2,0,0,0,0-.4.2.2,0,0,0,0,.4Z"/><path class="cls-1" d="M42.09,38.63a.2.2,0,0,0,0-.4.2.2,0,0,0,0,.4Z"/><path class="cls-1" d="M49.57,44.5a.2.2,0,0,0,0-.4.2.2,0,0,0,0,.4Z"/><path class="cls-1" d="M42.58,46.66a.2.2,0,0,0,0-.4.2.2,0,0,0,0,.4Z"/><path class="cls-1" d="M44,47a.2.2,0,0,0,0-.4.2.2,0,0,0,0,.4Z"/><path class="cls-1" d="M30,42.66a.2.2,0,0,0,0-.4.2.2,0,0,0,0,.4Z"/><path class="cls-1" d="M50.67,49.16a.2.2,0,0,0,0-.4.2.2,0,0,0,0,.4Z"/><path class="cls-1" d="M49.8,49.88a.2.2,0,0,0,0-.4.2.2,0,0,0,0,.4Z"/><path class="cls-1" d="M31.42,23.56a.2.2,0,0,0,0-.4.2.2,0,0,0,0,.4Z"/><path class="cls-1" d="M31.42,22a.2.2,0,0,0,0-.4.2.2,0,0,0,0,.4Z"/><path class="cls-1" d="M30.21,37.15a.2.2,0,0,0,0-.4.2.2,0,0,0,0,.4Z"/><path class="cls-1" d="M30.72,38.05a.2.2,0,0,0,0-.4.2.2,0,0,0,0,.4Z"/><path class="cls-1" d="M29.67,38.63a.2.2,0,0,0,0-.4.2.2,0,0,0,0,.4Z"/><path class="cls-1" d="M41.64,47.38a.2.2,0,0,0,0-.4.2.2,0,0,0,0,.4Z"/><path class="cls-1" d="M49.57,43.32a.2.2,0,0,0,0-.4.2.2,0,0,0,0,.4Z"/><path class="cls-1" d="M48.45,43.32a.2.2,0,0,0,0-.4.2.2,0,0,0,0,.4Z"/><path class="cls-1" d="M49.57,19.4a.2.2,0,0,0,0-.4.2.2,0,0,0,0,.4Z"/><path class="cls-1" d="M31.42,19.4a.2.2,0,0,0,0-.4.2.2,0,0,0,0,.4Z"/><path class="cls-1" d="M77.35,35.27a.2.2,0,0,0,0-.4.2.2,0,0,0,0,.4Z"/><path class="cls-1" d="M77.35,37.75a.2.2,0,0,0,0-.4.2.2,0,0,0,0,.4Z"/><path class="cls-1" d="M77.47,39.61a.2.2,0,0,0,0-.4.2.2,0,0,0,0,.4Z"/><path class="cls-1" d="M5.35,60a.2.2,0,0,0,0-.4.2.2,0,0,0,0,.4Z"/><path class="cls-1" d="M5.35,57.86a.2.2,0,0,0,0-.4.2.2,0,0,0,0,.4Z"/><path class="cls-1" d="M5.35,55.61a.2.2,0,0,0,0-.4.2.2,0,0,0,0,.4Z"/></g></svg>