<?xml version="1.0" encoding="UTF-8"?><svg id="Layer_1" xmlns="http://www.w3.org/2000/svg" viewBox="0 0 758 208.7"><defs><style>.cls-1{fill:#000;}.cls-1,.cls-2,.cls-3{stroke-width:0px;}.cls-2{fill:#e56e89;}.cls-3{fill:#231f20;}</style></defs><path class="cls-2" d="M186.7,144c-2.6-1.6-6.6-4.4-9.3-6-2.6-3-5.3-4.8-7-7.6,0,0,0-1-1-1-1.2-5-3.4-12.2-3.2-19.6,1.7-13.8,3.9-27.8,10-39.9,4.2-9.2,8.8-16.2,12.7-21.8.9-1.6,2.9-3.6,4.6-5,3.6-2.8,7-8,12.1-12,2.4-.2,6.8-6.4,8.5-6.4,0,0,3.1,0,4.8-1.4h-1.7c3.4-2.8,10.7-4.4,18.7-5.8,8.7-1.4,10.9-.2,16.1-.2s13.8,3.2,18.3,9.4c.7,1.2,1.5,3,1.2,5.6.7,2.8-.9,5.8-.9,7.8-1.5,2.4-2.9,7.4-5.4,8.8-3.2,1.6-5.1,2.2-6.5,4-1.4,0-2.2.6-3.7.6,1.7-4.4,5.9-9.6,5.9-13.8,1.4-3,2-7.6,2-9.2-1-6-5.8-10-11.5-11-7.3-1.4-11.7,2-16,2-2.4,1-4.4,2.6-5.3,3-4.4,1.8-6.1,5-10,7.8l-1.5,1.4c-3.2,1.4-4.6,3-6.4,3-.9,2.8-3.6,4.4-5.4,6.4-2.4,1.8-5.9,11.2-8.3,11.2-1.4,1-3.2,4.2-4.2,6.2-4.4,3.8-6.3,10.2-10.2,15.8-1.7,2.6-5.6,15.6-6.6,19.8-1.2,3.2-2.4,9.4-2.6,12.6l-1.4-1.6c-1.4,2.6-.3,7.4,1,8.8l-.2,3.4c0,4.2.5,4.6,1.2,5.6,0,1.8.7,4.6.7,5.6,2.6,6.4,15.8,11,25.6,8.4,3.1.4,5.4-1.4,8.8-2.6,3.2-1.2,8.8-2,12.2-4,8.3-5,7.8-4,13.4-8,6.4-3.2,8.8-5.4,14.3-10.2,4.1-4.4,7.3-8,8.7-10-.2,2.8-7.1,13-10.2,17.4-2.7,3.8-5.8,5.6-8.8,9.2-3.1,2-3.9,3.8-6.8,4.4-3.6,4.6-6.1,3.2-6.6,5.4-3.9-.4-4.6,1.2-5.8,2.4l-3.2-.4c-1.2,1.2-6.8,1.6-8.3,2l-3.7.8c-3.4.8-7.1.4-10.2,0-1.2-1.6-7.6-1.2-8.8-1.2h0l-.1-.1Z"/><path class="cls-2" d="M292.2,141.2c-5.1-4.6-4.9-15.8,0-27.2-3.6,4.4-5.1,7-7.5,10.4,0,1.6-1,.6-2.7,3.6l-1.5,1.4c-1.7,1.8-5.3,1.8-6.8,4.8-5.1,4.4-15.5,1.4-16.6-3-1.2-12.2,3.7-18.4,6.1-26.8,3.2-4.6,4.2-9.2,7.5-15.2,2.9-5.2,4.8-9.6,4.2-14.6-.2-1.6-1-2.6-1.2-3,3.7-.8,10.7,2,10.5,5.4-1.4,10.6-6.3,16.4-9.5,25.6-1.7,1.8-3.7,4-3.7,7-3,4.6-7.1,14.6-7.1,20.4,5.3,0,9-3.8,14.3-5.4,1.4-4.8,6.1-4.8,11-11,3.9-7.2,4.9-9.6,8.1-14,1.5-3,2.5-6,3.6-7.8,2-3,3.1-6.4,4.4-9.8,1-2.6,1.7-3.8,2-5,.7-1.8.9-2.6,1-3.4,1.7,0,8.3,2,8.7,3.8.2,1.4-.3,3.8-.9,5.2l-.9,1.6-2.5,5c-.9,1.2-2.4,3-2.4,4.2-1.7,2-1.5,5-3,6.4-1.9,2.8-5.1,7.8-4.8,10.8-1.7,1.2,0,3.2-1.7,3.2v3c-1.2,3.8-2.4,6.4-2.9,10.4-.9,5-1.7,14.4,3.7,17.2-3.6,0-5.8-1.2-9.5-3.2h.1Z"/><path class="cls-2" d="M372,87.3c.2,1.8-1.4,6-1.4,6l-1.2,4-1.5,2.2-4.1,6c-2.5,4.6-4.8,7.6-6.5,10.6-3.1,3-6.3,7.4-9.3,9-4.6,4.4-9.3,7.2-13.9,11.6-3.2,1.6-5.4,3.2-8,3.4-4.2-.8-5.3-1.2-8.7-3.8-.5,1.4-1,2.4-1.5,3.6-1.4,4.4-2.5,9.4-3.7,12-1.4,3.2-2.7,7.6-3.9,10.6,0,0-1.2,1.6-3,3l.3,4.8c-1.4,0-1.2,1.2-1,3-1.5,1.4-2.7,4.4-3.4,6-1.7,5.4-4.8,16.8-4.8,17.4-1.2,3.2-1.2,6.2-2.4,7.8.2,1.4-1.4,3-1.4,3-.3.4-.3.8-.5,1.2l-2.2-1.8c-5.1-7-3.9-8.4-3.9-10.2,3.4-9,5.8-13.8,6.8-19,1.2-6.2,3.7-10.6,6.6-15.2,1-6.2,4.9-12,6.3-16.6,1-3,2.5-6,3.7-9,0-1.6,1.2-4.8,1.2-7.6,2.7-1.6,2.5-4.4,3.7-7.6,3.6-13.8,9.7-25.2,12-32.8,1.4-3.4,2.5-13-2.2-14.6,5.4-.2,11,0,13.2,4,1,1.6,1.2,3.4,1.2,5.2-1.2,1.4-3.7,7-3.7,8.2l-6.3,14.8c1.7-2.6,3.2-4.8,4.8-7,2-2.8,2-3,3.7-6,2.5-4.4,5.6-7,7.1-10l2.5-3.4c2-3,4.2-4.6,8.5-6.4,2.7-1.2,3.7.4,6.8-1.2,0,1.6,3.2,1.6,4.6,3,2.4,1.6,1.9,3,4.9,4.6,1.2,2.8.2,5.4.3,7.2h.3ZM365.6,77.7c-12.4,4.6-25.5,20.4-32.6,30.8-1.9,1.6-3.2,4.6-4.9,6-.3,1.4-1.4,3.2-3.9,6-.5,1.6-1.2,3-1.7,4.4-1.2,3-3,7-4.6,10.6,3.4,0,5.4-1.4,6.8-1.4,1.5-1.6,4.8-3,7.8-4.6,3-3,11-6,11-10.4,1.5-1.6,1.5-3,4.6-4.6,0-3,3-4.4,4.9-7.4,1.4-1.6,1.4-3,3.1-4.6,0-1.4,1.4-3,1.4-4.4,3.2-6,9.5-14.4,8.1-20.4h0Z"/><path class="cls-2" d="M387.3,141.8c0-1.4-2.5-1.4-4.1-3-1.2-1.4-2.7-4.4-5.4-4.4-2.5-3-3.9-6-3.9-12,0-9,8.5-23.2,12.7-29.2,5.1-8.2,10.2-14.4,14.8-18,3.4-3,7-4.4,8.7-4.4,4.9.4,7.6,1.4,9.3,3.6,0,1.4,0,3,1.2,4.4,0,3.6-.3,8.8-3.9,11.4-.9-2.4-1.7-4.8-2.2-8.6-.5-2.6-1.2-6.2-2.4-7.6l-1.5-.2c-5.3,4.6-7,9.6-11,14-2.7,6-5.3,7.6-6.8,12l-4.6,9c-1.5,3-1.5,6-2.5,7.6-1.7,6-4.1,10.8-2.5,16.8.9,1.4,4.1,0,6.8,0,5.1-2.2,11-6.4,12.6-7.2,2.5-.6,8.1-5.2,10-6.4,2.4-2,4.2-3,6.8-5,1.9-2.2,9.7-10.8,12-13.6-2.4,4.8-8.1,15.4-12.9,19.6-1.5,0-2.5,3-3.7,4.4,0,1.6-2.9,1.8-4.2,4.8-1.7,3-3.6,3.4-7.8,6,0,1.6-1.4,1.6-1.4,3-2.5,0-7.3,1.6-9.9,3h-4.2Z"/><path class="cls-2" d="M464.5,139.6c-1.9-.8-3.7-1.8-5.3-3.6-5.3-5-2.2-14.6-1-20.6-1.2,2.6-2.7,6-4.6,9-.9,1.4-1.9,2.8-5.1,4.4l1.4,1.6c-.9,1-6.1,5.2-7.1,6-2,1.2-2.4,2-4.8,2-4.4,0-7.5-1.4-10.7-4-1.9-1.4-2.4-1.4-2.9-3.6-1-1.8-1.5-3.6-1.2-5.6-.3-7.6,2.5-13.6,6.1-19.8,3.2-5.4,7.3-10.6,11-15.2,1.2-1.4,2.4-2.4,3.6-3.8.9-1,2.7-2.4,3.7-3.4.9-.8,1.5-1.2,2.5-2.2,1.2-.8,1.4-.6,2.5-1.4,1-.6,4.9-3.6,5.6-4.2,1-.4,2.9-1.4,5.3-2.4,1.2-.4,2.2-.8,3.6-1,1,0,2.4.2,3.4.4,1.5,0,2.9.2,3.7.6,2.4-3,3.7-6.4,7.5-6.4.5,1.2.3,1.4-.2,2.8-.2,2.4-1,3.8-1,4.6,2.4,1.2,3.4,1.8,5.1,2.6.2,1.4,2.5,1.2,2.7,2.4-2.5.6-6.1-.2-8.8-1-.7,2.4-2.9,8-3.9,10.6-2.4,5.4-3.2,7.8-5.4,13.4-3,7.8-7,17.4-7,26,.2,1.6-1.2,7.8.3,8.8,2,1.4,4.9-1,5.8-1.8,1-.6,2-1.4,2.9-2.2l.5.2.2-1.2c.9-1.2,1.9-2.4,2.9-3.2,6.8-8.2,15.6-18.4,23.3-28.6-2.4,4.6-4.1,8.6-6.3,12.2-1,2-3.6,5.6-4.4,7.6-1.4,1.4-1.4,3.8-2.2,5.6-1,1.8-1.7,3-2.7,5.4-.7,1.2-1.7,2.4-2.7,3.4-.2.2-.2.4-.2.6l-2.7,3.2c-2,1.4-3.2,3.6-6.1,4.4-.5-1.8-5.4-1.6-7.3-2.6h0ZM449.1,120.6c3.2-4,7.8-8.6,9.8-13.4,2.2-5.2,4.6-10.4,7.1-15.4,2.2-4.4,5.3-11,7.3-15.6-.9-.2-1.2-.2-2.2-.2s-2.2,0-3.9.6c-5.1,2.8-10.9,7.4-13.8,10.8-.9.8-1.7.6-2.4,1.4-1,1-.7,1.8-1.2,2.6-.7.8-1.9,1-2.5,1.8-1.4,3-2.2,2.4-2.7,3.2-.7.8-.9,2.4-1.4,3.4-1,1.4-2,2.8-2.9,4.4-.9,1.4-1.5,2.8-2.2,4-2.4,3.6-5.4,9.6-3.7,11-1.5,4.2-2.2,9.6,0,11.6,5.9-1.4,11-5.8,14.6-10.2h.1Z"/><path class="cls-2" d="M522.2,147.4c-1.4-1.6-2.9-4.6-4.4-4.6-1.4-3-2.9-3.4-4.2-6.4-1.4-3-2-5.6-3.6-8.6-2.2-4.6-2.7-12.2-3.6-16.4,3.7-1.6,6.8-3,9.5-4.6,6.3-4.4,15.6-12.4,20-19.8,1.7-1.6,5.4-7.2,4.6-10.2h-.5c-4.9,2.2-11,6.8-12.4,8.2-1.7,1.6-7.6,7.2-12.6,12.2-1.7,3-8.1,9-10,11.6-3.1,3.6-2.9,5-5.6,9-.3,3.4-1.9,6.6-4.1,11-1,4.6-4.1,7.6-5.6,10.6,0,0-1.5-1.6-3.1-1.6-1.4-1.4-1.4-3-.7-6,.9-3,.7-4,2.2-7,1-3,3-6,4.6-9,0-1.4-.2-3,1.7-4.4-.7-3,1.9-6,3-9-.3-1.6,1.5-3,1.5-4.6,2.2-7.8,5.1-14,8.7-21,2.4-6,7-15,9.8-22.4,2.2-4.8,6.3-13,9.3-18.2.2-.6.3-1,.3-1.8l2.5-5c1.4-2.8,2.9-7,5.9-11,3-5.8,5.6-9,9-14.2,2-2.4,5.6-3.6,7.3-4,1.2-.1,2.2-.2,2.9-.2,2.2,1.2,4.1,3.4,7.6,6.4,1.2.8.7,1.4-.2,1.4-4.4-2.8-7.5,3.4-8.8,4.2-1.4,2.2-2.4,3.8-4.2,5.2-.5,1.6-1.7,1.6-1.7,3-2,1.6-3.2,3-4.1,6-2.7,1.6-8.5,14.6-11.4,17.6-.8,3-5.8,12-7.1,13.6-.2,1.4-9.7,20.4-10.7,22.4-5.1,9-6.6,16-11.2,26.4,4.8-5,5.9-8.6,11-13.6,2.2-3,4.4-6.4,7.1-9.4,5.6-5.4,7.5-6.6,10.3-8.6l3.7-2c4.4-.8,9,.6,10.4,2.8,1.9,2.4,3,9,1.4,10.6-.7,2-.7,3-2.4,5-1.4,4-3.9,5-9.2,9.8-1.4,1.6-3.4,4-6.6,5.2-3.1,1.8-9.5,4-15.5,5.6l-2,.6c1.9,2.4,5.1,13,8.8,18.6,0,1.6.8,1.8,1.7,3,1.7,2.8,3.6,4.2,4.9,6.6,1.4,0,3.2.8,5.4,0,3.7,0,7-4.8,11-9.6,2.4-2.6,3.2-4.8,5.3-6.6,1.5-2.2,4.6-6.8,6.5-10.2-1.2,4.2-2.7,5.8-5.1,11.8-2,1-4.2,4-4.1,7-2.4,3-3.1,3.8-5.1,5.8-1.5,2.6-3,3.4-5.4,7.2-1.5,0-4.1,3-5.6,3s-4.8-.2-7.6-1.4h.5Z"/><path class="cls-2" d="M569.4,140.2c-2.9-1.4-4.8-1.4-6.1-4.4-3.1-1.6-6.8-3-8.2-6-.8-2.8-1-5.6-1-8.2,0-18.6,16.8-32.9,24.6-43.5,4.6-3,9.2-6,10.5-7.4,4.6,1.4,7.6,3,12,4.4,3,6-2,15.8-4.9,20.2l-.8,1.8-5.3,5.2c-2.4,2.2-5.4,3.8-8.3,5.4-2.2-.4-6.8-2.4-11.2-4.2-.8.8-2.2,3.8-2.2,5.4-1.7,3-4.8,12-4.8,16.4s1.7,6,3.1,9c9.7-1,22.2-6,28.7-11.6l9.7-8.4,1.5-1.4c3.2-2.8,6.5-6.2,9.7-9.8-1.7,4-6.1,9-10.4,13.4-1.4,1.6-3.7,5-4.4,7.2-1.4,3.8-4.4,5.2-4.6,8.2-3.2,1.2-3.2,2.6-6.3,3.8-4.9,2.8-9.3,4-14.1,6.8-3-.2-4.4-.4-7.3-2.2h0l.1-.1ZM587.2,93.9c1.5-1.6,3-1.6,3-3s0,0,1.4-1.6c1.7-1.4,5.3-7.2,3.7-11.8-1.5,0-1.5-1.4-3.1-1.4-7.5,6-16.5,16.2-20.9,25.2,7.5,0,11.2-4.4,15.8-7.4h.1Z"/><path class="cls-2" d="M605.4,137.2c-2.2-4.4,1.5-7.8,2-13,2.7-4.6,3.4-11.2,6.1-17.4,2-5,3.4-7.4,5.1-13.6,1.2-3.2,2.7-5,1.7-11.2l1.2-3c.5-1.6-2.4-4.8-4.1-6.4,4.9.2,8.5,2.2,12.7,5.2,3.4,5.8-3.7,19.6-5.9,25.8,2.2-3,9.2-18.2,12.7-23,1-2.6,2-4,3.9-5.8,1.4-1.4,4.6-3,6.1-3.4,3.9-1,10.2,1.6,14.9,4.4,3.6,4.4,2.2,8.2.5,13.8-3.1,3.2-4.4,4.8-7.5,9.6-2.4,1.6-7.1,1-8.7,0,2.9-4.6,8.7-15.2,10.9-23-2.9-1.8-9.2,1.8-12.4,5.8l-2.2,2.6c-4.6,4.6-5.4,6-6.8,8.4-1,1.2-3.7,5.8-4.9,7-.7,1.4-1.5,1.4-2.2,3.2-3,4.4-2.2,2.8-4.4,6.2-.8,1.8-1.5,3.2-3.1,4.6-.8,3.2-.8,2.2-1.4,5.4-1.2,1.6-.5,1.4-1.7,3-1.4,6.4-5.4,10-4.8,17.8-1.5,0-.8-.4-3.7,0-2-1.6-4.1-1.2-4.2-3h.2Z"/><path class="cls-2" d="M661.8,136.2c-2.9-3-4.8-6-4.2-9.8l.8-3.6c-.2-4.6,2.9-7.6,2.5-10.6,2.9-4.4,4.1-9,6.5-15.6,1.9-3.8,3.2-8.4,4.6-12.8,1.2-4.6,1.2-6,2-9,1.4,0,1.7-1.2,3,.2,1.5,0,3.7,2.8,5.3,4.2,1.1,2,1.1,4.5,0,7.6-1.7,4.4-5.1,9-6.5,15l-3.6,7.6c-1.5,1.4-.8,2.8-2.2,4.4.2,1.4-1.5,4.4-1.5,6-1.2,3-2.9,4.4-2.7,6,.2,1.4-1.2,1.4-2.9,3,0,3,.2,4.4.7,7.4,5.6,0,10.2-3,13.1-4.4,7.3-4.6,21.7-23,27.5-30.3-1.4,4.4-11.5,18.4-12.7,21.4v1.4l-1.7,1.6c-1.2,3-5.1,6.6-5.1,9.6-4.4,6-10.7,5.4-15.3,5.8-4.4-2-6.3-3.4-7.6-5h0v-.1ZM690.1,37.7c1.7,3.4,8.2,4.8,5.1,9.8,0,1.6-1.4,3.2-2.9,4.8,0,1.6-1.4,1.8-.3,1.8-1.4.2-3,3-6.3,1.4-1.5,0-3.2-1.4-4.8,1.6-1.9-9.6,2.7-17.8,9.2-19.4h0Z"/><path class="cls-2" d="M711,140.2c-2.9-1.4-4.8-1.4-6.1-4.4-3.1-1.6-6.8-3-8.2-6-.8-2.8-1-5.6-1-8.2,0-18.6,16.8-32.9,24.6-43.5,4.6-3,9.2-6,10.5-7.4,4.6,1.4,7.6,3,12,4.4,3,6-2,15.8-4.9,20.2l-.8,1.8-5.3,5.2c-2.4,2.2-5.4,3.8-8.3,5.4-2.2-.4-6.8-2.4-11.2-4.2-.8.8-2.2,3.8-2.2,5.4-1.7,3-4.8,12-4.8,16.4s1.7,6,3.1,9c9.7-1,22.2-6,28.7-11.6l9.7-8.4,1.5-1.4c3.2-2.8,6.5-6.2,9.7-9.8-1.7,4-6.1,9-10.4,13.4-1.4,1.6-3.7,5-4.4,7.2-1.4,3.8-4.4,5.2-4.6,8.2-3.2,1.2-3.2,2.6-6.3,3.8-4.9,2.8-9.3,4-14.1,6.8-3-.2-4.4-.4-7.3-2.2h0l.1-.1ZM728.8,93.9c1.5-1.6,3-1.6,3-3s0,0,1.4-1.6c1.7-1.4,5.3-7.2,3.7-11.8-1.5,0-1.5-1.4-3.1-1.4-7.5,6-16.5,16.2-20.9,25.2,7.5,0,11.2-4.4,15.8-7.4h.1Z"/><path class="cls-3" d="M299.7,32h-9.1v26.6h-1.6v-26.6h-9v-1.5h19.7v1.5h0Z"/><path class="cls-3" d="M328.4,30.4v28.2h-1.6v-12.7h-20v12.7h-1.6v-28.2h1.6v13.9h20v-13.9s1.6,0,1.6,0Z"/><path class="cls-3" d="M340.5,32v11.9h15.2v1.5h-15.2v11.7h17.3v1.5h-18.9v-28.2h18.9v1.5h-17.3v.1Z"/><path class="cls-3" d="M349.4,193.4l1.9,1.2c-3.1,4.4-7.6,7.3-15.2,7.3-11.4,0-19.5-9.2-19.5-20.5s8.1-20.5,19.5-20.5,11.7,2.8,14.9,7.1l-1.9,1.3c-3.3-4.3-7.6-6.2-13-6.2-10,0-17.2,8.3-17.2,18.4s7.2,18.4,17.2,18.4,10-2,13.3-6.4h0v-.1Z"/><path class="cls-3" d="M353.5,201.1l18.2-39.4h1l18.2,39.4h-2.4l-4.1-8.8h-24.4l-4.1,8.8h-2.4ZM383.5,190.1l-11.2-24.4-11.3,24.4h22.5Z"/><path class="cls-3" d="M402.3,163.8v17.3h21v2.1h-21v17.8h-2.2v-39.4h26.1v2.1h-23.9v.1Z"/><path class="cls-3" d="M438.7,163.8v16.6h21v2.1h-21v16.3h23.9v2.1h-26.1v-39.4h26.1v2.1h-23.9v.2Z"/><path class="cls-3" d="M542.3,163.8v17.3h21v2.1h-21v17.8h-2.2v-39.4h26.1v2.1h-23.9v.1Z"/><path class="cls-3" d="M578.7,201.1h-2.2v-39.4h16.6c7,0,12.2,5.3,12.2,12.6s-4.1,11.9-11.2,12.3l10.1,14.4h-2.7l-10-14.4h-12.8v14.4h0v.1ZM578.7,184.6h13.9c4.4,0,10.5-2,10.5-10.3s-2.1-10.4-10.5-10.4h-13.9v20.7Z"/><path class="cls-3" d="M614.8,181.4c0-11.4,8.4-20.6,19.5-20.6s19.7,9.2,19.7,20.6-8.5,20.6-19.7,20.6-19.5-9.2-19.5-20.6ZM617,181.4c0,10.1,7.5,18.4,17.3,18.4s17.4-8.3,17.4-18.4-7.4-18.4-17.4-18.4-17.3,8.4-17.3,18.4Z"/><path class="cls-3" d="M662.6,195.6c3.7,2.6,8.4,4.1,13.1,4.1s11.6-2.5,11.6-8.6-6.1-8-12.5-9.1c-5.1-.9-14-2.4-14-10.2s7.5-10.9,13.5-10.9,8.9,1.3,12,3.4l-1.2,1.9c-3.5-2.3-6.9-3.2-11.1-3.2s-10.8,2.1-10.8,8.5,8.4,7.6,14.5,8.7c4.5.9,12,3,12,10.8s-6.1,10.7-13.6,10.7-10.9-1.8-14.5-4.4l1.2-2h0l-.2.3Z"/><path class="cls-3" d="M700.7,163.8v16.6h21v2.1h-21v16.3h23.9v2.1h-26.1v-39.4h26.1v2.1h-23.9v.2Z"/><path class="cls-2" d="M72.1,11.8c-11.2,0-21.9,2.6-31.3,7.1,21.3-8.9,47-6.6,67.7,8.2,31.3,22.4,39.1,65,17.5,95.2-21.6,30.2-64.5,36.4-95.7,14.1C8.9,121.1-1.5,96.4.9,72.6c-.6,3.7-.9,7.4-.9,11.3,0,39.8,32.3,72.1,72.1,72.1s72.1-32.3,72.1-72.1S111.9,11.8,72.1,11.8Z"/><path class="cls-3" d="M488.2,191.1c0-1.7.3-3.1,1-4.4.7-1.3,1.5-2.4,2.5-3.4s2.2-1.9,3.4-2.7,2.5-1.6,3.7-2.4c-.6-.8-1.3-1.6-2-2.4-.6-.8-1.2-1.6-1.8-2.5s-1-1.8-1.3-2.7-.5-2-.5-3.1.2-2,.8-2.9,1.1-1.6,2-2.2c.8-.6,1.7-1.1,2.8-1.4s2.1-.5,3.1-.5,2.2.1,3.2.5c1,.3,2,.8,2.8,1.4.8.6,1.4,1.3,1.9,2.2s.7,1.9.7,3-.3,2.7-.8,3.8-1.2,2-2,2.9-1.7,1.6-2.7,2.4-2,1.4-3,2.1l9.7,12c.4-1.1.8-2.2,1-3.3s.4-2.3.4-3.5h2.2c0,1.5-.3,3-.7,4.4s-.8,2.9-1.4,4.2l6.6,8.2h-2.9l-5-6.1c-1.3,2.1-2.9,3.8-4.9,5s-4.2,1.8-6.8,1.8-3.3-.2-4.8-.7-2.8-1.1-3.8-1.9-2-1.9-2.6-3.3c-.6-1.3-1-2.8-1-4.6h0l.2.1ZM490.4,191.1c0,1.3.3,2.5.9,3.6s1.3,2,2.3,2.7c.9.7,2,1.3,3.2,1.7s2.4.6,3.7.6,3.2-.3,4.5-1,2.3-1.4,3.2-2.2c.8-.8,1.5-1.6,1.9-2.3s.6-1.1.6-1.2l-10.5-13.1c-1.1.7-2.2,1.4-3.3,2.1-1.1.7-2.2,1.5-3.1,2.4s-1.7,1.9-2.3,2.9c-.6,1.1-.9,2.4-.9,3.8h-.2ZM500.7,177.3c.8-.5,1.7-1.1,2.6-1.8.9-.6,1.7-1.3,2.4-2.1s1.4-1.6,1.8-2.6c.5-.9.7-2,.7-3.1s-.2-1.5-.6-2.1-.9-1.2-1.5-1.6-1.3-.8-2-1.1-1.5-.4-2.4-.4-1.6.1-2.4.4-1.4.6-2,1.1-1.1,1-1.5,1.6-.6,1.3-.6,2.1.2,1.9.6,2.8.8,1.7,1.4,2.5c.5.8,1.1,1.5,1.7,2.2s1.1,1.4,1.6,2.1h.2Z"/><polygon class="cls-3" points="454.7 151.3 457.5 151.3 450.1 159 448.1 159 454.7 151.3"/><polygon class="cls-3" points="715.4 151.3 718.2 151.3 710.9 159 708.8 159 715.4 151.3"/><path class="cls-1" d="M86.3,132.5h-27.2c0-.3-.2-.6-.3-.9,1.3-.5,2.7-1.1,4-1.6,1.8-.7,4-1,5.2-2.2,1.4-1.5,2.7-3.8,2.7-5.8.3-11.8.1-23.6.1-35.4,0-2.8-1.3-4.9-3.7-6.3-2.4-1.4-4.7-2.8-7-4.4-4.9-3.5-7.5-8.3-7.6-14.4-.2-10.9,2.5-21.2,6.6-31.2.6-1.5,1.7-2.3,3.5-2.3h20.2c1.6,0,2.6.6,3.2,2.2,3.8,9.5,6.4,19.4,6.8,29.7.3,7.3-2.9,13-9,17-1.9,1.2-3.8,2.4-5.8,3.5-2.5,1.4-3.7,3.6-3.7,6.4v34.9c0,4.6,2.3,7,6.9,8.2,1.8.5,3.5,1.1,5.2,1.7,0,.4-.1.7-.2,1.1l.1-.2ZM72.5,72.3h0c2.6,0,5.2.1,7.7,0,.8,0,2.1-.9,2.3-1.7,1.1-4.1,2.2-8.2,2.8-12.3.4-2.6.4-5.2-1.5-7.5-1.1-1.4-2.2-3.1-2.4-4.8-.2-2.5-1.6-3.8-3.4-5.2-1-.8-2-1.9-2.3-3-.4-1.7-1.4-2-2.5-1.4-1.3.6-2.5,1.6-3.4,2.7-2.3,3-4,6.8-6.8,9.3-3.7,3.3-3.4,7.2-3,11.1.4,3.6,1.5,7.1,2.2,10.7.3,1.7,1.3,2.4,2.9,2.3h7.2l.2-.2Z"/></svg>