<?xml version="1.0" encoding="UTF-8"?>
<svg xmlns="http://www.w3.org/2000/svg" version="1.1" viewBox="0 0 177.3 89.4">
  <defs>
    <style>
      .cls-1, .cls-2 {
        fill: #fff;
      }

      .cls-1, .cls-3 {
        fill-rule: evenodd;
      }

      .cls-4 {
        fill: #231f20;
      }

      .cls-5, .cls-3 {
        fill: #e4788e;
      }

      .cls-6 {
        fill: #dfa2a7;
      }
    </style>
  </defs>
  <!-- Generator: Adobe Illustrator 28.6.0, SVG Export Plug-In . SVG Version: 1.2.0 Build 709)  -->
  <g>
    <g id="Layer_1">
      <g>
        <g>
          <path class="cls-6" d="M6.2,70.1c-.8-.5-2-1.3-2.8-1.8-.8-.9-1.6-1.4-2.1-2.3,0,0,0-.3-.3-.3-.4-1.5-1-3.7-1-5.9.5-4.1,1.2-8.3,3-12,1.3-2.8,2.6-4.9,3.8-6.5.2-.5.8-1.1,1.4-1.5,1-.8,2-2.4,3.6-3.6.7,0,2-1.9,2.5-1.9,0,0,.9,0,1.4-.4h-.5c1-.8,3.2-1.3,5.6-1.7,2.6-.4,3.2,0,4.8,0s4.1,1,5.5,2.8c.2.4.4.9.4,1.7.2.8-.3,1.7-.3,2.3-.4.7-.8,2.2-1.6,2.6-1,.5-1.5.7-1.9,1.2-.4,0-.7.2-1.1.2.5-1.3,1.8-2.9,1.8-4.1.4-.9.6-2.3.6-2.8-.3-1.8-1.7-3-3.4-3.3-2.2-.4-3.5.6-4.8.6-.7.3-1.3.8-1.6.9-1.3.5-1.9,1.5-3,2.3l-.5.4c-1,.4-1.4.9-1.9.9-.2.8-1.1,1.3-1.6,1.9-.7.5-1.8,3.4-2.5,3.4-.4.3-1,1.3-1.3,1.9-1.3,1.1-1.9,3.1-3.1,4.7-.5.8-1.7,4.7-2,5.9-.4,1-.7,2.8-.8,3.8l-.4-.5c-.4.8-.1,2.2.3,2.6v1c0,1.3,0,1.4.3,1.7,0,.5.2,1.4.2,1.7.8,1.9,4.7,3.3,7.7,2.5.9.1,1.6-.4,2.6-.8,1-.4,2.6-.6,3.7-1.2,2.5-1.5,2.3-1.2,4-2.4,1.9-1,2.6-1.6,4.3-3.1,1.3-1.3,2.2-2.4,2.6-3,0,.8-2.2,3.9-3.1,5.2-.8,1.1-1.7,1.7-2.6,2.8-1,.6-1.2,1.1-2,1.3-1.1,1.4-1.9,1-2,1.6-1.2-.1-1.4.4-1.7.7h-1c-.4.2-2,.4-2.5.5l-1.1.2c-1,.2-2.2.1-3.1,0-.4-.5-2.3-.4-2.6-.4Z"/>
          <path class="cls-6" d="M37.8,69.2c-1.6-1.4-1.5-4.7,0-8.2-1.1,1.3-1.6,2.1-2.3,3.1,0,.5-.3.2-.8,1.1l-.5.4c-.5.5-1.6.5-2,1.4-1.5,1.3-4.6.4-5-.9-.4-3.7,1.1-5.5,1.9-8,1-1.4,1.3-2.8,2.2-4.6.8-1.6,1.4-2.9,1.3-4.4,0-.5-.3-.8-.4-.9,1.1-.2,3.2.6,3.2,1.6-.4,3.2-1.9,4.9-2.9,7.7-.5.5-1.1,1.2-1.1,2.1-1,1.4-2.2,4.4-2.2,6.1,1.6,0,2.7-1.1,4.3-1.6.4-1.4,1.9-1.4,3.3-3.3,1.2-2.2,1.5-2.9,2.5-4.2.5-.9.8-1.8,1.1-2.3.6-.9.9-1.9,1.3-2.9.3-.8.5-1.1.6-1.5.2-.5.2-.8.3-1,.5,0,2.5.6,2.6,1.1,0,.4,0,1.1-.2,1.6l-.2.5-.8,1.5c-.2.4-.7.9-.7,1.3-.5.6-.4,1.5-.9,1.9-.5.8-1.5,2.3-1.4,3.2-.5.4,0,1-.5,1v.9c-.4,1.1-.7,1.9-.9,3.1-.2,1.5-.5,4.3,1.1,5.2-1.1,0-1.7-.4-2.8-1Z"/>
          <path class="cls-6" d="M61.7,53c0,.5-.4,1.8-.4,1.8l-.4,1.2-.4.7-1.3,1.8c-.7,1.4-1.4,2.3-1.9,3.2-.9.9-1.9,2.2-2.8,2.7-1.4,1.3-2.8,2.2-4.2,3.5-1,.5-1.6,1-2.4,1-1.3-.2-1.6-.4-2.6-1.1-.2.4-.4.7-.5,1.1-.4,1.3-.7,2.8-1.1,3.6-.4,1-.8,2.3-1.2,3.2,0,0-.4.5-.9.9v1.4c-.3,0-.2.4-.2.9-.5.4-.8,1.3-1,1.8-.5,1.6-1.4,5-1.4,5.2-.4,1-.4,1.9-.7,2.3,0,.4-.4.9-.4.9,0,.1,0,.2-.1.4l-.7-.5c-1.6-2.1-1.2-2.5-1.2-3.1,1-2.7,1.7-4.1,2-5.7.4-1.9,1.1-3.2,2-4.6.3-1.9,1.5-3.6,1.9-5,.3-.9.7-1.8,1.1-2.7,0-.5.4-1.4.4-2.3.8-.5.8-1.3,1.1-2.3,1.1-4.1,2.9-7.6,3.6-9.8.4-1,.8-3.9-.7-4.4,1.6,0,3.3,0,4,1.2.3.5.4,1,.4,1.6-.4.4-1.1,2.1-1.1,2.5l-1.9,4.4c.5-.8,1-1.4,1.4-2.1.6-.8.6-.9,1.1-1.8.8-1.3,1.7-2.1,2.2-3l.8-1c.6-.9,1.3-1.4,2.5-1.9.8-.4,1.1.1,2-.4,0,.5,1,.5,1.4.9.7.5.5.9,1.4,1.4.4.8,0,1.6.1,2.2ZM59.8,50.1c-3.7,1.4-7.6,6.1-9.8,9.2-.5.5-1,1.4-1.4,1.8-.1.4-.4,1-1.2,1.8-.1.4-.3.9-.5,1.3-.4.9-.9,2.1-1.4,3.2,1,0,1.6-.4,2-.4.4-.5,1.4-.9,2.3-1.4.9-.9,3.3-1.8,3.3-3.1.4-.5.4-.9,1.4-1.4,0-.9.9-1.3,1.4-2.2.4-.5.4-.9.9-1.4,0-.4.4-.9.4-1.3,1-1.8,2.9-4.3,2.5-6.1Z"/>
          <path class="cls-6" d="M66.3,69.4c0-.4-.8-.4-1.3-.9-.4-.4-.8-1.3-1.6-1.3-.8-.9-1.1-1.8-1.1-3.6,0-2.7,2.5-7,3.8-8.8,1.6-2.5,3.1-4.3,4.4-5.4,1-.9,2.1-1.3,2.6-1.3,1.5.1,2.3.4,2.8,1.1,0,.4,0,.9.4,1.3,0,1.1-.1,2.6-1.2,3.4-.2-.7-.5-1.4-.7-2.6-.1-.8-.4-1.9-.7-2.3h-.4c-1.6,1.3-2.1,2.8-3.3,4.1-.8,1.8-1.6,2.3-2,3.6l-1.4,2.7c-.5.9-.5,1.8-.8,2.3-.5,1.8-1.2,3.2-.8,5,.3.4,1.3,0,2,0,1.6-.7,3.3-1.9,3.8-2.2.8-.2,2.5-1.6,3-1.9.7-.6,1.3-.9,2-1.5.5-.7,2.9-3.2,3.6-4.1-.7,1.4-2.5,4.6-3.8,5.9-.5,0-.8.9-1.1,1.3,0,.5-.8.5-1.3,1.4-.5.9-1.1,1-2.3,1.8,0,.5-.4.5-.4.9-.8,0-2.2.5-2.9.9h-1.2Z"/>
          <path class="cls-6" d="M89.4,68.7c-.5-.2-1.1-.5-1.6-1.1-1.6-1.5-.7-4.4-.3-6.2-.4.8-.8,1.8-1.4,2.7-.2.4-.5.8-1.5,1.3l.4.5c-.2.3-1.8,1.6-2.1,1.8-.6.4-.7.6-1.4.6-1.3,0-2.2-.4-3.2-1.2-.6-.4-.7-.4-.9-1.1-.3-.5-.4-1.1-.4-1.7,0-2.3.8-4.1,1.9-5.9,1-1.6,2.2-3.2,3.3-4.6.4-.4.7-.7,1.1-1.1.2-.3.8-.7,1.1-1,.3-.2.5-.4.8-.7.4-.2.4-.2.8-.4.3-.2,1.4-1.1,1.7-1.3.3-.1.8-.4,1.6-.7.4-.1.7-.2,1.1-.3.3,0,.7,0,1,.1.4,0,.8,0,1.1.2.7-.9,1.1-1.9,2.3-1.9.1.4,0,.4,0,.8,0,.7-.3,1.1-.3,1.4l1.5.8c0,.4.8.4.8.7-.8.2-1.9,0-2.6-.3-.2.7-.9,2.4-1.2,3.2-.7,1.6-1,2.3-1.6,4-.9,2.3-2.1,5.2-2.1,7.8,0,.5-.4,2.3.1,2.6.6.4,1.5-.3,1.7-.5.3-.2.6-.4.8-.7h.2c0,0,0-.3,0-.3.2-.4.5-.7.8-1,2-2.5,4.7-5.5,7-8.6-.7,1.4-1.2,2.6-1.9,3.7-.3.6-1.1,1.7-1.3,2.3-.4.4-.4,1.1-.7,1.7-.3.5-.5.9-.8,1.6-.2.4-.5.7-.8,1,0,0,0,.1,0,.2l-.8.9h0c-.6.5-1,1.1-1.8,1.4-.2-.5-1.6-.5-2.2-.8ZM84.8,63c1-1.2,2.3-2.6,2.9-4,.7-1.6,1.4-3.1,2.2-4.6.7-1.3,1.6-3.3,2.2-4.7-.2,0-.4,0-.7,0s-.7,0-1.1.2c-1.6.8-3.2,2.2-4.1,3.2-.2.2-.5.2-.7.4s-.2.5-.4.8c-.2.2-.5.3-.7.5-.4.9-.7.7-.8,1-.2.2-.2.7-.4,1-.3.4-.6.8-.8,1.3l-.7,1.2c-.7,1.1-1.6,2.9-1.1,3.3-.4,1.3-.7,2.9,0,3.5,1.8-.4,3.3-1.7,4.4-3.1Z"/>
          <path class="cls-6" d="M106.7,71.1c-.4-.5-.8-1.4-1.3-1.4-.4-.9-.8-1-1.3-1.9-.4-.9-.6-1.7-1.1-2.6-.7-1.4-.8-3.7-1.1-4.9,1.1-.5,2-.9,2.9-1.4,1.9-1.3,4.7-3.7,6-5.9.5-.5,1.6-2.2,1.4-3.1h-.2c-1.4.7-3.3,2-3.7,2.5-.5.5-2.3,2.2-3.7,3.7-.5.9-2.5,2.7-3,3.5-1,1.1-.9,1.5-1.7,2.7-.1,1-.6,2-1.3,3.3-.3,1.4-1.2,2.3-1.7,3.2,0,0-.4-.5-.9-.5-.4-.4-.4-.9-.2-1.8.2-.9.2-1.2.7-2.1.3-.9.9-1.8,1.4-2.7,0-.4,0-.9.5-1.3-.2-.9.5-1.8.9-2.7,0-.5.5-.9.5-1.4.7-2.3,1.5-4.2,2.6-6.3.7-1.8,2.1-4.5,2.9-6.7.7-1.4,1.9-3.9,2.8-5.5,0-.2.1-.3.1-.5l.7-1.5c.4-.8.9-2.1,1.8-3.3.9-1.7,1.7-2.7,2.7-4.3.6-.7,1.7-1.1,2.2-1.2q.6,0,.9,0c.7.4,1.2,1,2.3,1.9.4.2.2.4,0,.4-1.3-.8-2.2,1-2.6,1.3-.4.7-.7,1.1-1.3,1.6-.2.5-.5.5-.5.9-.6.5-1,.9-1.2,1.8-.8.5-2.5,4.4-3.4,5.3-.2.9-1.7,3.6-2.1,4.1,0,.4-2.9,6.1-3.2,6.7-1.5,2.7-2,4.8-3.4,7.9,1.4-1.5,1.8-2.6,3.3-4.1.7-.9,1.3-1.9,2.2-2.8,1.7-1.6,2.2-2,3.1-2.6l1.1-.6c1.3-.2,2.7.2,3.1.8.5.7.9,2.7.4,3.2-.2.6-.2.9-.7,1.5-.4,1.2-1.2,1.5-2.8,2.9-.4.5-1,1.2-2,1.6-.9.5-2.8,1.2-4.6,1.7l-.6.2c.5.7,1.5,3.9,2.6,5.6,0,.5.2.5.5.9.5.8,1.1,1.3,1.5,2,.4,0,1,.2,1.6,0,1.1,0,2.1-1.4,3.3-2.9.7-.8,1-1.4,1.6-2,.5-.7,1.4-2,2-3.1-.4,1.3-.8,1.7-1.6,3.5-.6.3-1.3,1.2-1.2,2.1-.7.9-.9,1.1-1.6,1.7-.4.8-.9,1-1.6,2.2-.4,0-1.2.9-1.7.9s-1.4,0-2.3-.4Z"/>
          <path class="cls-6" d="M120.8,68.9c-.9-.4-1.4-.4-1.9-1.3-.9-.5-2-.9-2.5-1.8-.2-.8-.3-1.7-.3-2.5,0-5.6,5-9.9,7.4-13.1,1.4-.9,2.8-1.8,3.2-2.2,1.4.4,2.3.9,3.6,1.3.9,1.8-.6,4.7-1.5,6.1l-.2.5-1.6,1.6c-.7.7-1.6,1.1-2.5,1.6-.7-.1-2-.7-3.4-1.3-.2.2-.7,1.1-.7,1.6-.5.9-1.4,3.6-1.4,4.9s.5,1.8.9,2.7c2.9-.3,6.7-1.8,8.6-3.5l3.4-2.9c1-.8,1.9-1.9,2.9-2.9-.5,1.2-1.8,2.7-3.1,4-.4.5-1.1,1.5-1.3,2.2-.4,1.1-1.3,1.6-1.4,2.5-1,.4-1,.8-1.9,1.1-1.4.8-2.8,1.2-4.2,2-.9,0-1.3-.1-2.2-.7ZM126.2,55c.4-.5.9-.5.9-.9s0,0,.4-.5c.5-.4,1.6-2.2,1.1-3.5-.4,0-.4-.4-.9-.4-2.2,1.8-4.9,4.9-6.2,7.6,2.2,0,3.4-1.3,4.7-2.2Z"/>
          <path class="cls-6" d="M131.6,68c-.7-1.3.5-2.3.6-3.9.8-1.4,1-3.4,1.9-5.2.6-1.5,1-2.2,1.5-4.1.4-1,.8-1.5.5-3.4l.4-.9c.1-.5-.7-1.4-1.3-1.9,1.5,0,2.6.7,3.8,1.6,1,1.7-1.1,5.9-1.8,7.7.7-.9,2.8-5.5,3.8-6.9.3-.8.6-1.2,1.1-1.7s1.4-.9,1.9-1c1.1-.3,3.1.5,4.4,1.3,1.1,1.3.7,2.5.2,4.1-.9,1-1.3,1.4-2.2,2.9-.7.5-2.2.3-2.6,0,.9-1.4,2.6-4.6,3.3-6.9-.9-.5-2.8.5-3.7,1.7l-.7.8c-1.4,1.4-1.6,1.8-2,2.5-.3.4-1.1,1.7-1.5,2.1-.2.4-.4.4-.7,1-.9,1.3-.7.8-1.3,1.9-.2.5-.4,1-.9,1.4-.2,1-.2.7-.4,1.6-.4.5-.1.4-.5.9-.4,1.9-1.6,3-1.4,5.3-.5,0-.2-.1-1.1,0-.6-.5-1.2-.4-1.3-.9Z"/>
          <path class="cls-6" d="M148.5,67.7c-.9-.9-1.4-1.8-1.3-2.9l.2-1.1c0-1.4.8-2.3.8-3.2.8-1.3,1.2-2.7,1.9-4.7.5-1.1,1-2.5,1.4-3.8.4-1.4.4-1.8.6-2.7.4,0,.5-.4.9,0,.5,0,1.1.8,1.6,1.3q.5.9,0,2.3c-.5,1.3-1.5,2.7-1.9,4.5l-1.1,2.3c-.4.4-.2.8-.7,1.3,0,.4-.4,1.3-.4,1.8-.4.9-.9,1.3-.8,1.8,0,.4-.4.4-.8.9,0,.9,0,1.3.2,2.2,1.7,0,3.1-.9,3.9-1.3,2.2-1.4,6.5-6.9,8.3-9.1-.4,1.3-3.5,5.5-3.8,6.4v.4l-.5.5c-.4.9-1.6,2-1.6,2.9-1.3,1.8-3.2,1.6-4.6,1.7-1.3-.6-1.9-1-2.3-1.5ZM157,38.1c.5,1,2.5,1.4,1.6,2.9,0,.5-.4,1-.9,1.4,0,.5-.4.5,0,.5-.4,0-1,.9-1.9.4-.4,0-1-.4-1.4.5-.6-2.9.8-5.3,2.7-5.8Z"/>
          <path class="cls-6" d="M163.3,68.9c-.9-.4-1.4-.4-1.9-1.3-.9-.5-2-.9-2.5-1.8-.2-.8-.3-1.7-.3-2.5,0-5.6,5-9.9,7.4-13.1,1.4-.9,2.8-1.8,3.2-2.2,1.4.4,2.3.9,3.6,1.3.9,1.8-.6,4.7-1.5,6.1l-.2.5-1.6,1.6c-.7.7-1.6,1.1-2.5,1.6-.7-.1-2-.7-3.4-1.3-.2.2-.7,1.1-.7,1.6-.5.9-1.4,3.6-1.4,4.9s.5,1.8.9,2.7c2.9-.3,6.7-1.8,8.6-3.5l3.4-2.9c1-.8,1.9-1.9,2.9-2.9-.5,1.2-1.8,2.7-3.1,4-.4.5-1.1,1.5-1.3,2.2-.4,1.1-1.3,1.6-1.4,2.5-1,.4-1,.8-1.9,1.1-1.4.8-2.8,1.2-4.2,2-.9,0-1.3-.1-2.2-.7ZM168.6,55c.4-.5.9-.5.9-.9s0,0,.4-.5c.5-.4,1.6-2.2,1.1-3.5-.4,0-.4-.4-.9-.4-2.2,1.8-4.9,4.9-6.2,7.6,2.2,0,3.4-1.3,4.7-2.2Z"/>
        </g>
        <g>
          <path class="cls-5" d="M6.2,70.1c-.8-.5-2-1.3-2.8-1.8-.8-.9-1.6-1.4-2.1-2.3,0,0,0-.3-.3-.3-.4-1.5-1-3.7-1-5.9.5-4.1,1.2-8.3,3-12,1.3-2.8,2.6-4.9,3.8-6.5.2-.5.8-1.1,1.4-1.5,1-.8,2-2.4,3.6-3.6.7,0,2-1.9,2.5-1.9,0,0,.9,0,1.4-.4h-.5c1-.8,3.2-1.3,5.6-1.7,2.6-.4,3.2,0,4.8,0s4.1,1,5.5,2.8c.2.4.4.9.4,1.7.2.8-.3,1.7-.3,2.3-.4.7-.8,2.2-1.6,2.6-1,.5-1.5.7-1.9,1.2-.4,0-.7.2-1.1.2.5-1.3,1.8-2.9,1.8-4.1.4-.9.6-2.3.6-2.8-.3-1.8-1.7-3-3.4-3.3-2.2-.4-3.5.6-4.8.6-.7.3-1.3.8-1.6.9-1.3.5-1.9,1.5-3,2.3l-.5.4c-1,.4-1.4.9-1.9.9-.2.8-1.1,1.3-1.6,1.9-.7.5-1.8,3.4-2.5,3.4-.4.3-1,1.3-1.3,1.9-1.3,1.1-1.9,3.1-3.1,4.7-.5.8-1.7,4.7-2,5.9-.4,1-.7,2.8-.8,3.8l-.4-.5c-.4.8-.1,2.2.3,2.6v1c0,1.3,0,1.4.3,1.7,0,.5.2,1.4.2,1.7.8,1.9,4.7,3.3,7.7,2.5.9.1,1.6-.4,2.6-.8,1-.4,2.6-.6,3.7-1.2,2.5-1.5,2.3-1.2,4-2.4,1.9-1,2.6-1.6,4.3-3.1,1.3-1.3,2.2-2.4,2.6-3,0,.8-2.2,3.9-3.1,5.2-.8,1.1-1.7,1.7-2.6,2.8-1,.6-1.2,1.1-2,1.3-1.1,1.4-1.9,1-2,1.6-1.2-.1-1.4.4-1.7.7h-1c-.4.2-2,.4-2.5.5l-1.1.2c-1,.2-2.2.1-3.1,0-.4-.5-2.3-.4-2.6-.4Z"/>
          <path class="cls-5" d="M37.8,69.2c-1.6-1.4-1.5-4.7,0-8.2-1.1,1.3-1.6,2.1-2.3,3.1,0,.5-.3.2-.8,1.1l-.5.4c-.5.5-1.6.5-2,1.4-1.5,1.3-4.6.4-5-.9-.4-3.7,1.1-5.5,1.9-8,1-1.4,1.3-2.8,2.2-4.6.8-1.6,1.4-2.9,1.3-4.4,0-.5-.3-.8-.4-.9,1.1-.2,3.2.6,3.2,1.6-.4,3.2-1.9,4.9-2.9,7.7-.5.5-1.1,1.2-1.1,2.1-1,1.4-2.2,4.4-2.2,6.1,1.6,0,2.7-1.1,4.3-1.6.4-1.4,1.9-1.4,3.3-3.3,1.2-2.2,1.5-2.9,2.5-4.2.5-.9.8-1.8,1.1-2.3.6-.9.9-1.9,1.3-2.9.3-.8.5-1.1.6-1.5.2-.5.2-.8.3-1,.5,0,2.5.6,2.6,1.1,0,.4,0,1.1-.2,1.6l-.2.5-.8,1.5c-.2.4-.7.9-.7,1.3-.5.6-.4,1.5-.9,1.9-.5.8-1.5,2.3-1.4,3.2-.5.4,0,1-.5,1v.9c-.4,1.1-.7,1.9-.9,3.1-.2,1.5-.5,4.3,1.1,5.2-1.1,0-1.7-.4-2.8-1Z"/>
          <path class="cls-5" d="M61.7,53c0,.5-.4,1.8-.4,1.8l-.4,1.2-.4.7-1.3,1.8c-.7,1.4-1.4,2.3-1.9,3.2-.9.9-1.9,2.2-2.8,2.7-1.4,1.3-2.8,2.2-4.2,3.5-1,.5-1.6,1-2.4,1-1.3-.2-1.6-.4-2.6-1.1-.2.4-.4.7-.5,1.1-.4,1.3-.7,2.8-1.1,3.6-.4,1-.8,2.3-1.2,3.2,0,0-.4.5-.9.9v1.4c-.3,0-.2.4-.2.9-.5.4-.8,1.3-1,1.8-.5,1.6-1.4,5-1.4,5.2-.4,1-.4,1.9-.7,2.3,0,.4-.4.9-.4.9,0,.1,0,.2-.1.4l-.7-.5c-1.6-2.1-1.2-2.5-1.2-3.1,1-2.7,1.7-4.1,2-5.7.4-1.9,1.1-3.2,2-4.6.3-1.9,1.5-3.6,1.9-5,.3-.9.7-1.8,1.1-2.7,0-.5.4-1.4.4-2.3.8-.5.8-1.3,1.1-2.3,1.1-4.1,2.9-7.6,3.6-9.8.4-1,.8-3.9-.7-4.4,1.6,0,3.3,0,4,1.2.3.5.4,1,.4,1.6-.4.4-1.1,2.1-1.1,2.5l-1.9,4.4c.5-.8,1-1.4,1.4-2.1.6-.8.6-.9,1.1-1.8.8-1.3,1.7-2.1,2.2-3l.8-1c.6-.9,1.3-1.4,2.5-1.9.8-.4,1.1.1,2-.4,0,.5,1,.5,1.4.9.7.5.5.9,1.4,1.4.4.8,0,1.6.1,2.2ZM59.8,50.1c-3.7,1.4-7.6,6.1-9.8,9.2-.5.5-1,1.4-1.4,1.8-.1.4-.4,1-1.2,1.8-.1.4-.3.9-.5,1.3-.4.9-.9,2.1-1.4,3.2,1,0,1.6-.4,2-.4.4-.5,1.4-.9,2.3-1.4.9-.9,3.3-1.8,3.3-3.1.4-.5.4-.9,1.4-1.4,0-.9.9-1.3,1.4-2.2.4-.5.4-.9.9-1.4,0-.4.4-.9.4-1.3,1-1.8,2.9-4.3,2.5-6.1Z"/>
          <path class="cls-5" d="M66.3,69.4c0-.4-.8-.4-1.3-.9-.4-.4-.8-1.3-1.6-1.3-.8-.9-1.1-1.8-1.1-3.6,0-2.7,2.5-7,3.8-8.8,1.6-2.5,3.1-4.3,4.4-5.4,1-.9,2.1-1.3,2.6-1.3,1.5.1,2.3.4,2.8,1.1,0,.4,0,.9.4,1.3,0,1.1-.1,2.6-1.2,3.4-.2-.7-.5-1.4-.7-2.6-.1-.8-.4-1.9-.7-2.3h-.4c-1.6,1.3-2.1,2.8-3.3,4.1-.8,1.8-1.6,2.3-2,3.6l-1.4,2.7c-.5.9-.5,1.8-.8,2.3-.5,1.8-1.2,3.2-.8,5,.3.4,1.3,0,2,0,1.6-.7,3.3-1.9,3.8-2.2.8-.2,2.5-1.6,3-1.9.7-.6,1.3-.9,2-1.5.5-.7,2.9-3.2,3.6-4.1-.7,1.4-2.5,4.6-3.8,5.9-.5,0-.8.9-1.1,1.3,0,.5-.8.5-1.3,1.4-.5.9-1.1,1-2.3,1.8,0,.5-.4.5-.4.9-.8,0-2.2.5-2.9.9h-1.2Z"/>
          <path class="cls-5" d="M89.4,68.7c-.5-.2-1.1-.5-1.6-1.1-1.6-1.5-.7-4.4-.3-6.2-.4.8-.8,1.8-1.4,2.7-.2.4-.5.8-1.5,1.3l.4.5c-.2.3-1.8,1.6-2.1,1.8-.6.4-.7.6-1.4.6-1.3,0-2.2-.4-3.2-1.2-.6-.4-.7-.4-.9-1.1-.3-.5-.4-1.1-.4-1.7,0-2.3.8-4.1,1.9-5.9,1-1.6,2.2-3.2,3.3-4.6.4-.4.7-.7,1.1-1.1.2-.3.8-.7,1.1-1,.3-.2.5-.4.8-.7.4-.2.4-.2.8-.4.3-.2,1.4-1.1,1.7-1.3.3-.1.8-.4,1.6-.7.4-.1.7-.2,1.1-.3.3,0,.7,0,1,.1.4,0,.8,0,1.1.2.7-.9,1.1-1.9,2.3-1.9.1.4,0,.4,0,.8,0,.7-.3,1.1-.3,1.4l1.5.8c0,.4.8.4.8.7-.8.2-1.9,0-2.6-.3-.2.7-.9,2.4-1.2,3.2-.7,1.6-1,2.3-1.6,4-.9,2.3-2.1,5.2-2.1,7.8,0,.5-.4,2.3.1,2.6.6.4,1.5-.3,1.7-.5.3-.2.6-.4.8-.7h.2c0,0,0-.3,0-.3.2-.4.5-.7.8-1,2-2.5,4.7-5.5,7-8.6-.7,1.4-1.2,2.6-1.9,3.7-.3.6-1.1,1.7-1.3,2.3-.4.4-.4,1.1-.7,1.7-.3.5-.5.9-.8,1.6-.2.4-.5.7-.8,1,0,0,0,.1,0,.2l-.8.9h0c-.6.5-1,1.1-1.8,1.4-.2-.5-1.6-.5-2.2-.8ZM84.8,63c1-1.2,2.3-2.6,2.9-4,.7-1.6,1.4-3.1,2.2-4.6.7-1.3,1.6-3.3,2.2-4.7-.2,0-.4,0-.7,0s-.7,0-1.1.2c-1.6.8-3.2,2.2-4.1,3.2-.2.2-.5.2-.7.4s-.2.5-.4.8c-.2.2-.5.3-.7.5-.4.9-.7.7-.8,1-.2.2-.2.7-.4,1-.3.4-.6.8-.8,1.3l-.7,1.2c-.7,1.1-1.6,2.9-1.1,3.3-.4,1.3-.7,2.9,0,3.5,1.8-.4,3.3-1.7,4.4-3.1Z"/>
          <path class="cls-5" d="M106.7,71.1c-.4-.5-.8-1.4-1.3-1.4-.4-.9-.8-1-1.3-1.9-.4-.9-.6-1.7-1.1-2.6-.7-1.4-.8-3.7-1.1-4.9,1.1-.5,2-.9,2.9-1.4,1.9-1.3,4.7-3.7,6-5.9.5-.5,1.6-2.2,1.4-3.1h-.2c-1.4.7-3.3,2-3.7,2.5-.5.5-2.3,2.2-3.7,3.7-.5.9-2.5,2.7-3,3.5-1,1.1-.9,1.5-1.7,2.7-.1,1-.6,2-1.3,3.3-.3,1.4-1.2,2.3-1.7,3.2,0,0-.4-.5-.9-.5-.4-.4-.4-.9-.2-1.8.2-.9.2-1.2.7-2.1.3-.9.9-1.8,1.4-2.7,0-.4,0-.9.5-1.3-.2-.9.5-1.8.9-2.7,0-.5.5-.9.5-1.4.7-2.3,1.5-4.2,2.6-6.3.7-1.8,2.1-4.5,2.9-6.7.7-1.4,1.9-3.9,2.8-5.5,0-.2.1-.3.1-.5l.7-1.5c.4-.8.9-2.1,1.8-3.3.9-1.7,1.7-2.7,2.7-4.3.6-.7,1.7-1.1,2.2-1.2q.6,0,.9,0c.7.4,1.2,1,2.3,1.9.4.2.2.4,0,.4-1.3-.8-2.2,1-2.6,1.3-.4.7-.7,1.1-1.3,1.6-.2.5-.5.5-.5.9-.6.5-1,.9-1.2,1.8-.8.5-2.5,4.4-3.4,5.3-.2.9-1.7,3.6-2.1,4.1,0,.4-2.9,6.1-3.2,6.7-1.5,2.7-2,4.8-3.4,7.9,1.4-1.5,1.8-2.6,3.3-4.1.7-.9,1.3-1.9,2.2-2.8,1.7-1.6,2.2-2,3.1-2.6l1.1-.6c1.3-.2,2.7.2,3.1.8.5.7.9,2.7.4,3.2-.2.6-.2.9-.7,1.5-.4,1.2-1.2,1.5-2.8,2.9-.4.5-1,1.2-2,1.6-.9.5-2.8,1.2-4.6,1.7l-.6.2c.5.7,1.5,3.9,2.6,5.6,0,.5.2.5.5.9.5.8,1.1,1.3,1.5,2,.4,0,1,.2,1.6,0,1.1,0,2.1-1.4,3.3-2.9.7-.8,1-1.4,1.6-2,.5-.7,1.4-2,2-3.1-.4,1.3-.8,1.7-1.6,3.5-.6.3-1.3,1.2-1.2,2.1-.7.9-.9,1.1-1.6,1.7-.4.8-.9,1-1.6,2.2-.4,0-1.2.9-1.7.9s-1.4,0-2.3-.4Z"/>
          <path class="cls-5" d="M120.8,68.9c-.9-.4-1.4-.4-1.9-1.3-.9-.5-2-.9-2.5-1.8-.2-.8-.3-1.7-.3-2.5,0-5.6,5-9.9,7.4-13.1,1.4-.9,2.8-1.8,3.2-2.2,1.4.4,2.3.9,3.6,1.3.9,1.8-.6,4.7-1.5,6.1l-.2.5-1.6,1.6c-.7.7-1.6,1.1-2.5,1.6-.7-.1-2-.7-3.4-1.3-.2.2-.7,1.1-.7,1.6-.5.9-1.4,3.6-1.4,4.9s.5,1.8.9,2.7c2.9-.3,6.7-1.8,8.6-3.5l3.4-2.9c1-.8,1.9-1.9,2.9-2.9-.5,1.2-1.8,2.7-3.1,4-.4.5-1.1,1.5-1.3,2.2-.4,1.1-1.3,1.6-1.4,2.5-1,.4-1,.8-1.9,1.1-1.4.8-2.8,1.2-4.2,2-.9,0-1.3-.1-2.2-.7ZM126.2,55c.4-.5.9-.5.9-.9s0,0,.4-.5c.5-.4,1.6-2.2,1.1-3.5-.4,0-.4-.4-.9-.4-2.2,1.8-4.9,4.9-6.2,7.6,2.2,0,3.4-1.3,4.7-2.2Z"/>
          <path class="cls-5" d="M131.6,68c-.7-1.3.5-2.3.6-3.9.8-1.4,1-3.4,1.9-5.2.6-1.5,1-2.2,1.5-4.1.4-1,.8-1.5.5-3.4l.4-.9c.1-.5-.7-1.4-1.3-1.9,1.5,0,2.6.7,3.8,1.6,1,1.7-1.1,5.9-1.8,7.7.7-.9,2.8-5.5,3.8-6.9.3-.8.6-1.2,1.1-1.7s1.4-.9,1.9-1c1.1-.3,3.1.5,4.4,1.3,1.1,1.3.7,2.5.2,4.1-.9,1-1.3,1.4-2.2,2.9-.7.5-2.2.3-2.6,0,.9-1.4,2.6-4.6,3.3-6.9-.9-.5-2.8.5-3.7,1.7l-.7.8c-1.4,1.4-1.6,1.8-2,2.5-.3.4-1.1,1.7-1.5,2.1-.2.4-.4.4-.7,1-.9,1.3-.7.8-1.3,1.9-.2.5-.4,1-.9,1.4-.2,1-.2.7-.4,1.6-.4.5-.1.4-.5.9-.4,1.9-1.6,3-1.4,5.3-.5,0-.2-.1-1.1,0-.6-.5-1.2-.4-1.3-.9Z"/>
          <path class="cls-5" d="M148.5,67.7c-.9-.9-1.4-1.8-1.3-2.9l.2-1.1c0-1.4.8-2.3.8-3.2.8-1.3,1.2-2.7,1.9-4.7.5-1.1,1-2.5,1.4-3.8.4-1.4.4-1.8.6-2.7.4,0,.5-.4.9,0,.5,0,1.1.8,1.6,1.3q.5.9,0,2.3c-.5,1.3-1.5,2.7-1.9,4.5l-1.1,2.3c-.4.4-.2.8-.7,1.3,0,.4-.4,1.3-.4,1.8-.4.9-.9,1.3-.8,1.8,0,.4-.4.4-.8.9,0,.9,0,1.3.2,2.2,1.7,0,3.1-.9,3.9-1.3,2.2-1.4,6.5-6.9,8.3-9.1-.4,1.3-3.5,5.5-3.8,6.4v.4l-.5.5c-.4.9-1.6,2-1.6,2.9-1.3,1.8-3.2,1.6-4.6,1.7-1.3-.6-1.9-1-2.3-1.5ZM157,38.1c.5,1,2.5,1.4,1.6,2.9,0,.5-.4,1-.9,1.4,0,.5-.4.5,0,.5-.4,0-1,.9-1.9.4-.4,0-1-.4-1.4.5-.6-2.9.8-5.3,2.7-5.8Z"/>
          <path class="cls-5" d="M163.3,68.9c-.9-.4-1.4-.4-1.9-1.3-.9-.5-2-.9-2.5-1.8-.2-.8-.3-1.7-.3-2.5,0-5.6,5-9.9,7.4-13.1,1.4-.9,2.8-1.8,3.2-2.2,1.4.4,2.3.9,3.6,1.3.9,1.8-.6,4.7-1.5,6.1l-.2.5-1.6,1.6c-.7.7-1.6,1.1-2.5,1.6-.7-.1-2-.7-3.4-1.3-.2.2-.7,1.1-.7,1.6-.5.9-1.4,3.6-1.4,4.9s.5,1.8.9,2.7c2.9-.3,6.7-1.8,8.6-3.5l3.4-2.9c1-.8,1.9-1.9,2.9-2.9-.5,1.2-1.8,2.7-3.1,4-.4.5-1.1,1.5-1.3,2.2-.4,1.1-1.3,1.6-1.4,2.5-1,.4-1,.8-1.9,1.1-1.4.8-2.8,1.2-4.2,2-.9,0-1.3-.1-2.2-.7ZM168.6,55c.4-.5.9-.5.9-.9s0,0,.4-.5c.5-.4,1.6-2.2,1.1-3.5-.4,0-.4-.4-.9-.4-2.2,1.8-4.9,4.9-6.2,7.6,2.2,0,3.4-1.3,4.7-2.2Z"/>
        </g>
      </g>
      <g>
        <path class="cls-4" d="M36.9,36.2h-3v-.6h6.7v.6h-3v7.8h-.6v-7.8Z"/>
        <path class="cls-4" d="M48.9,35.7v8.4h-.6v-4h-5.6v4h-.6v-8.4h.6v3.9h5.6v-3.9h.6Z"/>
        <path class="cls-4" d="M57.7,43.5v.6h-5.8v-8.4h5.6v.6h-5v3.3h4.5v.5h-4.5v3.4h5.2Z"/>
      </g>
      <g>
        <path class="cls-4" d="M45.1,81.2c0-3.5,2.6-6,6.2-6s3.2.5,4.2,1.6l-.5.6c-1-1-2.3-1.4-3.7-1.4-3,0-5.3,2.2-5.3,5.2s2.3,5.2,5.3,5.2,2.6-.4,3.7-1.4l.5.6c-1,1.1-2.5,1.7-4.2,1.7-3.5,0-6.2-2.6-6.2-6Z"/>
        <path class="cls-4" d="M65.5,83.8h-6.9l-1.5,3.3h-.9l5.5-11.9h.9l5.5,11.9h-.9l-1.5-3.3ZM65.1,83l-3.1-6.9-3.1,6.9h6.2Z"/>
        <path class="cls-4" d="M70.9,76v5.1h6.3v.8h-6.3v5.3h-.9v-11.9h8v.8h-7.1Z"/>
        <path class="cls-4" d="M89,86.3v.8h-8.2v-11.9h8v.8h-7.1v4.7h6.3v.8h-6.3v4.9h7.3ZM84.7,74.3h-.9l2.4-2h1.2l-2.7,2Z"/>
        <path class="cls-4" d="M104.9,87.3l-1.7-1.8c-1,1.1-2.3,1.7-4,1.7s-3.9-1.2-3.9-3,.8-2.4,3.1-3.7h0c-1.2-1.3-1.5-2-1.5-2.9,0-1.5,1.1-2.4,2.8-2.4s2.6.8,2.6,2.3-.7,2-2.7,3.2l3.5,3.7c.4-.7.7-1.5.8-2.4l.7.2c-.2,1.1-.6,2-1,2.7l1.8,1.9-.5.6ZM102.7,84.9l-3.8-4c-2.1,1.2-2.7,2-2.7,3.2s1.3,2.3,3.1,2.3,2.6-.5,3.4-1.5ZM99.1,80.1c1.9-1.1,2.5-1.7,2.5-2.7s-.7-1.6-1.9-1.6-2,.7-2,1.8.3,1.3,1.4,2.5Z"/>
        <path class="cls-4" d="M112.9,76v5.1h6.3v.8h-6.3v5.3h-.9v-11.9h8v.8h-7.1Z"/>
        <path class="cls-4" d="M131,87.1l-2.8-4c-.4,0-.7,0-1.2,0h-3.4v3.9h-.9v-11.9h4.3c3,0,4.8,1.5,4.8,4s-1,3.2-2.8,3.7l3,4.2h-1ZM127,82.5c2.5,0,3.9-1.2,3.9-3.2s-1.4-3.2-3.9-3.2h-3.4v6.5h3.4Z"/>
        <path class="cls-4" d="M133.9,81.2c0-3.5,2.6-6,6.2-6s6.2,2.6,6.2,6-2.7,6-6.2,6-6.2-2.6-6.2-6ZM145.4,81.2c0-3-2.3-5.2-5.3-5.2s-5.3,2.2-5.3,5.2,2.3,5.2,5.3,5.2,5.3-2.2,5.3-5.2Z"/>
        <path class="cls-4" d="M148.1,85.6l.4-.6c.8.8,2.3,1.5,3.9,1.5,2.4,0,3.4-1,3.4-2.3,0-3.6-7.4-1.4-7.4-5.8s1.3-3.2,4.2-3.2,2.7.4,3.6,1.1l-.3.7c-1-.7-2.2-1-3.3-1-2.3,0-3.3,1.1-3.3,2.4,0,3.6,7.4,1.5,7.4,5.8s-1.3,3.1-4.3,3.1-3.5-.7-4.3-1.6Z"/>
        <path class="cls-4" d="M167.8,86.3v.8h-8.2v-11.9h8v.8h-7.1v4.7h6.3v.8h-6.3v4.9h7.3ZM163.6,74.3h-.9l2.4-2h1.2l-2.7,2Z"/>
      </g>
      <g>
        <path class="cls-4" d="M73.4,1.9C77.8,0,81-.3,84.8.2c12.7,1.5,21.6,14.6,17.6,27.7-3.5,11.3-15.1,17.3-25.6,14.6-9.4-2.3-15.3-10-16.3-18-.5-4.2,0-7.4,1.7-11.4-1.5,4-1.8,7.2-1.2,11.3,1.2,7.6,7,14.8,16,17,10,2.3,20.9-3.3,24.2-13.9,3.9-12.5-4.5-24.9-16.5-26.8-3.7-.6-7-.4-11.3,1.2ZM74.6,10.2c-11,6.1-7.8,22.8,4.7,24.2-11.3-3.3-14.1-16.6-4.7-24.2ZM83.9,34.4c12.5-1.4,15.7-18.1,4.7-24.2,9.4,7.5,6.6,20.9-4.7,24.2ZM87.7,15.3c0-3.3-1.4-8.2-2.4-9.8h-7.4c-1,1.6-2.4,6.5-2.4,9.8,0,4.8,4.4,5.5,5.1,6.6.5.8.4.9.4,6.7s.2,6-.5,6.8c-1,1.1-3.3.7-3.3,1.8h8.9c0-1.1-2.3-.7-3.3-1.8-.7-.8-.5-1.1-.5-6.8s-.1-5.9.4-6.7c.7-1,5.1-1.8,5.1-6.6Z"/>
        <path class="cls-2" d="M80.8,12.2c.7,0,2.1-.1,3-.7,0,0,0,0,0,0,.2,0,.4.2.5.4,0,.2.1.3,0,.5,0,0,0,0,0,0h0c0,.1.2.2.2.2,0,0,.2,0,.3.1.1,0,.2.2.3.3,0,.1,0,.3,0,.4,0,0,0,.2-.1.2-1.1.8-3.1.6-5.8.1-.1,0-.2,0-.5,0-.2-.2-.4-.6-.3-.9,0-.1,0-.2.1-.3,0-.1.1-.2.2-.3.3-.3.6-.3,1-.3,0-.2-.2-.4-.2-.7,0-.2,0-.3.2-.5,0-.1.2-.3.3-.3.1,0,.3,0,.4,0h.2s0-.2,0-.2c0,0,0,0,0-.1,0,0,0-.2,0-.3,0,0,.2-.2.3-.2,0,0,.1,0,.2,0h.2s0-.2,0-.2c0,0,0,0,0-.2,0,0,0-.2,0-.3,0-.1.2-.2.4-.4.1,0,.3-.1.5-.2-.2.6.3,1,.8,1.3,0,0,.1,0,.2.1,0,0,.1,0,.2.1.1,0,.2.1.3.2.1.1.2.3.3.4,0,.1,0,.3,0,.5-.4.6-2.4,1-3.1,1.1M85.1,14c0-.1.1-.2.2-.3,0-.2,0-.4,0-.6,0-.2-.2-.3-.3-.4,0,0-.1,0-.2-.1,0-.2,0-.5-.1-.7-.1-.2-.3-.4-.6-.5,0,0,0,0,0,0,.1-.2.2-.5.1-.7,0-.2-.2-.4-.3-.5-.1,0-.2-.2-.3-.3,0,0-.1,0-.2-.1,0,0-.1,0-.2-.1-.5-.3-1-.7-.6-1.2l.2-.3h-.3c-.4.1-.7.2-.9.3-.3.1-.4.3-.5.5,0,.2,0,.3,0,.5,0,0,0,0,0,0,0,0-.1,0-.1,0-.2,0-.3.2-.4.3,0,.1-.1.3-.1.5h0c-.1,0-.2,0-.4.1-.2,0-.3.2-.4.4-.1.2-.2.4-.2.6,0,.1,0,.3,0,.4-.3,0-.6.2-.8.4-.1.1-.2.2-.3.4,0,.1-.1.3-.1.4,0,.3,0,.6.3,1h0s0,0,0,0c.1,0,.3,0,.5,0,2.8.5,4.9.9,6.1,0h0s0,0,0,0Z"/>
        <path class="cls-2" d="M82.1,13.2c1.1,0,2.2,0,2.5-.6l-.2-.2c-.3.4-1.3.4-2.3.4-1.2,0-2.5,0-2.9.7.6-.5,2-.4,2.9-.4"/>
        <path class="cls-2" d="M80.3,10.2v.3c.6,0,1.1,0,1.5,0,.3,0,.6-.2.8-.4-.5.3-1.3.3-2.3.2"/>
        <path class="cls-1" d="M83,10.2c1.1.6-.4,1.2-1.6,1.4.4,0,2.1-.8,1.6-1.4"/>
        <path class="cls-1" d="M79.9,13.7c-.1,0-.2-.1-.4-.1,0,0,0,0,0,0,0,0,0,0-.1,0,0,0,0,0,0,0,0,0-.1,0-.2,0-.1,0-.3-.1-.4-.1s0,0-.1,0c0,0,0,0,0,0-.2,0-.3.1-.4.3-.1.1-.2.3-.2.5s0,.1,0,.2l.9,4.4h5.6l.9-4.4c0,0,0-.1,0-.2,0-.2,0-.3-.2-.5,0,0-.1-.1-.2-.2,0,0-.2,0-.3-.1,0,0-.1,0-.2,0-.2,0-.3,0-.4.1,0,0-.2,0-.3-.1,0,0,0,0-.1,0-.2,0-.3,0-.4.1-.1,0-.2-.1-.4-.1,0,0,0,0,0,0-.2,0-.3,0-.4.1-.1,0-.3-.1-.4-.1h0s0,0,0,0c-.2,0-.3,0-.4.1-.1,0-.3-.1-.4-.1h0c-.1,0-.3,0-.4.1-.1,0-.3-.1-.4-.1s0,0,0,0c-.1,0-.2,0-.4.1"/>
        <path class="cls-5" d="M73.4,1.9C77.8,0,81-.3,84.8.2c12.7,1.5,21.6,14.6,17.6,27.7-3.5,11.3-15.1,17.3-25.6,14.6-9.4-2.3-15.3-10-16.3-18-.5-4.2,0-7.4,1.7-11.4-1.5,4-1.8,7.2-1.2,11.3,1.2,7.6,7,14.8,16,17,10,2.3,20.9-3.3,24.2-13.9,3.9-12.5-4.5-24.9-16.5-26.8-3.7-.6-7-.4-11.3,1.2ZM74.6,10.2c-11,6.1-7.8,22.8,4.7,24.2-11.3-3.3-14.1-16.6-4.7-24.2ZM83.9,34.4c12.5-1.4,15.7-18.1,4.7-24.2,9.4,7.5,6.6,20.9-4.7,24.2Z"/>
        <path class="cls-1" d="M79.9,13.7c-.1,0-.2-.1-.4-.1,0,0,0,0,0,0,0,0,0,0-.1,0,0,0,0,0,0,0,0,0-.1,0-.2,0-.1,0-.3-.1-.4-.1s0,0-.1,0c0,0,0,0,0,0-.2,0-.3.1-.4.3-.1.1-.2.3-.2.5s0,.1,0,.2l.9,4.4h5.6l.9-4.4c0,0,0-.1,0-.2,0-.2,0-.3-.2-.5,0,0-.1-.1-.2-.2,0,0-.2,0-.3-.1,0,0-.1,0-.2,0-.2,0-.3,0-.4.1,0,0-.2,0-.3-.1,0,0,0,0-.1,0-.2,0-.3,0-.4.1-.1,0-.2-.1-.4-.1,0,0,0,0,0,0-.2,0-.3,0-.4.1-.1,0-.3-.1-.4-.1h0s0,0,0,0c-.2,0-.3,0-.4.1-.1,0-.3-.1-.4-.1h0c-.1,0-.3,0-.4.1-.1,0-.3-.1-.4-.1s0,0,0,0c-.1,0-.2,0-.4.1"/>
        <path class="cls-3" d="M78.4,13.6s-.3-.6-.2-.8.7-.8.7-.8h.5c0,0-.1-.9-.1-.9l.5-.6.6-.2.2-.6.5-.2v-.4l.4-.5.5-.2h.5c0-.1-.2,0-.2.3s.5.8.6.9.8.5.9.7.2.6.2.7-.3.5-.3.5c0,0,.5.1.6.3s.3.5.2.7,0,.2,0,.2c0,0,.5.3.5.4s0,.4,0,.4v.4h-6.7v-.2Z"/>
        <path class="cls-2" d="M80.8,12.2c.7,0,2.1-.1,3-.7,0,0,0,0,0,0,.2,0,.4.2.5.4,0,.2.1.3,0,.5,0,0,0,0,0,0h0c0,.1.2.2.2.2,0,0,.2,0,.3.1.1,0,.2.2.3.3,0,.1,0,.3,0,.4,0,0,0,.2-.1.2-1.1.8-3.1.6-5.8.1-.1,0-.2,0-.5,0-.2-.2-.4-.6-.3-.9,0-.1,0-.2.1-.3,0-.1.1-.2.2-.3.3-.3.6-.3,1-.3,0-.2-.2-.4-.2-.7,0-.2,0-.3.2-.5,0-.1.2-.3.3-.3.1,0,.3,0,.4,0h.2s0-.2,0-.2c0,0,0,0,0-.1,0,0,0-.2,0-.3,0,0,.2-.2.3-.2,0,0,.1,0,.2,0h.2s0-.2,0-.2c0,0,0,0,0-.2,0,0,0-.2,0-.3,0-.1.2-.2.4-.4.1,0,.3-.1.5-.2-.2.6.3,1,.8,1.3,0,0,.1,0,.2.1,0,0,.1,0,.2.1.1,0,.2.1.3.2.1.1.2.3.3.4,0,.1,0,.3,0,.5-.4.6-2.4,1-3.1,1.1M85.1,14c0-.1.1-.2.2-.3,0-.2,0-.4,0-.6,0-.2-.2-.3-.3-.4,0,0-.1,0-.2-.1,0-.2,0-.5-.1-.7-.1-.2-.3-.4-.6-.5,0,0,0,0,0,0,.1-.2.2-.5.1-.7,0-.2-.2-.4-.3-.5-.1,0-.2-.2-.3-.3,0,0-.1,0-.2-.1,0,0-.1,0-.2-.1-.5-.3-1-.7-.6-1.2l.2-.3h-.3c-.4.1-.7.2-.9.3-.3.1-.4.3-.5.5,0,.2,0,.3,0,.5,0,0,0,0,0,0,0,0-.1,0-.1,0-.2,0-.3.2-.4.3,0,.1-.1.3-.1.5h0c-.1,0-.2,0-.4.1-.2,0-.3.2-.4.4-.1.2-.2.4-.2.6,0,.1,0,.3,0,.4-.3,0-.6.2-.8.4-.1.1-.2.2-.3.4,0,.1-.1.3-.1.4,0,.3,0,.6.3,1h0s0,0,0,0c.1,0,.3,0,.5,0,2.8.5,4.9.9,6.1,0h0s0,0,0,0Z"/>
        <path class="cls-2" d="M82.1,13.2c1.1,0,2.2,0,2.5-.6l-.2-.2c-.3.4-1.3.4-2.3.4-1.2,0-2.5,0-2.9.7.6-.5,2-.4,2.9-.4"/>
        <path class="cls-2" d="M80.3,10.2v.3c.6,0,1.1,0,1.5,0,.3,0,.6-.2.8-.4-.5.3-1.3.3-2.3.2"/>
        <path class="cls-1" d="M83,10.2c1.1.6-.4,1.2-1.6,1.4.4,0,2.1-.8,1.6-1.4"/>
      </g>
    </g>
  </g>
</svg>