<?xml version="1.0" encoding="UTF-8"?><svg id="Layer_1" xmlns="http://www.w3.org/2000/svg" viewBox="0 0 758.01 208.29"><defs><style>.cls-1{fill:#e56e89;}.cls-1,.cls-2{stroke-width:0px;}.cls-2{fill:#231f20;}</style></defs><path class="cls-1" d="M186.66,143.78c-2.55-1.6-6.62-4.39-9.34-5.99-2.55-2.99-5.26-4.79-6.96-7.59,0,0,0-1-1.02-1-1.19-4.99-3.39-12.18-3.23-19.57,1.7-13.78,3.9-27.76,10.02-39.94,4.24-9.18,8.83-16.18,12.73-21.77.85-1.6,2.89-3.59,4.58-4.99,3.57-2.8,6.96-7.99,12.05-11.98,2.38-.2,6.79-6.39,8.49-6.39,0,0,3.05,0,4.75-1.4h-1.7c3.39-2.79,10.69-4.39,18.67-5.79,8.66-1.4,10.86-.2,16.13-.2,6.96,0,13.75,3.2,18.33,9.38.68,1.2,1.53,3,1.19,5.59.68,2.8-.85,5.79-.85,7.79-1.53,2.4-2.89,7.39-5.43,8.79-3.23,1.6-5.09,2.2-6.45,3.99-1.36,0-2.21.6-3.73.6,1.7-4.39,5.94-9.59,5.94-13.78,1.36-3,2.04-7.59,2.04-9.19-1.02-5.99-5.77-9.98-11.54-10.98-7.3-1.4-11.71,2-15.96,2-2.38,1-4.41,2.6-5.26,2.99-4.41,1.8-6.11,4.99-10.01,7.79l-1.53,1.4c-3.22,1.4-4.58,3-6.45,3-.85,2.79-3.56,4.39-5.43,6.39-2.38,1.8-5.94,11.18-8.32,11.18-1.36,1-3.23,4.19-4.24,6.19-4.41,3.79-6.28,10.18-10.18,15.77-1.7,2.6-5.6,15.58-6.62,19.77-1.19,3.2-2.38,9.39-2.55,12.58l-1.36-1.6c-1.36,2.6-.34,7.39,1.02,8.79l-.17,3.39c0,4.19.51,4.59,1.19,5.59,0,1.8.68,4.59.68,5.59,2.55,6.39,15.79,10.98,25.63,8.39,3.05.4,5.43-1.4,8.83-2.6,3.22-1.2,8.83-2,12.22-3.99,8.32-4.99,7.81-3.99,13.41-7.99,6.45-3.2,8.83-5.39,14.26-10.19,4.07-4.39,7.3-7.99,8.66-9.98-.17,2.8-7.13,12.98-10.18,17.37-2.72,3.79-5.77,5.59-8.83,9.18-3.05,2-3.9,3.79-6.79,4.39-3.56,4.59-6.11,3.2-6.62,5.39-3.9-.4-4.58,1.2-5.77,2.39l-3.23-.4c-1.19,1.2-6.79,1.6-8.32,2l-3.73.8c-3.39.8-7.13.4-10.18,0-1.19-1.6-7.64-1.2-8.83-1.2Z"/><path class="cls-1" d="M292.24,140.99c-5.09-4.59-4.92-15.77,0-27.16-3.57,4.39-5.09,6.99-7.47,10.39,0,1.6-1.02.6-2.72,3.59l-1.53,1.4c-1.7,1.8-5.26,1.8-6.79,4.79-5.09,4.39-15.45,1.4-16.63-3-1.19-12.18,3.73-18.37,6.11-26.76,3.22-4.59,4.24-9.18,7.47-15.17,2.89-5.19,4.75-9.59,4.24-14.58-.17-1.6-1.02-2.6-1.19-2.99,3.74-.8,10.69,2,10.53,5.39-1.36,10.59-6.28,16.38-9.51,25.56-1.7,1.8-3.74,3.99-3.74,6.99-3.05,4.59-7.13,14.58-7.13,20.37,5.26,0,9-3.79,14.26-5.39,1.36-4.79,6.11-4.79,11.03-10.98,3.9-7.19,4.92-9.58,8.15-13.98,1.53-2.99,2.55-5.99,3.56-7.79,2.04-3,3.06-6.39,4.41-9.79,1.02-2.6,1.7-3.79,2.04-4.99.68-1.8.85-2.6,1.02-3.39,1.7,0,8.32,2,8.66,3.79.17,1.4-.34,3.79-.85,5.19l-.85,1.6-2.54,4.99c-.85,1.2-2.38,2.99-2.38,4.19-1.7,2-1.53,4.99-3.05,6.39-1.87,2.79-5.09,7.79-4.75,10.78-1.7,1.2,0,3.19-1.7,3.19v3c-1.19,3.79-2.38,6.39-2.89,10.38-.85,4.99-1.7,14.38,3.73,17.17-3.56,0-5.77-1.2-9.5-3.2Z"/><path class="cls-1" d="M372.02,87.07c.17,1.8-1.36,5.99-1.36,5.99l-1.19,4-1.53,2.19-4.07,5.99c-2.55,4.59-4.75,7.59-6.45,10.58-3.06,3-6.28,7.39-9.34,8.99-4.58,4.39-9.34,7.19-13.92,11.58-3.23,1.6-5.43,3.2-7.98,3.39-4.25-.8-5.26-1.2-8.66-3.79-.51,1.4-1.02,2.4-1.53,3.6-1.36,4.39-2.54,9.38-3.73,11.98-1.36,3.2-2.72,7.59-3.9,10.58,0,0-1.19,1.6-3.05,3l.34,4.79c-1.36,0-1.19,1.2-1.02,2.99-1.53,1.4-2.72,4.39-3.39,5.99-1.7,5.39-4.75,16.77-4.75,17.37-1.19,3.2-1.19,6.19-2.38,7.79.17,1.4-1.36,2.99-1.36,2.99-.34.4-.34.8-.51,1.2l-2.21-1.8c-5.09-6.99-3.9-8.39-3.9-10.18,3.39-8.99,5.77-13.78,6.79-18.97,1.19-6.19,3.73-10.58,6.62-15.18,1.02-6.19,4.92-11.98,6.28-16.58,1.02-3,2.54-5.99,3.73-8.99,0-1.6,1.19-4.79,1.19-7.59,2.72-1.6,2.54-4.39,3.73-7.59,3.57-13.78,9.68-25.16,12.05-32.75,1.36-3.39,2.55-12.98-2.21-14.58,5.43-.2,11.03,0,13.24,3.99,1.02,1.6,1.19,3.39,1.19,5.19-1.19,1.4-3.74,6.99-3.74,8.19l-6.28,14.78c1.7-2.6,3.23-4.79,4.75-6.99,2.04-2.79,2.04-3,3.74-5.99,2.55-4.39,5.6-6.99,7.13-9.99l2.55-3.39c2.04-3,4.24-4.59,8.49-6.39,2.72-1.2,3.74.4,6.79-1.2,0,1.6,3.23,1.6,4.58,3,2.38,1.6,1.87,3,4.92,4.59,1.19,2.8.17,5.39.34,7.19ZM365.57,77.48c-12.39,4.59-25.46,20.37-32.59,30.76-1.87,1.6-3.23,4.59-4.92,5.99-.34,1.4-1.36,3.2-3.9,5.99-.51,1.6-1.19,3-1.7,4.39-1.19,3-3.05,6.99-4.58,10.58,3.39,0,5.43-1.4,6.79-1.4,1.53-1.6,4.75-3,7.81-4.59,3.05-3,11.03-5.99,11.03-10.38,1.53-1.6,1.53-3,4.58-4.59,0-2.99,3.05-4.39,4.92-7.39,1.36-1.6,1.36-3,3.06-4.59,0-1.4,1.36-3,1.36-4.39,3.22-5.99,9.51-14.38,8.15-20.37Z"/><path class="cls-1" d="M387.29,141.59c0-1.4-2.55-1.4-4.07-2.99-1.19-1.4-2.72-4.39-5.43-4.39-2.55-3-3.9-5.99-3.9-11.98,0-8.99,8.49-23.16,12.73-29.16,5.09-8.19,10.18-14.38,14.77-17.97,3.39-3,6.96-4.39,8.66-4.39,4.92.4,7.64,1.4,9.34,3.6,0,1.4,0,3,1.19,4.39,0,3.6-.34,8.79-3.9,11.38-.85-2.4-1.7-4.79-2.21-8.59-.51-2.6-1.19-6.19-2.38-7.59l-1.53-.2c-5.26,4.59-6.96,9.59-11.03,13.98-2.72,5.99-5.26,7.59-6.79,11.98l-4.58,8.99c-1.53,2.99-1.53,5.99-2.55,7.59-1.7,5.99-4.07,10.78-2.55,16.77.85,1.4,4.07,0,6.79,0,5.09-2.19,11.03-6.39,12.56-7.19,2.55-.6,8.15-5.19,10.02-6.39,2.38-2,4.25-3,6.79-4.99,1.87-2.2,9.68-10.78,12.05-13.58-2.38,4.79-8.15,15.38-12.9,19.57-1.53,0-2.55,2.99-3.74,4.39,0,1.6-2.89,1.8-4.24,4.79-1.7,3-3.56,3.39-7.81,5.99,0,1.6-1.36,1.6-1.36,3-2.55,0-7.3,1.6-9.85,2.99h-4.07Z"/><path class="cls-1" d="M464.53,139.39c-1.87-.8-3.74-1.8-5.26-3.59-5.26-4.99-2.21-14.58-1.02-20.57-1.19,2.6-2.72,5.99-4.58,8.99-.85,1.4-1.87,2.79-5.09,4.39l1.36,1.6c-.85,1-6.11,5.19-7.13,5.99-2.04,1.2-2.38,2-4.75,2-4.41,0-7.47-1.4-10.69-3.99-1.87-1.4-2.38-1.4-2.89-3.59-1.02-1.8-1.53-3.6-1.19-5.59-.34-7.59,2.55-13.58,6.11-19.77,3.23-5.39,7.3-10.59,11.03-15.18,1.19-1.4,2.38-2.4,3.56-3.79.85-1,2.72-2.4,3.74-3.39.85-.8,1.53-1.2,2.55-2.2,1.19-.8,1.36-.6,2.55-1.4,1.02-.6,4.92-3.59,5.6-4.19,1.02-.4,2.89-1.4,5.26-2.4,1.19-.4,2.21-.8,3.56-1,1.02,0,2.38.2,3.39.4,1.53,0,2.89.2,3.73.6,2.38-3,3.74-6.39,7.47-6.39.51,1.2.34,1.4-.17,2.79-.17,2.4-1.02,3.79-1.02,4.59,2.38,1.2,3.4,1.8,5.09,2.6.17,1.4,2.55,1.2,2.72,2.39-2.55.6-6.11-.2-8.83-1-.68,2.4-2.89,7.99-3.9,10.58-2.38,5.39-3.23,7.79-5.43,13.38-3.05,7.79-6.96,17.37-6.96,25.96.17,1.6-1.19,7.79.34,8.79,2.03,1.4,4.92-1,5.77-1.8,1.02-.6,2.04-1.4,2.89-2.19l.51.2.17-1.2c.85-1.2,1.87-2.39,2.89-3.2,6.79-8.19,15.61-18.37,23.26-28.55-2.38,4.59-4.07,8.59-6.28,12.18-1.02,2-3.56,5.59-4.41,7.59-1.36,1.4-1.36,3.79-2.21,5.59-1.02,1.8-1.7,3-2.72,5.39-.68,1.2-1.7,2.4-2.72,3.4-.17.2-.17.4-.17.6l-2.72,3.2c-2.03,1.4-3.22,3.6-6.11,4.39-.51-1.8-5.43-1.6-7.3-2.6ZM449.08,120.42c3.23-3.99,7.81-8.59,9.84-13.38,2.21-5.19,4.58-10.38,7.13-15.38,2.21-4.39,5.26-10.98,7.3-15.58-.85-.2-1.19-.2-2.21-.2s-2.21,0-3.9.6c-5.09,2.79-10.86,7.39-13.75,10.78-.85.8-1.7.6-2.38,1.4-1.02,1-.68,1.8-1.19,2.6-.68.8-1.87,1-2.54,1.8-1.36,3-2.21,2.4-2.72,3.2-.68.8-.85,2.4-1.36,3.4-1.02,1.4-2.04,2.79-2.89,4.39-.85,1.4-1.53,2.8-2.21,3.99-2.38,3.59-5.43,9.58-3.74,10.98-1.53,4.19-2.21,9.59,0,11.58,5.94-1.4,11.04-5.79,14.6-10.19Z"/><path class="cls-1" d="M522.24,147.18c-1.36-1.6-2.89-4.59-4.41-4.59-1.36-2.99-2.89-3.39-4.24-6.39-1.36-2.99-2.04-5.59-3.56-8.59-2.21-4.59-2.72-12.18-3.56-16.38,3.73-1.6,6.79-2.99,9.51-4.59,6.28-4.39,15.61-12.38,20.03-19.77,1.7-1.6,5.43-7.19,4.58-10.19h-.51c-4.92,2.2-11.03,6.79-12.39,8.19-1.7,1.6-7.64,7.19-12.56,12.18-1.7,2.99-8.15,8.99-10.01,11.58-3.06,3.59-2.89,4.99-5.6,8.98-.34,3.4-1.87,6.59-4.07,10.98-1.02,4.59-4.07,7.59-5.6,10.58,0,0-1.53-1.6-3.06-1.6-1.36-1.4-1.36-3-.68-5.99.85-3,.68-3.99,2.21-6.99,1.02-3,3.05-5.99,4.58-8.99,0-1.4-.17-3,1.7-4.39-.68-2.99,1.87-5.99,3.05-8.99-.34-1.6,1.53-3,1.53-4.59,2.21-7.79,5.09-13.98,8.66-20.97,2.38-5.99,6.96-14.98,9.84-22.37,2.21-4.79,6.28-12.98,9.34-18.17.17-.6.34-1,.34-1.8l2.55-4.99c1.36-2.8,2.89-6.99,5.94-10.98,3.05-5.79,5.6-8.99,9-14.18,2.04-2.4,5.6-3.59,7.3-3.99q1.87-.2,2.89-.2c2.21,1.2,4.07,3.39,7.64,6.39,1.19.8.68,1.4-.17,1.4-4.41-2.8-7.47,3.39-8.83,4.19-1.36,2.2-2.38,3.79-4.24,5.19-.51,1.6-1.7,1.6-1.7,2.99-2.04,1.6-3.22,3-4.07,5.99-2.72,1.6-8.49,14.58-11.37,17.57-.85,2.99-5.77,11.98-7.13,13.58-.17,1.4-9.68,20.37-10.69,22.37-5.09,8.99-6.62,15.98-11.2,26.36,4.75-4.99,5.94-8.59,11.03-13.58,2.21-3,4.41-6.39,7.13-9.39,5.6-5.39,7.47-6.59,10.35-8.59l3.73-2c4.41-.8,9,.6,10.36,2.79,1.87,2.4,3.05,8.99,1.36,10.59-.68,2-.68,2.99-2.38,4.99-1.36,3.99-3.9,4.99-9.17,9.78-1.36,1.6-3.39,3.99-6.62,5.19-3.06,1.8-9.51,4-15.45,5.59l-2.04.6c1.87,2.4,5.09,12.98,8.83,18.57,0,1.6.85,1.8,1.7,2.99,1.7,2.8,3.57,4.19,4.92,6.59,1.36,0,3.22.8,5.43,0,3.73,0,6.96-4.79,11.03-9.59,2.38-2.6,3.23-4.79,5.26-6.59,1.53-2.2,4.58-6.79,6.45-10.19-1.19,4.2-2.72,5.79-5.09,11.78-2.04,1-4.24,3.99-4.07,6.99-2.38,3-3.06,3.79-5.09,5.79-1.53,2.6-3.05,3.4-5.43,7.19-1.53,0-4.07,3-5.6,3s-4.75-.2-7.64-1.4Z"/><path class="cls-1" d="M569.42,139.99c-2.89-1.4-4.75-1.4-6.11-4.39-3.06-1.6-6.79-3-8.15-5.99-.85-2.79-1.02-5.59-1.02-8.19,0-18.57,16.81-32.95,24.61-43.53,4.58-3,9.17-5.99,10.53-7.39,4.58,1.4,7.64,3,12.05,4.39,3.05,5.99-2.04,15.78-4.92,20.17l-.85,1.8-5.26,5.19c-2.38,2.19-5.43,3.79-8.32,5.39-2.21-.4-6.79-2.39-11.2-4.19-.85.8-2.21,3.79-2.21,5.39-1.7,2.99-4.75,11.98-4.75,16.37,0,3,1.7,5.99,3.06,8.99,9.68-1,22.24-5.99,28.69-11.58l9.68-8.39,1.53-1.4c3.22-2.79,6.45-6.19,9.68-9.78-1.7,3.99-6.11,8.98-10.36,13.38-1.36,1.6-3.73,4.99-4.41,7.19-1.36,3.79-4.41,5.19-4.58,8.19-3.23,1.2-3.23,2.6-6.28,3.79-4.92,2.79-9.34,3.99-14.09,6.79-3.05-.2-4.41-.4-7.3-2.2ZM587.25,93.66c1.53-1.6,3.05-1.6,3.05-2.99,0-1.6,0,0,1.36-1.6,1.7-1.4,5.26-7.19,3.74-11.78-1.53,0-1.53-1.4-3.06-1.4-7.47,5.99-16.47,16.18-20.88,25.16,7.47,0,11.2-4.39,15.79-7.39Z"/><path class="cls-1" d="M605.41,136.99c-2.21-4.39,1.53-7.79,2.04-12.98,2.72-4.59,3.39-11.18,6.11-17.37,2.04-4.99,3.39-7.39,5.09-13.58,1.19-3.2,2.72-4.99,1.7-11.18l1.19-2.99c.51-1.6-2.38-4.79-4.07-6.39,4.92.2,8.49,2.2,12.73,5.19,3.39,5.79-3.74,19.57-5.94,25.76,2.21-3,9.17-18.17,12.73-22.97,1.02-2.6,2.03-3.99,3.9-5.79,1.36-1.4,4.58-3,6.11-3.4,3.9-1,10.18,1.6,14.94,4.39,3.57,4.39,2.21,8.19.51,13.78-3.06,3.2-4.41,4.79-7.47,9.59-2.38,1.6-7.13,1-8.66,0,2.89-4.59,8.66-15.18,10.86-22.97-2.89-1.8-9.17,1.8-12.39,5.79l-2.21,2.6c-4.58,4.59-5.43,5.99-6.79,8.39-1.02,1.2-3.74,5.79-4.92,6.99-.68,1.4-1.53,1.4-2.21,3.2-3.05,4.39-2.21,2.79-4.41,6.19-.85,1.8-1.53,3.19-3.06,4.59-.85,3.2-.85,2.2-1.36,5.39-1.19,1.6-.51,1.4-1.7,3-1.36,6.39-5.43,9.99-4.75,17.77-1.53,0-.85-.4-3.74,0-2.04-1.6-4.07-1.2-4.24-2.99Z"/><path class="cls-1" d="M661.77,135.99c-2.89-3-4.75-5.99-4.25-9.78l.85-3.59c-.17-4.59,2.89-7.59,2.55-10.59,2.89-4.39,4.07-8.98,6.45-15.57,1.87-3.79,3.23-8.39,4.58-12.78,1.19-4.59,1.19-5.99,2.04-8.99,1.36,0,1.7-1.2,3.05.2,1.53,0,3.74,2.79,5.26,4.19q1.7,3,0,7.59c-1.7,4.39-5.09,8.99-6.45,14.98l-3.57,7.59c-1.53,1.4-.85,2.79-2.21,4.39.17,1.4-1.53,4.39-1.53,5.99-1.19,3-2.89,4.39-2.72,5.99.17,1.4-1.19,1.4-2.89,3,0,3,.17,4.39.68,7.39,5.6,0,10.18-3,13.07-4.39,7.3-4.59,21.73-22.96,27.5-30.35-1.36,4.39-11.54,18.37-12.73,21.37v1.4l-1.7,1.6c-1.19,3-5.09,6.59-5.09,9.59-4.41,5.99-10.69,5.39-15.28,5.79-4.41-2-6.28-3.39-7.64-4.99ZM690.11,37.54c1.7,3.39,8.15,4.79,5.09,9.78,0,1.6-1.36,3.2-2.89,4.79,0,1.6-1.36,1.8-.34,1.8-1.36.2-3.05,2.99-6.28,1.4-1.53,0-3.23-1.4-4.75,1.6-1.87-9.59,2.72-17.77,9.17-19.37Z"/><path class="cls-1" d="M710.99,139.99c-2.89-1.4-4.75-1.4-6.11-4.39-3.06-1.6-6.79-3-8.15-5.99-.85-2.79-1.02-5.59-1.02-8.19,0-18.57,16.81-32.95,24.61-43.53,4.58-3,9.17-5.99,10.53-7.39,4.58,1.4,7.64,3,12.05,4.39,3.05,5.99-2.04,15.78-4.92,20.17l-.85,1.8-5.26,5.19c-2.38,2.19-5.43,3.79-8.32,5.39-2.21-.4-6.79-2.39-11.2-4.19-.85.8-2.21,3.79-2.21,5.39-1.7,2.99-4.75,11.98-4.75,16.37,0,3,1.7,5.99,3.06,8.99,9.68-1,22.24-5.99,28.69-11.58l9.68-8.39,1.53-1.4c3.22-2.79,6.45-6.19,9.68-9.78-1.7,3.99-6.11,8.98-10.36,13.38-1.36,1.6-3.73,4.99-4.41,7.19-1.36,3.79-4.41,5.19-4.58,8.19-3.23,1.2-3.23,2.6-6.28,3.79-4.92,2.79-9.34,3.99-14.09,6.79-3.05-.2-4.41-.4-7.3-2.2ZM728.81,93.66c1.53-1.6,3.05-1.6,3.05-2.99,0-1.6,0,0,1.36-1.6,1.7-1.4,5.26-7.19,3.74-11.78-1.53,0-1.53-1.4-3.06-1.4-7.47,5.99-16.47,16.18-20.88,25.16,7.47,0,11.2-4.39,15.79-7.39Z"/><path class="cls-2" d="M299.72,31.78h-9.1v26.62h-1.59v-26.62h-8.98v-1.54h19.68v1.54Z"/><path class="cls-2" d="M328.39,30.24v28.16h-1.59v-12.69h-19.99v12.69h-1.59v-28.16h1.59v13.93h19.99v-13.93h1.59Z"/><path class="cls-2" d="M340.49,31.78v11.89h15.21v1.54h-15.21v11.66h17.27v1.54h-18.86v-28.16h18.86v1.54h-17.27Z"/><path class="cls-2" d="M349.44,193.18l1.88,1.24c-3.07,4.36-7.64,7.32-15.18,7.32-11.36,0-19.48-9.2-19.48-20.5s8.13-20.5,19.48-20.5c6.73,0,11.68,2.75,14.91,7.1l-1.88,1.29c-3.34-4.3-7.64-6.24-13.02-6.24-10.01,0-17.22,8.34-17.22,18.35s7.21,18.35,17.22,18.35c5.92,0,9.96-2.04,13.29-6.4Z"/><path class="cls-2" d="M353.48,200.88l18.24-39.45h1.02l18.19,39.45h-2.37l-4.14-8.83h-24.43l-4.14,8.83h-2.37ZM383.45,189.85l-11.19-24.43-11.3,24.43h22.5Z"/><path class="cls-2" d="M402.29,163.64v17.28h21.04v2.15h-21.04v17.81h-2.21v-39.39h26.1v2.15h-23.89Z"/><path class="cls-2" d="M438.68,163.64v16.63h21.04v2.15h-21.04v16.31h23.89v2.15h-26.1v-39.39h26.1v2.15h-23.89Z"/><path class="cls-2" d="M542.34,163.64v17.28h21.04v2.15h-21.04v17.81h-2.21v-39.39h26.1v2.15h-23.89Z"/><path class="cls-2" d="M578.72,200.88h-2.21v-39.39h16.63c7.05,0,12.22,5.33,12.22,12.65s-4.14,11.89-11.25,12.32l10.06,14.42h-2.69l-9.96-14.37h-12.81v14.37ZM578.72,184.36h13.94c4.41,0,10.5-1.99,10.5-10.28,0-3.66-2.1-10.44-10.5-10.44h-13.94v20.72Z"/><path class="cls-2" d="M614.83,181.18c0-11.36,8.4-20.56,19.48-20.56s19.7,9.2,19.7,20.56-8.45,20.56-19.7,20.56-19.48-9.2-19.48-20.56ZM617.04,181.18c0,10.06,7.48,18.41,17.28,18.41s17.44-8.34,17.44-18.41-7.43-18.41-17.44-18.41-17.28,8.4-17.28,18.41Z"/><path class="cls-2" d="M662.57,195.39c3.66,2.58,8.4,4.14,13.08,4.14,6.4,0,11.57-2.53,11.57-8.56s-6.14-8.02-12.49-9.1c-5.11-.86-14.05-2.42-14.05-10.22,0-8.23,7.48-10.87,13.45-10.87,4.95,0,8.88,1.34,11.95,3.44l-1.24,1.94c-3.55-2.26-6.94-3.17-11.14-3.17s-10.76,2.1-10.76,8.5,8.4,7.59,14.53,8.72c4.52.86,12,2.96,12,10.82s-6.14,10.71-13.62,10.71c-5.97,0-10.92-1.78-14.53-4.36l1.24-1.99Z"/><path class="cls-2" d="M700.73,163.64v16.63h21.04v2.15h-21.04v16.31h23.89v2.15h-26.1v-39.39h26.1v2.15h-23.89Z"/><path class="cls-1" d="M72.1,11.6c-11.23,0-21.86,2.57-31.34,7.15,21.31-8.87,47.04-6.6,67.71,8.2,31.28,22.4,39.14,65.01,17.54,95.17-21.6,30.16-64.46,36.45-95.74,14.05C8.91,120.88-1.51,96.17.88,72.44c-.58,3.67-.88,7.43-.88,11.26,0,39.82,32.28,72.1,72.1,72.1s72.1-32.28,72.1-72.1S111.92,11.6,72.1,11.6Z"/><path class="cls-2" d="M488.18,190.95c0-1.68.33-3.15,1-4.41.67-1.26,1.52-2.39,2.55-3.38,1.03-.99,2.18-1.89,3.44-2.69,1.26-.8,2.48-1.58,3.67-2.35-.65-.8-1.3-1.59-1.95-2.38-.65-.78-1.24-1.6-1.78-2.46-.54-.86-.97-1.76-1.32-2.69-.34-.94-.52-1.96-.52-3.06s.25-2.03.75-2.89c.5-.86,1.15-1.59,1.95-2.21.8-.61,1.72-1.09,2.75-1.43,1.03-.34,2.08-.52,3.15-.52s2.18.15,3.21.46c1.03.3,1.95.75,2.75,1.35.8.59,1.44,1.33,1.92,2.21.48.88.72,1.89.72,3.04,0,1.45-.26,2.71-.77,3.78s-1.17,2.03-1.98,2.89c-.8.86-1.71,1.64-2.72,2.35-1.01.71-2.01,1.42-3.01,2.15l9.74,11.97c.42-1.07.75-2.18,1-3.32.25-1.14.37-2.31.37-3.49h2.18c-.08,1.49-.3,2.97-.66,4.44-.36,1.47-.83,2.88-1.4,4.21l6.64,8.19h-2.92l-4.98-6.07c-1.26,2.1-2.88,3.75-4.87,4.96-1.99,1.2-4.24,1.8-6.76,1.8-1.72,0-3.31-.22-4.78-.66-1.47-.44-2.75-1.09-3.84-1.95-1.09-.86-1.95-1.95-2.58-3.26-.63-1.32-.95-2.84-.95-4.55ZM490.36,190.95c0,1.34.29,2.54.86,3.61.57,1.07,1.33,1.97,2.26,2.69.93.73,2,1.28,3.18,1.66,1.18.38,2.41.57,3.67.57,1.72,0,3.22-.33,4.5-1s2.34-1.4,3.18-2.21c.84-.8,1.47-1.56,1.89-2.26.42-.71.63-1.1.63-1.17l-10.54-13.12c-1.07.69-2.17,1.38-3.29,2.09-1.13.71-2.16,1.5-3.09,2.38-.94.88-1.71,1.86-2.32,2.95-.61,1.09-.92,2.36-.92,3.81ZM500.73,177.08c.84-.54,1.7-1.12,2.58-1.75.88-.63,1.69-1.33,2.43-2.09.74-.76,1.35-1.62,1.83-2.58.48-.95.72-2,.72-3.15,0-.76-.19-1.46-.57-2.09-.38-.63-.87-1.17-1.46-1.63-.59-.46-1.27-.81-2.03-1.06-.76-.25-1.55-.37-2.35-.37s-1.59.12-2.35.37c-.76.25-1.44.6-2.03,1.06-.59.46-1.08,1-1.46,1.63-.38.63-.57,1.33-.57,2.09,0,.99.19,1.92.57,2.78.38.86.84,1.68,1.38,2.46.53.78,1.11,1.53,1.72,2.23.61.71,1.15,1.4,1.6,2.09Z"/><polygon class="cls-2" points="454.66 151.13 457.46 151.13 450.1 158.82 448.07 158.82 454.66 151.13"/><polygon class="cls-2" points="715.43 151.13 718.23 151.13 710.87 158.82 708.84 158.82 715.43 151.13"/></svg>