<?xml version="1.0" encoding="UTF-8"?><svg id="Layer_1" xmlns="http://www.w3.org/2000/svg" viewBox="0 0 384.51 256.29"><defs><style>.cls-1{fill:#f7d135;}.cls-1,.cls-2,.cls-3{stroke-width:0px;}.cls-2{fill:#2d2725;}.cls-3{fill:#ef9128;}</style></defs><path class="cls-2" d="M218.92,215.17c-2.42,0-4.84.08-7.25-.02-2.14-.1-3.32.83-3.62,2.9-.56,3.86-1.01,7.74-1.65,11.59-.48,2.86-1.07,5.72-1.85,8.51-.2.74-1.24,1.75-1.92,1.77-6.81.22-13.62.24-20.43.38-2.17.04-3.13-.93-2.86-3.02.34-2.63.78-5.25,1.22-7.86,1.87-11.14,3.8-22.27,5.61-33.43.85-5.25,1.51-10.53,2.17-15.81,1.06-8.4,1.96-16.82,3.11-25.2,1.15-8.38,2.6-16.72,3.8-25.09.82-5.74,1.45-11.51,2.14-17.28.66-5.52,1.28-11.04,1.94-16.56.66-5.51,1.27-11.02,2.08-16.51.43-2.94,1.19-5.84,1.9-8.74.47-1.94,1.6-2.29,3.71-2.13,4.26.33,8.58-.02,12.87-.1.99-.02,1.99-.16,2.97-.1,2.99.18,5.97.48,8.95.63,3.04.16,4.45,1.38,4.6,4.37.44,8.91,2.06,17.63,3.67,26.38.81,4.4.82,8.94,1.31,13.4,1,9.18,2.03,18.36,3.13,27.53.96,8,1.98,16,3.07,23.98.61,4.45,1.51,8.86,2.13,13.3.76,5.42,1.31,10.88,2.06,16.3,1.35,9.71,2.73,19.41,4.19,29.1.67,4.43,1.62,8.82,2.35,13.24.43,2.58-.18,2.82-2.84,2.68-5.23-.26-10.48-.21-15.73-.27-2-.02-4.01.16-5.99-.04-.77-.08-1.99-.86-2.09-1.48-.4-2.35-.39-4.77-.61-7.16-.12-1.31-.39-2.6-.58-3.9-.39-2.72-.77-5.44-1.16-8.16-.47-3.23-.91-3.54-4.16-3.42-2.08.08-4.16.01-6.25.01,0,.07,0,.13,0,.2ZM210.67,192.1c4.67,0,9.23.02,13.78,0,1.65,0,2.1-1.02,1.98-2.5-.41-4.97-.67-9.95-1.23-14.9-.77-6.76-1.92-13.49-2.61-20.26-.92-9.09-1.52-18.21-2.36-27.3-.18-1.96-.81-3.88-1.24-5.81-.36.03-.73.06-1.09.09-2.85,23.39-5.33,46.82-7.24,70.69Z"/><path class="cls-2" d="M129.46,109.09c0,4.74,0,9.48,0,14.23.01,4.96.05,9.93.06,14.89,0,9.32-.08,18.64.02,27.95.16,15.4.34,30.79.72,46.19.19,7.55,4.42,8.94,10.85,8.32,2.73-.26,5.24-3.53,5.15-6.54-.14-5.2,1.23-10.41-.39-15.64-.69-2.24.59-3.35,3.09-3.27,2.33.08,4.65.45,6.98.47,3.9.03,7.81.03,11.7-.23,3.43-.23,4.85,1.09,4.84,4.46,0,5.47.36,10.94.37,16.41.02,8.94-3.63,16.5-10.92,21.26-4.36,2.85-9.71,4.29-15.42,4.84-9.09.87-17.58-.97-25.99-3.34-6.02-1.7-9.97-6.56-13.03-12.03-1.98-3.54-2.46-7.22-2.48-11.21-.04-7.98-.62-15.96-.74-23.95-.06-3.98.57-7.97.58-11.96.01-6.98-.32-13.97-.31-20.95.02-7.4.36-14.8.4-22.2.02-3.45-.38-6.91-.55-10.37-.04-.83-.07-1.68.09-2.48,1.62-8.28,1-16.6.23-24.89-.6-6.51.38-12.65,3.71-18.25,1.08-1.82,3.09-3.08,4.62-4.66,4.64-4.79,10.44-7.77,16.67-9.63,2.9-.87,6.26-.3,9.4-.18,2.3.09,4.59.7,6.89.76,10.2.28,22.61,10.1,24.32,20.14,1.16,6.84,1.27,13.87,1.68,20.83.09,1.53-.27,3.19-.86,4.6-.32.75-1.59,1.53-2.44,1.54-6.25.1-12.49-.02-18.74,0-2.21,0-3.27-1.11-3.29-3.18-.04-4.99-.02-9.99.05-14.98.05-3.41-1.87-5.59-5.32-5.81-1.41-.09-2.83-.05-4.25-.04-4.83.04-7.32,2.54-7.35,7.41-.03,3.83,0,7.65,0,11.48-.1,0-.2,0-.3,0Z"/><path class="cls-2" d="M331.52,149.43c0-13.07.11-26.14-.04-39.2-.09-7.55-.59-15.1-.92-22.66-.22-5.14-.49-10.29-.61-15.43-.02-.67.59-1.68,1.19-1.98,1.06-.53,2.33-.87,3.53-.9,8.81-.21,17.63-.39,26.44-.46,5.89-.05,11.77.1,17.66.14,2.18.02,2.72,1.15,2.76,3.21.08,4.06.54,8.1.72,12.16.09,2.06.09,4.16-.21,6.19-.11.71-1.18,1.72-1.92,1.82-3.54.49-7.1.89-10.67.99-3.99.11-8-.04-11.99-.24-2.32-.12-3.08.76-2.96,3.04.2,3.9.21,7.82.22,11.73,0,2.54-.25,5.09-.17,7.63.24,7.95.62,15.91.85,23.86.05,1.68.84,1.84,2.19,1.84,5.08.01,10.16.14,15.24.16,1.86,0,2.64.65,2.6,2.67-.09,5.41.08,10.81.08,16.22,0,1.14-.01,2.45-.54,3.38-.47.81-1.64,1.63-2.56,1.7-5.13.41-10.29.54-15.42.94-.67.05-1.75,1.07-1.79,1.7-.19,2.97-.13,5.96-.08,8.95.04,2.25,1.1,4.63-1.09,6.55-.28.24-.08,1.08-.03,1.64.11,1.32.34,2.64.39,3.97.33,7.7.7,15.4.9,23.1.06,2.2.93,2.9,3.01,2.85,6.99-.16,13.99-.2,20.99-.34,3.49-.07,4.1.45,4.26,3.87.29,5.97.57,11.94.94,17.9.14,2.31-.79,3.5-3.1,3.53-3,.04-6,0-8.99.03-11.74.1-23.48.1-35.21.35-6.49.14-7.81-1.08-7.68-7.52.24-11.15.31-22.3.5-33.44.28-16.65.6-33.3.9-49.95.2,0,.4,0,.6,0Z"/><path class="cls-2" d="M292.51,120.04c0,5.83-.02,11.66,0,17.49.01,2.88.82,3.71,3.73,3.72,3.89.01,7.79-.1,11.68-.14,3.67-.03,4.28.61,4.35,4.25.1,5.32.23,10.64.36,15.95.11,4.47-.42,5.05-4.91,4.91-3.83-.11-7.65-.32-11.48-.51-1.99-.1-2.79.77-2.89,2.79-.44,8.88-1.15,17.75-1.48,26.64-.21,5.8.09,11.62.11,17.44.02,5.64.03,11.29-.07,16.93-.05,2.82-.25,5.65-.58,8.45-.18,1.52-1.08,2.43-2.92,2.32-5.89-.36-11.8-.56-17.7-.86-2.11-.11-3.24-1.53-3.28-3.43-.13-5.82-.05-11.64-.06-17.46,0-1.97-.1-3.95-.07-5.92.38-19.96.77-39.92,1.18-59.88.13-6.32.38-12.63.51-18.94.16-7.7.44-15.41.34-23.11-.13-9.31-.63-18.62-.92-27.93-.11-3.66,0-7.32-.11-10.98-.05-1.69.51-2.84,2.25-2.94,2.37-.14,4.74-.11,7.11-.08,3.62.05,7.23.29,10.85.23,5.07-.09,10.13-.42,15.2-.56,3.71-.1,7.42-.16,11.12-.04,1.46.05,2.99.43,4.33,1.02.62.27,1.22,1.38,1.24,2.12.11,5.9.13,11.81.08,17.71-.02,2.54-.86,3.16-3.39,3.12-7.08-.11-14.16-.13-21.24-.28-1.77-.04-2.54.45-2.63,2.33-.39,8.54-.9,17.08-1.37,25.61.22.01.43.02.65.03Z"/><path class="cls-2" d="M353.98,54.26c-2.82,0-5.64,0-8.45,0-2.07,0-2.5-1.17-1.76-2.78,2.55-5.57,5.17-11.11,7.81-16.63,1.02-2.14,3.05-2.81,5.18-2.85,4.47-.08,8.95-.04,13.41.15,1.03.04,2.24.69,2.95,1.45.28.29-.42,1.8-.98,2.52-4.4,5.72-8.77,11.48-13.43,16.98-.87,1.03-3.02.98-4.58,1.43-.05-.09-.09-.18-.14-.27Z"/><path class="cls-2" d="M200.94,25.19h-10.26v-5.69h27.51v5.69h-10.25v17.33h-7.01v-17.33Z"/><path class="cls-2" d="M229.52,19.49h7.01v8.53h15.95v-8.53h7v23.02h-7v-8.8h-15.95v8.8h-7.01v-23.02Z"/><path class="cls-2" d="M297.83,19.49v5.21h-18.61v3.97h17.53v4.56h-17.53v4.07h18.85v5.21h-25.75v-23.02h25.51Z"/><path class="cls-3" d="M59.42,46.04l.28.28L92.46,13.57c-18.09-18.09-47.42-18.09-65.51,0h28.86l3.61,32.47Z"/><polygon class="cls-1" points="55.81 13.57 26.95 13.57 59.42 46.04 55.81 13.57"/><path class="cls-1" d="M45.91,251.44s-6.68-.24-6.68-5.72c0-3.53-.95-21.3-.95-38.63s.95-33.39.95-33.39c0,0,.02-6.12,2.86-10.25,2.62-3.82,25.27-25.42,25.89-35.71.56-9.24-6.35-57.14-6.35-57.14H10.06s-7.19,49.5-6.35,57.14,24.41,33.72,26.7,36.67c2.66,3.42,2.15,8.35,2.15,8.35,0,0,.72,15.36.72,33.15s-.28,36.25-.48,40.07c-.3,5.87-8.02,5.6-9.07,5.92,0,0-13.66,1.52-19.73,2.09-4.82.45-5.67,2.33-.28,2.33h64.28c5.26,0,4.62-2.05-1.01-2.52-6.83-.57-21.07-2.33-21.07-2.33Z"/></svg>